<ttFont>
<head>
    <!-- Most of this table will be recalculated by the compiler -->
    <tableVersion value="1.0"/>
    <fontRevision value="2.0"/>
    <checkSumAdjustment value="0xf890b622"/>
    <magicNumber value="0x5f0f3cf5"/>
    <flags value="00000000 00011111"/>
    <unitsPerEm value="1000"/>
    <created value="Wed Apr 23 16:09:05 2008"/>
    <modified value="Sat Nov 26 18:57:27 2011"/>
    <xMin value="-900"/>
    <yMin value="-613"/>
    <xMax value="1956"/>
    <yMax value="994"/>
    <macStyle value="00000000 00000000"/>
    <lowestRecPPEM value="8"/>
    <fontDirectionHint value="2"/>
    <indexToLocFormat value="0"/>
    <glyphDataFormat value="0"/>
  </head>
    <TTGlyph name=".notdef" xMin="33" yMin="0" xMax="298" yMax="666">
      <contour>
        <pt x="33" y="0" on="1"/>
        <pt x="33" y="666" on="1"/>
        <pt x="298" y="666" on="1"/>
        <pt x="298" y="0" on="1"/>
      </contour>
      <contour>
        <pt x="66" y="33" on="1"/>
        <pt x="265" y="33" on="1"/>
        <pt x="265" y="633" on="1"/>
        <pt x="66" y="633" on="1"/>
      </contour>
    </TTGlyph>
    <TTGlyph name="A" xMin="42" yMin="-228" xMax="1014" yMax="411">
      <contour>
        <pt x="1014" y="106" on="1"/>
        <pt x="1014" y="99" on="1"/>
        <pt x="1014" y="-73" on="0"/>
        <pt x="857" y="-158" on="1"/>
        <pt x="729" y="-227" on="0"/>
        <pt x="520" y="-228" on="1"/>
        <pt x="516" y="-228" on="1"/>
        <pt x="340" y="-228" on="0"/>
        <pt x="200" y="-139" on="1"/>
        <pt x="42" y="-41" on="0"/>
        <pt x="42" y="108" on="1"/>
        <pt x="42" y="177" on="0"/>
        <pt x="61" y="229" on="1"/>
        <pt x="74" y="255" on="0"/>
        <pt x="86" y="282" on="1"/>
        <pt x="135" y="261" on="1"/>
        <pt x="91" y="185" on="0"/>
        <pt x="91" y="102" on="1"/>
        <pt x="91" y="-39" on="0"/>
        <pt x="247" y="-122" on="1"/>
        <pt x="372" y="-188" on="0"/>
        <pt x="520" y="-188" on="1"/>
        <pt x="920" y="-188" on="0"/>
        <pt x="921" y="113" on="1"/>
        <pt x="921" y="243" on="0"/>
        <pt x="854" y="246" on="1"/>
        <pt x="822" y="248" on="0"/>
        <pt x="810" y="222" on="1"/>
        <pt x="810" y="0" on="1"/>
        <pt x="609" y="0" on="1"/>
        <pt x="609" y="190" on="1"/>
        <pt x="520" y="190" on="1"/>
        <pt x="520" y="112" on="1"/>
        <pt x="520" y="-5" on="0"/>
        <pt x="358" y="0" on="1"/>
        <pt x="299" y="2" on="0"/>
        <pt x="247" y="33" on="1"/>
        <pt x="188" y="68" on="0"/>
        <pt x="178" y="124" on="1"/>
        <pt x="176" y="135" on="0"/>
        <pt x="176" y="144" on="1"/>
        <pt x="176" y="221" on="0"/>
        <pt x="261" y="221" on="1"/>
        <pt x="302" y="221" on="1"/>
        <pt x="302" y="411" on="1"/>
        <pt x="655" y="411" on="1"/>
        <pt x="655" y="380" on="1"/>
        <pt x="519" y="380" on="1"/>
        <pt x="519" y="221" on="1"/>
        <pt x="695" y="221" on="1"/>
        <pt x="732" y="221" on="0"/>
        <pt x="746" y="197" on="1"/>
        <pt x="746" y="411" on="1"/>
        <pt x="810" y="411" on="1"/>
        <pt x="809" y="261" on="1"/>
        <pt x="830" y="283" on="0"/>
        <pt x="864" y="283" on="1"/>
        <pt x="928" y="282" on="0"/>
        <pt x="1012" y="187" on="0"/>
      </contour>
      <contour>
        <pt x="746" y="36" on="1"/>
        <pt x="746" y="129" on="1"/>
        <pt x="746" y="137" on="0"/>
        <pt x="742" y="161" on="1"/>
        <pt x="741" y="169" on="0"/>
        <pt x="731" y="178" on="1"/>
        <pt x="718" y="191" on="0"/>
        <pt x="699" y="191" on="1"/>
        <pt x="646" y="191" on="1"/>
        <pt x="647" y="163" on="0"/>
        <pt x="646" y="36" on="1"/>
      </contour>
      <contour>
        <pt x="446" y="380" on="1"/>
        <pt x="338" y="380" on="1"/>
        <pt x="337" y="221" on="1"/>
        <pt x="445" y="221" on="1"/>
      </contour>
      <contour>
        <pt x="444" y="122" on="1"/>
        <pt x="444" y="190" on="1"/>
        <pt x="274" y="190" on="1"/>
        <pt x="232" y="190" on="0"/>
        <pt x="219" y="172" on="1"/>
        <pt x="208" y="159" on="0"/>
        <pt x="210" y="126" on="1"/>
        <pt x="212" y="89" on="0"/>
        <pt x="255" y="65" on="1"/>
        <pt x="291" y="43" on="0"/>
        <pt x="338" y="41" on="1"/>
        <pt x="389" y="38" on="0"/>
        <pt x="419" y="68" on="1"/>
        <pt x="444" y="93" on="0"/>
      </contour>
    </TTGlyph>
    <TTGlyph name="Aacute" xMin="-239" yMin="0" xMax="121" yMax="669">
      <contour>
        <pt x="121" y="0" on="1"/>
        <pt x="73" y="0" on="1"/>
        <pt x="73" y="426" on="1"/>
        <pt x="73" y="614" on="0"/>
        <pt x="-82" y="609" on="1"/>
        <pt x="-142" y="607" on="0"/>
        <pt x="-177" y="568" on="1"/>
        <pt x="-208" y="532" on="0"/>
        <pt x="-203" y="486" on="1"/>
        <pt x="-201" y="465" on="0"/>
        <pt x="-169" y="417" on="0"/>
        <pt x="-154" y="409" on="1"/>
        <pt x="-152" y="397" on="1"/>
        <pt x="-181" y="399" on="1"/>
        <pt x="-181" y="397" on="0"/>
        <pt x="-229" y="452" on="0"/>
        <pt x="-236" y="491" on="1"/>
        <pt x="-239" y="506" on="0"/>
        <pt x="-239" y="520" on="1"/>
        <pt x="-239" y="580" on="0"/>
        <pt x="-152" y="664" on="0"/>
        <pt x="-78" y="669" on="1"/>
        <pt x="-65" y="669" on="1"/>
        <pt x="14" y="669" on="0"/>
        <pt x="67" y="597" on="1"/>
        <pt x="121" y="523" on="0"/>
        <pt x="121" y="415" on="1"/>
      </contour>
    </TTGlyph>
    <TTGlyph name="Acircumflex" xMin="-348" yMin="0" xMax="20" yMax="668">
      <contour>
        <pt x="20" y="0" on="1"/>
        <pt x="-25" y="0" on="1"/>
        <pt x="-25" y="425" on="1"/>
        <pt x="-25" y="521" on="0"/>
        <pt x="-78" y="569" on="1"/>
        <pt x="-124" y="611" on="0"/>
        <pt x="-199" y="608" on="1"/>
        <pt x="-259" y="606" on="0"/>
        <pt x="-290" y="567" on="1"/>
        <pt x="-317" y="532" on="0"/>
        <pt x="-312" y="485" on="1"/>
        <pt x="-310" y="464" on="0"/>
        <pt x="-262" y="395" on="0"/>
        <pt x="-247" y="387" on="1"/>
        <pt x="-245" y="375" on="1"/>
        <pt x="-274" y="377" on="1"/>
        <pt x="-274" y="375" on="0"/>
        <pt x="-338" y="451" on="0"/>
        <pt x="-345" y="490" on="1"/>
        <pt x="-348" y="506" on="0"/>
        <pt x="-348" y="522" on="1"/>
        <pt x="-348" y="582" on="0"/>
        <pt x="-267" y="663" on="0"/>
        <pt x="-195" y="668" on="1"/>
        <pt x="-182" y="668" on="1"/>
        <pt x="-101" y="668" on="0"/>
        <pt x="-43" y="597" on="1"/>
        <pt x="20" y="520" on="0"/>
        <pt x="20" y="414" on="1"/>
      </contour>
    </TTGlyph>
    <TTGlyph name="Adieresis" xMin="-389" yMin="387" xMax="-75" yMax="668">
      <contour>
        <pt x="-75" y="547" on="1"/>
        <pt x="-75" y="506" on="0"/>
        <pt x="-130" y="459" on="0"/>
        <pt x="-166" y="462" on="1"/>
        <pt x="-210" y="466" on="0"/>
        <pt x="-235" y="497" on="1"/>
        <pt x="-257" y="524" on="0"/>
        <pt x="-257" y="562" on="1"/>
        <pt x="-257" y="603" on="0"/>
        <pt x="-232" y="624" on="1"/>
        <pt x="-252" y="624" on="0"/>
        <pt x="-281" y="610" on="1"/>
        <pt x="-325" y="588" on="0"/>
        <pt x="-338" y="546" on="1"/>
        <pt x="-344" y="528" on="0"/>
        <pt x="-344" y="512" on="1"/>
        <pt x="-344" y="451" on="0"/>
        <pt x="-261" y="387" on="1"/>
        <pt x="-306" y="389" on="1"/>
        <pt x="-333" y="406" on="0"/>
        <pt x="-327" y="408" on="1"/>
        <pt x="-389" y="470" on="0"/>
        <pt x="-389" y="528" on="1"/>
        <pt x="-389" y="552" on="0"/>
        <pt x="-379" y="575" on="1"/>
        <pt x="-356" y="628" on="0"/>
        <pt x="-297" y="652" on="1"/>
        <pt x="-258" y="668" on="0"/>
        <pt x="-217" y="668" on="1"/>
        <pt x="-207" y="668" on="0"/>
        <pt x="-197" y="667" on="1"/>
        <pt x="-141" y="662" on="0"/>
        <pt x="-75" y="594" on="0"/>
      </contour>
      <contour>
        <pt x="-186" y="618" on="1"/>
        <pt x="-231" y="613" on="0"/>
        <pt x="-224" y="547" on="1"/>
        <pt x="-221" y="523" on="0"/>
        <pt x="-183" y="494" on="0"/>
        <pt x="-168" y="498" on="1"/>
        <pt x="-132" y="508" on="0"/>
        <pt x="-132" y="550" on="1"/>
        <pt x="-132" y="578" on="0"/>
        <pt x="-159" y="621" on="0"/>
      </contour>
    </TTGlyph>
    <TTGlyph name="Agrave" xMin="54" yMin="0" xMax="410" yMax="414">
      <contour>
        <pt x="410" y="379" on="1"/>
        <pt x="278" y="379" on="1"/>
        <pt x="278" y="0" on="1"/>
        <pt x="203" y="0" on="1"/>
        <pt x="203" y="379" on="1"/>
        <pt x="100" y="379" on="1"/>
        <pt x="100" y="0" on="1"/>
        <pt x="54" y="0" on="1"/>
        <pt x="54" y="414" on="1"/>
        <pt x="410" y="414" on="1"/>
      </contour>
    </TTGlyph>
    <TTGlyph name="Aogonek" xMin="44" yMin="-14" xMax="960" yMax="669">
      <contour>
        <pt x="960" y="0" on="1"/>
        <pt x="914" y="0" on="1"/>
        <pt x="915" y="426" on="1"/>
        <pt x="915" y="607" on="0"/>
        <pt x="758" y="602" on="1"/>
        <pt x="698" y="600" on="0"/>
        <pt x="670" y="566" on="1"/>
        <pt x="647" y="536" on="0"/>
        <pt x="651" y="489" on="1"/>
        <pt x="653" y="464" on="0"/>
        <pt x="690" y="422" on="1"/>
        <pt x="750" y="427" on="0"/>
        <pt x="793" y="389" on="1"/>
        <pt x="842" y="345" on="0"/>
        <pt x="842" y="261" on="1"/>
        <pt x="842" y="197" on="0"/>
        <pt x="812" y="133" on="1"/>
        <pt x="780" y="65" on="0"/>
        <pt x="666" y="-5" on="0"/>
        <pt x="569" y="-12" on="1"/>
        <pt x="549" y="-14" on="0"/>
        <pt x="530" y="-14" on="1"/>
        <pt x="457" y="-14" on="0"/>
        <pt x="349" y="26" on="0"/>
        <pt x="331" y="59" on="1"/>
        <pt x="287" y="-12" on="0"/>
        <pt x="200" y="-12" on="1"/>
        <pt x="140" y="-12" on="0"/>
        <pt x="96" y="27" on="1"/>
        <pt x="44" y="74" on="0"/>
        <pt x="44" y="159" on="1"/>
        <pt x="44" y="411" on="1"/>
        <pt x="111" y="411" on="1"/>
        <pt x="111" y="167" on="1"/>
        <pt x="111" y="33" on="0"/>
        <pt x="220" y="33" on="1"/>
        <pt x="254" y="33" on="0"/>
        <pt x="307" y="75" on="0"/>
        <pt x="307" y="109" on="1"/>
        <pt x="307" y="407" on="1"/>
        <pt x="384" y="407" on="1"/>
        <pt x="384" y="147" on="1"/>
        <pt x="384" y="96" on="0"/>
        <pt x="436" y="60" on="1"/>
        <pt x="485" y="27" on="0"/>
        <pt x="545" y="26" on="1"/>
        <pt x="722" y="24" on="0"/>
        <pt x="748" y="162" on="1"/>
        <pt x="745" y="165" on="0"/>
        <pt x="744" y="163" on="1"/>
        <pt x="743" y="160" on="0"/>
        <pt x="741" y="162" on="1"/>
        <pt x="723" y="150" on="0"/>
        <pt x="699" y="150" on="1"/>
        <pt x="652" y="150" on="0"/>
        <pt x="615" y="182" on="1"/>
        <pt x="569" y="221" on="0"/>
        <pt x="569" y="290" on="1"/>
        <pt x="569" y="354" on="0"/>
        <pt x="615" y="393" on="1"/>
        <pt x="631" y="406" on="0"/>
        <pt x="653" y="415" on="1"/>
        <pt x="619" y="462" on="0"/>
        <pt x="614" y="491" on="1"/>
        <pt x="611" y="507" on="0"/>
        <pt x="611" y="522" on="1"/>
        <pt x="611" y="582" on="0"/>
        <pt x="692" y="664" on="0"/>
        <pt x="764" y="669" on="1"/>
        <pt x="776" y="669" on="1"/>
        <pt x="855" y="669" on="0"/>
        <pt x="907" y="597" on="1"/>
        <pt x="960" y="523" on="0"/>
        <pt x="960" y="415" on="1"/>
      </contour>
      <contour>
        <pt x="763" y="284" on="1"/>
        <pt x="761" y="328" on="0"/>
        <pt x="716" y="381" on="0"/>
        <pt x="678" y="379" on="1"/>
        <pt x="615" y="375" on="0"/>
        <pt x="613" y="292" on="1"/>
        <pt x="612" y="243" on="0"/>
        <pt x="669" y="179" on="0"/>
        <pt x="703" y="182" on="1"/>
        <pt x="737" y="185" on="0"/>
        <pt x="753" y="219" on="1"/>
        <pt x="765" y="246" on="0"/>
      </contour>
    </TTGlyph>
    <TTGlyph name="Aring" xMin="-263" yMin="339" xMax="39" yMax="663">
      <contour>
        <pt x="39" y="547" on="1"/>
        <pt x="39" y="506" on="0"/>
        <pt x="-16" y="459" on="0"/>
        <pt x="-52" y="462" on="1"/>
        <pt x="-96" y="466" on="0"/>
        <pt x="-121" y="497" on="1"/>
        <pt x="-143" y="524" on="0"/>
        <pt x="-143" y="562" on="1"/>
        <pt x="-143" y="603" on="0"/>
        <pt x="-118" y="624" on="1"/>
        <pt x="-135" y="624" on="0"/>
        <pt x="-162" y="608" on="1"/>
        <pt x="-201" y="585" on="0"/>
        <pt x="-214" y="542" on="1"/>
        <pt x="-218" y="530" on="0"/>
        <pt x="-218" y="512" on="1"/>
        <pt x="-218" y="465" on="0"/>
        <pt x="-193" y="427" on="1"/>
        <pt x="-162" y="379" on="0"/>
        <pt x="-98" y="369" on="1"/>
        <pt x="-99" y="358" on="0"/>
        <pt x="-114" y="339" on="1"/>
        <pt x="-185" y="358" on="0"/>
        <pt x="-263" y="452" on="0"/>
        <pt x="-263" y="509" on="1"/>
        <pt x="-263" y="540" on="0"/>
        <pt x="-251" y="570" on="1"/>
        <pt x="-228" y="627" on="0"/>
        <pt x="-169" y="649" on="1"/>
        <pt x="-133" y="663" on="0"/>
        <pt x="-92" y="663" on="1"/>
        <pt x="-80" y="663" on="0"/>
        <pt x="-69" y="662" on="1"/>
        <pt x="-21" y="658" on="0"/>
        <pt x="39" y="593" on="0"/>
      </contour>
      <contour>
        <pt x="-72" y="618" on="1"/>
        <pt x="-117" y="613" on="0"/>
        <pt x="-110" y="547" on="1"/>
        <pt x="-107" y="523" on="0"/>
        <pt x="-69" y="494" on="0"/>
        <pt x="-54" y="498" on="1"/>
        <pt x="-18" y="508" on="0"/>
        <pt x="-18" y="550" on="1"/>
        <pt x="-18" y="578" on="0"/>
        <pt x="-45" y="621" on="0"/>
      </contour>
    </TTGlyph>
    <TTGlyph name="B" xMin="22" yMin="-94" xMax="883" yMax="419">
      <contour>
        <pt x="883" y="190" on="1"/>
        <pt x="883" y="49" on="0"/>
        <pt x="828" y="-28" on="1"/>
        <pt x="780" y="-94" on="0"/>
        <pt x="709" y="-94" on="1"/>
        <pt x="22" y="-94" on="1"/>
        <pt x="22" y="-59" on="1"/>
        <pt x="648" y="-59" on="1"/>
        <pt x="720" y="-59" on="0"/>
        <pt x="762" y="3" on="1"/>
        <pt x="806" y="69" on="0"/>
        <pt x="806" y="192" on="1"/>
        <pt x="806" y="380" on="0"/>
        <pt x="704" y="380" on="1"/>
        <pt x="669" y="380" on="0"/>
        <pt x="651" y="341" on="1"/>
        <pt x="636" y="310" on="0"/>
        <pt x="636" y="266" on="1"/>
        <pt x="636" y="117" on="1"/>
        <pt x="636" y="68" on="0"/>
        <pt x="556" y="3" on="0"/>
        <pt x="489" y="3" on="1"/>
        <pt x="428" y="3" on="0"/>
        <pt x="392" y="27" on="1"/>
        <pt x="352" y="53" on="0"/>
        <pt x="352" y="104" on="1"/>
        <pt x="352" y="231" on="1"/>
        <pt x="352" y="310" on="0"/>
        <pt x="314" y="351" on="1"/>
        <pt x="283" y="384" on="0"/>
        <pt x="234" y="384" on="1"/>
        <pt x="156" y="384" on="0"/>
        <pt x="66" y="267" on="0"/>
        <pt x="61" y="174" on="1"/>
        <pt x="96" y="232" on="0"/>
        <pt x="162" y="232" on="1"/>
        <pt x="207" y="232" on="0"/>
        <pt x="278" y="172" on="0"/>
        <pt x="278" y="122" on="1"/>
        <pt x="278" y="54" on="0"/>
        <pt x="201" y="-11" on="0"/>
        <pt x="138" y="-5" on="1"/>
        <pt x="93" y="0" on="0"/>
        <pt x="32" y="91" on="0"/>
        <pt x="31" y="161" on="1"/>
        <pt x="29" y="274" on="0"/>
        <pt x="139" y="417" on="0"/>
        <pt x="233" y="419" on="1"/>
        <pt x="242" y="419" on="1"/>
        <pt x="429" y="419" on="0"/>
        <pt x="429" y="248" on="1"/>
        <pt x="430" y="247" on="0"/>
        <pt x="429" y="111" on="1"/>
        <pt x="429" y="90" on="0"/>
        <pt x="442" y="69" on="1"/>
        <pt x="460" y="40" on="0"/>
        <pt x="494" y="39" on="1"/>
        <pt x="557" y="36" on="0"/>
        <pt x="557" y="110" on="1"/>
        <pt x="557" y="247" on="1"/>
        <pt x="557" y="416" on="0"/>
        <pt x="718" y="416" on="1"/>
        <pt x="816" y="416" on="0"/>
        <pt x="855" y="346" on="1"/>
        <pt x="883" y="294" on="0"/>
      </contour>
      <contour>
        <pt x="206" y="119" on="1"/>
        <pt x="199" y="161" on="0"/>
        <pt x="154" y="201" on="0"/>
        <pt x="126" y="196" on="1"/>
        <pt x="77" y="188" on="0"/>
        <pt x="77" y="129" on="1"/>
        <pt x="77" y="91" on="0"/>
        <pt x="99" y="58" on="1"/>
        <pt x="124" y="20" on="0"/>
        <pt x="160" y="27" on="1"/>
        <pt x="208" y="36" on="0"/>
        <pt x="208" y="96" on="1"/>
        <pt x="208" y="107" on="0"/>
      </contour>
    </TTGlyph>
    <TTGlyph name="C" xMin="15" yMin="-6" xMax="1036" yMax="422">
      <contour>
        <pt x="1036" y="79" on="1"/>
        <pt x="1036" y="-6" on="0"/>
        <pt x="947" y="-6" on="1"/>
        <pt x="15" y="-6" on="1"/>
        <pt x="15" y="30" on="1"/>
        <pt x="368" y="30" on="1"/>
        <pt x="429" y="30" on="0"/>
        <pt x="511" y="137" on="0"/>
        <pt x="511" y="227" on="1"/>
        <pt x="511" y="272" on="0"/>
        <pt x="482" y="315" on="1"/>
        <pt x="442" y="373" on="0"/>
        <pt x="369" y="373" on="1"/>
        <pt x="314" y="373" on="0"/>
        <pt x="276" y="350" on="1"/>
        <pt x="229" y="321" on="0"/>
        <pt x="221" y="265" on="1"/>
        <pt x="222" y="240" on="1"/>
        <pt x="238" y="271" on="0"/>
        <pt x="265" y="290" on="1"/>
        <pt x="289" y="307" on="0"/>
        <pt x="312" y="307" on="1"/>
        <pt x="359" y="307" on="0"/>
        <pt x="417" y="243" on="0"/>
        <pt x="415" y="198" on="1"/>
        <pt x="414" y="162" on="0"/>
        <pt x="395" y="136" on="1"/>
        <pt x="366" y="97" on="0"/>
        <pt x="304" y="97" on="1"/>
        <pt x="256" y="97" on="0"/>
        <pt x="184" y="176" on="0"/>
        <pt x="184" y="237" on="1"/>
        <pt x="184" y="422" on="0"/>
        <pt x="392" y="422" on="1"/>
        <pt x="476" y="422" on="0"/>
        <pt x="534" y="362" on="1"/>
        <pt x="588" y="305" on="0"/>
        <pt x="588" y="230" on="1"/>
        <pt x="588" y="156" on="0"/>
        <pt x="528" y="44" on="0"/>
        <pt x="487" y="30" on="1"/>
        <pt x="748" y="30" on="1"/>
        <pt x="748" y="257" on="1"/>
        <pt x="748" y="316" on="0"/>
        <pt x="783" y="363" on="1"/>
        <pt x="824" y="419" on="0"/>
        <pt x="894" y="419" on="1"/>
        <pt x="964" y="419" on="0"/>
        <pt x="1001" y="371" on="1"/>
        <pt x="1035" y="327" on="0"/>
        <pt x="1035" y="255" on="1"/>
        <pt x="1036" y="254" on="0"/>
      </contour>
      <contour>
        <pt x="998" y="83" on="1"/>
        <pt x="998" y="245" on="1"/>
        <pt x="998" y="353" on="0"/>
        <pt x="900" y="353" on="1"/>
        <pt x="864" y="353" on="0"/>
        <pt x="840" y="320" on="1"/>
        <pt x="818" y="291" on="0"/>
        <pt x="818" y="262" on="1"/>
        <pt x="818" y="29" on="1"/>
        <pt x="939" y="29" on="1"/>
        <pt x="998" y="29" on="0"/>
      </contour>
      <contour>
        <pt x="363" y="200" on="1"/>
        <pt x="363" y="233" on="0"/>
        <pt x="330" y="273" on="0"/>
        <pt x="303" y="273" on="1"/>
        <pt x="278" y="273" on="0"/>
        <pt x="260" y="256" on="1"/>
        <pt x="240" y="236" on="0"/>
        <pt x="240" y="205" on="1"/>
        <pt x="240" y="170" on="0"/>
        <pt x="277" y="130" on="0"/>
        <pt x="304" y="130" on="1"/>
        <pt x="327" y="130" on="0"/>
        <pt x="363" y="166" on="0"/>
      </contour>
    </TTGlyph>
    <TTGlyph name="Cacute" xMin="34" yMin="-155" xMax="633" yMax="672">
      <contour>
        <pt x="633" y="0" on="1"/>
        <pt x="588" y="0" on="1"/>
        <pt x="588" y="426" on="1"/>
        <pt x="588" y="611" on="0"/>
        <pt x="426" y="611" on="1"/>
        <pt x="367" y="611" on="0"/>
        <pt x="341" y="571" on="1"/>
        <pt x="321" y="539" on="0"/>
        <pt x="325" y="489" on="1"/>
        <pt x="329" y="442" on="0"/>
        <pt x="386" y="381" on="1"/>
        <pt x="456" y="339" on="0"/>
        <pt x="456" y="258" on="1"/>
        <pt x="456" y="98" on="0"/>
        <pt x="280" y="98" on="1"/>
        <pt x="139" y="98" on="1"/>
        <pt x="103" y="98" on="0"/>
        <pt x="103" y="64" on="1"/>
        <pt x="103" y="31" on="0"/>
        <pt x="141" y="31" on="1"/>
        <pt x="492" y="31" on="1"/>
        <pt x="492" y="0" on="1"/>
        <pt x="320" y="0" on="1"/>
        <pt x="320" y="-155" on="1"/>
        <pt x="285" y="-155" on="1"/>
        <pt x="285" y="0" on="1"/>
        <pt x="130" y="0" on="1"/>
        <pt x="34" y="0" on="0"/>
        <pt x="34" y="67" on="1"/>
        <pt x="34" y="97" on="0"/>
        <pt x="59" y="115" on="1"/>
        <pt x="81" y="131" on="0"/>
        <pt x="117" y="131" on="1"/>
        <pt x="272" y="131" on="1"/>
        <pt x="375" y="131" on="0"/>
        <pt x="375" y="258" on="1"/>
        <pt x="375" y="320" on="0"/>
        <pt x="335" y="355" on="1"/>
        <pt x="307" y="379" on="0"/>
        <pt x="237" y="387" on="0"/>
        <pt x="196" y="384" on="1"/>
        <pt x="219" y="384" on="0"/>
        <pt x="256" y="325" on="0"/>
        <pt x="256" y="288" on="1"/>
        <pt x="256" y="244" on="0"/>
        <pt x="189" y="191" on="0"/>
        <pt x="144" y="191" on="1"/>
        <pt x="101" y="191" on="0"/>
        <pt x="48" y="245" on="0"/>
        <pt x="48" y="289" on="1"/>
        <pt x="48" y="333" on="0"/>
        <pt x="79" y="366" on="1"/>
        <pt x="108" y="396" on="0"/>
        <pt x="194" y="414" on="0"/>
        <pt x="240" y="414" on="1"/>
        <pt x="295" y="414" on="0"/>
        <pt x="340" y="401" on="1"/>
        <pt x="295" y="448" on="0"/>
        <pt x="287" y="491" on="1"/>
        <pt x="283" y="511" on="0"/>
        <pt x="283" y="530" on="1"/>
        <pt x="283" y="589" on="0"/>
        <pt x="352" y="666" on="0"/>
        <pt x="421" y="671" on="1"/>
        <pt x="429" y="672" on="0"/>
        <pt x="436" y="672" on="1"/>
        <pt x="516" y="672" on="0"/>
        <pt x="572" y="605" on="1"/>
        <pt x="633" y="531" on="0"/>
        <pt x="633" y="415" on="1"/>
      </contour>
      <contour>
        <pt x="185" y="286" on="1"/>
        <pt x="185" y="315" on="0"/>
        <pt x="174" y="337" on="1"/>
        <pt x="159" y="364" on="0"/>
        <pt x="131" y="364" on="1"/>
        <pt x="108" y="364" on="0"/>
        <pt x="76" y="316" on="0"/>
        <pt x="76" y="287" on="1"/>
        <pt x="76" y="259" on="0"/>
        <pt x="107" y="218" on="0"/>
        <pt x="128" y="218" on="1"/>
        <pt x="154" y="218" on="0"/>
        <pt x="185" y="257" on="0"/>
      </contour>
    </TTGlyph>
    <TTGlyph name="Ccaron" xMin="36" yMin="-223" xMax="1049" yMax="669">
      <contour>
        <pt x="1049" y="0" on="1"/>
        <pt x="1004" y="0" on="1"/>
        <pt x="1004" y="426" on="1"/>
        <pt x="1004" y="614" on="0"/>
        <pt x="849" y="609" on="1"/>
        <pt x="790" y="607" on="0"/>
        <pt x="761" y="569" on="1"/>
        <pt x="736" y="537" on="0"/>
        <pt x="741" y="489" on="1"/>
        <pt x="744" y="463" on="0"/>
        <pt x="774" y="415" on="1"/>
        <pt x="779" y="415" on="1"/>
        <pt x="819" y="415" on="0"/>
        <pt x="851" y="386" on="1"/>
        <pt x="888" y="352" on="0"/>
        <pt x="888" y="296" on="1"/>
        <pt x="888" y="272" on="0"/>
        <pt x="880" y="245" on="1"/>
        <pt x="820" y="32" on="1"/>
        <pt x="907" y="32" on="1"/>
        <pt x="907" y="0" on="1"/>
        <pt x="808" y="0" on="1"/>
        <pt x="750" y="-223" on="1"/>
        <pt x="683" y="-205" on="1"/>
        <pt x="740" y="0" on="1"/>
        <pt x="349" y="1" on="1"/>
        <pt x="349" y="32" on="1"/>
        <pt x="390" y="47" on="0"/>
        <pt x="411" y="98" on="1"/>
        <pt x="430" y="143" on="0"/>
        <pt x="430" y="202" on="1"/>
        <pt x="430" y="283" on="0"/>
        <pt x="369" y="335" on="1"/>
        <pt x="318" y="378" on="0"/>
        <pt x="260" y="378" on="1"/>
        <pt x="178" y="378" on="0"/>
        <pt x="66" y="261" on="0"/>
        <pt x="66" y="181" on="1"/>
        <pt x="98" y="243" on="0"/>
        <pt x="166" y="243" on="1"/>
        <pt x="210" y="243" on="0"/>
        <pt x="277" y="185" on="0"/>
        <pt x="286" y="130" on="1"/>
        <pt x="288" y="118" on="0"/>
        <pt x="288" y="107" on="1"/>
        <pt x="288" y="55" on="0"/>
        <pt x="212" y="-6" on="0"/>
        <pt x="156" y="0" on="1"/>
        <pt x="119" y="4" on="0"/>
        <pt x="86" y="38" on="1"/>
        <pt x="36" y="90" on="0"/>
        <pt x="36" y="188" on="1"/>
        <pt x="36" y="282" on="0"/>
        <pt x="167" y="411" on="0"/>
        <pt x="263" y="411" on="1"/>
        <pt x="365" y="411" on="0"/>
        <pt x="432" y="355" on="1"/>
        <pt x="505" y="294" on="0"/>
        <pt x="505" y="190" on="1"/>
        <pt x="505" y="141" on="0"/>
        <pt x="466" y="52" on="0"/>
        <pt x="442" y="36" on="1"/>
        <pt x="704" y="36" on="1"/>
        <pt x="677" y="62" on="0"/>
        <pt x="656" y="116" on="1"/>
        <pt x="632" y="176" on="0"/>
        <pt x="632" y="235" on="1"/>
        <pt x="632" y="297" on="0"/>
        <pt x="693" y="395" on="0"/>
        <pt x="742" y="410" on="1"/>
        <pt x="707" y="469" on="0"/>
        <pt x="703" y="491" on="1"/>
        <pt x="700" y="507" on="0"/>
        <pt x="700" y="522" on="1"/>
        <pt x="700" y="582" on="0"/>
        <pt x="781" y="664" on="0"/>
        <pt x="853" y="669" on="1"/>
        <pt x="865" y="669" on="1"/>
        <pt x="944" y="669" on="0"/>
        <pt x="996" y="597" on="1"/>
        <pt x="1049" y="524" on="0"/>
        <pt x="1049" y="415" on="1"/>
      </contour>
      <contour>
        <pt x="807" y="245" on="1"/>
        <pt x="812" y="264" on="0"/>
        <pt x="812" y="284" on="1"/>
        <pt x="812" y="356" on="0"/>
        <pt x="765" y="360" on="1"/>
        <pt x="719" y="364" on="0"/>
        <pt x="695" y="324" on="1"/>
        <pt x="675" y="289" on="0"/>
        <pt x="675" y="232" on="1"/>
        <pt x="675" y="186" on="0"/>
        <pt x="703" y="118" on="1"/>
        <pt x="723" y="68" on="0"/>
        <pt x="744" y="37" on="1"/>
        <pt x="745" y="36" on="0"/>
        <pt x="752" y="38" on="1"/>
      </contour>
      <contour>
        <pt x="146" y="201" on="1"/>
        <pt x="119" y="201" on="0"/>
        <pt x="87" y="167" on="0"/>
        <pt x="87" y="140" on="1"/>
        <pt x="87" y="117" on="0"/>
        <pt x="97" y="89" on="1"/>
        <pt x="116" y="37" on="0"/>
        <pt x="169" y="34" on="1"/>
        <pt x="216" y="31" on="0"/>
        <pt x="216" y="100" on="1"/>
        <pt x="216" y="137" on="0"/>
        <pt x="199" y="166" on="1"/>
        <pt x="180" y="201" on="0"/>
      </contour>
    </TTGlyph>
    <TTGlyph name="Ccedilla" xMin="-32" yMin="218" xMax="435" yMax="411">
      <contour>
        <pt x="435" y="301" on="1"/>
        <pt x="435" y="218" on="0"/>
        <pt x="315" y="218" on="1"/>
        <pt x="272" y="218" on="0"/>
        <pt x="249" y="243" on="1"/>
        <pt x="230" y="263" on="0"/>
        <pt x="230" y="294" on="1"/>
        <pt x="230" y="380" on="1"/>
        <pt x="-32" y="380" on="1"/>
        <pt x="-30" y="411" on="1"/>
        <pt x="435" y="411" on="1"/>
      </contour>
      <contour>
        <pt x="361" y="292" on="1"/>
        <pt x="361" y="380" on="1"/>
        <pt x="265" y="380" on="1"/>
        <pt x="265" y="294" on="1"/>
        <pt x="265" y="251" on="0"/>
        <pt x="314" y="251" on="1"/>
        <pt x="332" y="251" on="0"/>
        <pt x="361" y="276" on="0"/>
      </contour>
    </TTGlyph>
    <TTGlyph name="Ccircumflex" xMin="44" yMin="-13" xMax="915" yMax="670">
      <contour>
        <pt x="915" y="415" on="1"/>
        <pt x="914" y="0" on="1"/>
        <pt x="869" y="0" on="1"/>
        <pt x="869" y="426" on="1"/>
        <pt x="869" y="614" on="0"/>
        <pt x="715" y="609" on="1"/>
        <pt x="600" y="605" on="0"/>
        <pt x="610" y="495" on="1"/>
        <pt x="612" y="469" on="0"/>
        <pt x="653" y="432" on="1"/>
        <pt x="709" y="380" on="0"/>
        <pt x="728" y="353" on="1"/>
        <pt x="769" y="294" on="0"/>
        <pt x="773" y="216" on="1"/>
        <pt x="778" y="131" on="0"/>
        <pt x="727" y="66" on="1"/>
        <pt x="666" y="-13" on="0"/>
        <pt x="550" y="-13" on="1"/>
        <pt x="370" y="-13" on="0"/>
        <pt x="331" y="60" on="1"/>
        <pt x="287" y="-12" on="0"/>
        <pt x="200" y="-12" on="1"/>
        <pt x="140" y="-12" on="0"/>
        <pt x="96" y="27" on="1"/>
        <pt x="44" y="74" on="0"/>
        <pt x="44" y="159" on="1"/>
        <pt x="44" y="411" on="1"/>
        <pt x="111" y="411" on="1"/>
        <pt x="111" y="168" on="1"/>
        <pt x="111" y="34" on="0"/>
        <pt x="220" y="34" on="1"/>
        <pt x="254" y="34" on="0"/>
        <pt x="307" y="75" on="0"/>
        <pt x="307" y="109" on="1"/>
        <pt x="307" y="411" on="1"/>
        <pt x="384" y="411" on="1"/>
        <pt x="384" y="156" on="1"/>
        <pt x="384" y="103" on="0"/>
        <pt x="421" y="69" on="1"/>
        <pt x="464" y="29" on="0"/>
        <pt x="545" y="29" on="1"/>
        <pt x="566" y="29" on="0"/>
        <pt x="589" y="32" on="1"/>
        <pt x="648" y="39" on="0"/>
        <pt x="731" y="141" on="0"/>
        <pt x="731" y="206" on="1"/>
        <pt x="731" y="232" on="0"/>
        <pt x="724" y="257" on="1"/>
        <pt x="706" y="319" on="0"/>
        <pt x="669" y="362" on="1"/>
        <pt x="638" y="392" on="0"/>
        <pt x="576" y="453" on="0"/>
        <pt x="569" y="491" on="1"/>
        <pt x="566" y="507" on="0"/>
        <pt x="566" y="522" on="1"/>
        <pt x="566" y="582" on="0"/>
        <pt x="646" y="664" on="0"/>
        <pt x="718" y="669" on="1"/>
        <pt x="726" y="670" on="0"/>
        <pt x="735" y="670" on="1"/>
        <pt x="814" y="670" on="0"/>
        <pt x="862" y="608" on="1"/>
        <pt x="915" y="539" on="0"/>
      </contour>
    </TTGlyph>
    <TTGlyph name="Cdotaccent" xMin="13" yMin="-109" xMax="741" yMax="663">
      <contour>
        <pt x="741" y="85" on="1"/>
        <pt x="741" y="-109" on="0"/>
        <pt x="499" y="-109" on="1"/>
        <pt x="13" y="-109" on="1"/>
        <pt x="13" y="-77" on="1"/>
        <pt x="479" y="-77" on="1"/>
        <pt x="587" y="-77" on="0"/>
        <pt x="628" y="-20" on="1"/>
        <pt x="652" y="13" on="0"/>
        <pt x="652" y="97" on="1"/>
        <pt x="652" y="149" on="0"/>
        <pt x="625" y="186" on="1"/>
        <pt x="596" y="227" on="0"/>
        <pt x="547" y="227" on="1"/>
        <pt x="494" y="227" on="0"/>
        <pt x="474" y="199" on="1"/>
        <pt x="474" y="0" on="1"/>
        <pt x="399" y="0" on="1"/>
        <pt x="399" y="380" on="1"/>
        <pt x="284" y="380" on="1"/>
        <pt x="284" y="0" on="1"/>
        <pt x="249" y="0" on="1"/>
        <pt x="249" y="411" on="1"/>
        <pt x="728" y="411" on="1"/>
        <pt x="728" y="380" on="1"/>
        <pt x="474" y="380" on="1"/>
        <pt x="474" y="236" on="1"/>
        <pt x="510" y="260" on="0"/>
        <pt x="571" y="260" on="1"/>
        <pt x="592" y="260" on="0"/>
        <pt x="609" y="256" on="1"/>
        <pt x="659" y="245" on="0"/>
        <pt x="693" y="211" on="1"/>
        <pt x="741" y="163" on="0"/>
      </contour>
      <contour>
        <pt x="665" y="547" on="1"/>
        <pt x="665" y="506" on="0"/>
        <pt x="610" y="459" on="0"/>
        <pt x="574" y="462" on="1"/>
        <pt x="530" y="466" on="0"/>
        <pt x="505" y="497" on="1"/>
        <pt x="483" y="524" on="0"/>
        <pt x="483" y="562" on="1"/>
        <pt x="483" y="603" on="0"/>
        <pt x="508" y="624" on="1"/>
        <pt x="488" y="624" on="0"/>
        <pt x="459" y="610" on="1"/>
        <pt x="415" y="588" on="0"/>
        <pt x="402" y="546" on="1"/>
        <pt x="396" y="528" on="0"/>
        <pt x="396" y="512" on="1"/>
        <pt x="396" y="451" on="0"/>
        <pt x="479" y="387" on="1"/>
        <pt x="434" y="389" on="1"/>
        <pt x="407" y="406" on="0"/>
        <pt x="413" y="408" on="1"/>
        <pt x="363" y="458" on="0"/>
        <pt x="363" y="516" on="1"/>
        <pt x="363" y="543" on="0"/>
        <pt x="375" y="570" on="1"/>
        <pt x="398" y="622" on="0"/>
        <pt x="457" y="647" on="1"/>
        <pt x="495" y="663" on="0"/>
        <pt x="536" y="663" on="1"/>
        <pt x="547" y="663" on="0"/>
        <pt x="557" y="662" on="1"/>
        <pt x="665" y="652" on="0"/>
      </contour>
      <contour>
        <pt x="554" y="618" on="1"/>
        <pt x="509" y="613" on="0"/>
        <pt x="516" y="547" on="1"/>
        <pt x="519" y="523" on="0"/>
        <pt x="557" y="494" on="0"/>
        <pt x="572" y="498" on="1"/>
        <pt x="608" y="508" on="0"/>
        <pt x="608" y="550" on="1"/>
        <pt x="608" y="578" on="0"/>
        <pt x="581" y="621" on="0"/>
      </contour>
    </TTGlyph>
    <TTGlyph name="Dcroat" xMin="54" yMin="-356" xMax="1134" yMax="643">
      <contour>
        <pt x="1133" y="539" on="1"/>
        <pt x="1134" y="533" on="0"/>
        <pt x="1134" y="527" on="1"/>
        <pt x="1134" y="502" on="0"/>
        <pt x="1117" y="484" on="1"/>
        <pt x="1096" y="460" on="0"/>
        <pt x="1064" y="461" on="1"/>
        <pt x="1030" y="462" on="0"/>
        <pt x="970" y="521" on="0"/>
        <pt x="970" y="559" on="1"/>
        <pt x="970" y="577" on="0"/>
        <pt x="979" y="595" on="1"/>
        <pt x="950" y="592" on="0"/>
        <pt x="914" y="547" on="0"/>
        <pt x="914" y="517" on="1"/>
        <pt x="914" y="500" on="0"/>
        <pt x="920" y="484" on="1"/>
        <pt x="930" y="457" on="0"/>
        <pt x="956" y="435" on="1"/>
        <pt x="979" y="415" on="0"/>
        <pt x="1001" y="411" on="1"/>
        <pt x="1122" y="411" on="1"/>
        <pt x="1122" y="376" on="1"/>
        <pt x="1008" y="376" on="1"/>
        <pt x="1008" y="40" on="1"/>
        <pt x="1008" y="-154" on="0"/>
        <pt x="839" y="-261" on="1"/>
        <pt x="688" y="-356" on="0"/>
        <pt x="454" y="-356" on="1"/>
        <pt x="420" y="-356" on="0"/>
        <pt x="386" y="-354" on="1"/>
        <pt x="251" y="-345" on="0"/>
        <pt x="164" y="-310" on="1"/>
        <pt x="54" y="-266" on="0"/>
        <pt x="54" y="-191" on="1"/>
        <pt x="54" y="-174" on="0"/>
        <pt x="59" y="-157" on="1"/>
        <pt x="72" y="-110" on="0"/>
        <pt x="159" y="-86" on="1"/>
        <pt x="218" y="-70" on="0"/>
        <pt x="283" y="-69" on="1"/>
        <pt x="487" y="-66" on="0"/>
        <pt x="663" y="-144" on="1"/>
        <pt x="644" y="-190" on="1"/>
        <pt x="537" y="-134" on="0"/>
        <pt x="427" y="-118" on="1"/>
        <pt x="381" y="-111" on="0"/>
        <pt x="298" y="-111" on="1"/>
        <pt x="240" y="-111" on="0"/>
        <pt x="148" y="-139" on="0"/>
        <pt x="139" y="-161" on="1"/>
        <pt x="132" y="-177" on="0"/>
        <pt x="132" y="-192" on="1"/>
        <pt x="132" y="-289" on="0"/>
        <pt x="390" y="-315" on="1"/>
        <pt x="421" y="-318" on="0"/>
        <pt x="453" y="-318" on="1"/>
        <pt x="647" y="-318" on="0"/>
        <pt x="934" y="-110" on="0"/>
        <pt x="934" y="31" on="1"/>
        <pt x="934" y="376" on="1"/>
        <pt x="826" y="376" on="1"/>
        <pt x="756" y="376" on="0"/>
        <pt x="720" y="344" on="1"/>
        <pt x="751" y="319" on="0"/>
        <pt x="777" y="275" on="1"/>
        <pt x="813" y="216" on="0"/>
        <pt x="813" y="160" on="1"/>
        <pt x="813" y="83" on="0"/>
        <pt x="774" y="38" on="1"/>
        <pt x="739" y="-2" on="0"/>
        <pt x="685" y="-2" on="1"/>
        <pt x="673" y="-2" on="0"/>
        <pt x="662" y="0" on="1"/>
        <pt x="564" y="17" on="0"/>
        <pt x="564" y="154" on="1"/>
        <pt x="564" y="210" on="0"/>
        <pt x="600" y="273" on="1"/>
        <pt x="627" y="320" on="0"/>
        <pt x="651" y="340" on="1"/>
        <pt x="618" y="379" on="0"/>
        <pt x="564" y="379" on="1"/>
        <pt x="493" y="379" on="0"/>
        <pt x="493" y="300" on="1"/>
        <pt x="493" y="0" on="1"/>
        <pt x="76" y="0" on="1"/>
        <pt x="76" y="411" on="1"/>
        <pt x="150" y="411" on="1"/>
        <pt x="150" y="31" on="1"/>
        <pt x="418" y="31" on="1"/>
        <pt x="418" y="289" on="1"/>
        <pt x="418" y="350" on="0"/>
        <pt x="460" y="381" on="1"/>
        <pt x="497" y="410" on="0"/>
        <pt x="561" y="411" on="1"/>
        <pt x="637" y="412" on="0"/>
        <pt x="691" y="367" on="1"/>
        <pt x="743" y="411" on="0"/>
        <pt x="837" y="411" on="1"/>
        <pt x="893" y="412" on="0"/>
        <pt x="934" y="411" on="1"/>
        <pt x="874" y="469" on="0"/>
        <pt x="874" y="532" on="1"/>
        <pt x="874" y="544" on="0"/>
        <pt x="876" y="556" on="1"/>
        <pt x="887" y="613" on="0"/>
        <pt x="942" y="633" on="1"/>
        <pt x="968" y="643" on="0"/>
        <pt x="999" y="643" on="1"/>
        <pt x="1006" y="643" on="0"/>
        <pt x="1014" y="642" on="1"/>
        <pt x="1059" y="638" on="0"/>
        <pt x="1090" y="613" on="1"/>
        <pt x="1125" y="585" on="0"/>
      </contour>
      <contour>
        <pt x="1079" y="534" on="1"/>
        <pt x="1078" y="554" on="0"/>
        <pt x="1046" y="590" on="0"/>
        <pt x="1029" y="589" on="1"/>
        <pt x="997" y="588" on="0"/>
        <pt x="997" y="553" on="1"/>
        <pt x="997" y="531" on="0"/>
        <pt x="1028" y="494" on="0"/>
        <pt x="1049" y="494" on="1"/>
        <pt x="1082" y="494" on="0"/>
      </contour>
      <contour>
        <pt x="733" y="228" on="1"/>
        <pt x="710" y="288" on="0"/>
        <pt x="676" y="319" on="1"/>
        <pt x="653" y="300" on="0"/>
        <pt x="631" y="255" on="1"/>
        <pt x="605" y="200" on="0"/>
        <pt x="605" y="147" on="1"/>
        <pt x="606" y="51" on="0"/>
        <pt x="668" y="44" on="1"/>
        <pt x="702" y="40" on="0"/>
        <pt x="724" y="76" on="1"/>
        <pt x="746" y="109" on="0"/>
        <pt x="746" y="159" on="1"/>
        <pt x="746" y="195" on="0"/>
      </contour>
    </TTGlyph>
    <TTGlyph name="E" xMin="37" yMin="-9" xMax="1239" yMax="416">
      <contour>
        <pt x="1239" y="380" on="1"/>
        <pt x="1126" y="380" on="1"/>
        <pt x="1126" y="0" on="1"/>
        <pt x="1051" y="0" on="1"/>
        <pt x="1051" y="380" on="1"/>
        <pt x="991" y="380" on="1"/>
        <pt x="899" y="380" on="0"/>
        <pt x="865" y="341" on="1"/>
        <pt x="891" y="317" on="0"/>
        <pt x="914" y="272" on="1"/>
        <pt x="942" y="216" on="0"/>
        <pt x="943" y="164" on="1"/>
        <pt x="944" y="89" on="0"/>
        <pt x="922" y="48" on="1"/>
        <pt x="893" y="-4" on="0"/>
        <pt x="825" y="-2" on="1"/>
        <pt x="776" y="-1" on="0"/>
        <pt x="721" y="81" on="0"/>
        <pt x="725" y="155" on="1"/>
        <pt x="728" y="206" on="0"/>
        <pt x="759" y="267" on="1"/>
        <pt x="787" y="322" on="0"/>
        <pt x="813" y="340" on="1"/>
        <pt x="783" y="377" on="0"/>
        <pt x="741" y="377" on="1"/>
        <pt x="690" y="377" on="0"/>
        <pt x="667" y="330" on="1"/>
        <pt x="654" y="302" on="0"/>
        <pt x="654" y="241" on="1"/>
        <pt x="655" y="0" on="1"/>
        <pt x="325" y="0" on="1"/>
        <pt x="325" y="28" on="1"/>
        <pt x="365" y="58" on="0"/>
        <pt x="378" y="105" on="1"/>
        <pt x="388" y="138" on="0"/>
        <pt x="388" y="202" on="1"/>
        <pt x="388" y="285" on="0"/>
        <pt x="342" y="334" on="1"/>
        <pt x="301" y="377" on="0"/>
        <pt x="247" y="378" on="1"/>
        <pt x="166" y="379" on="0"/>
        <pt x="72" y="269" on="0"/>
        <pt x="68" y="177" on="1"/>
        <pt x="95" y="225" on="0"/>
        <pt x="158" y="232" on="1"/>
        <pt x="199" y="236" on="0"/>
        <pt x="235" y="209" on="1"/>
        <pt x="277" y="176" on="0"/>
        <pt x="278" y="118" on="1"/>
        <pt x="279" y="59" on="0"/>
        <pt x="213" y="-9" on="0"/>
        <pt x="162" y="-9" on="1"/>
        <pt x="147" y="-9" on="0"/>
        <pt x="132" y="-6" on="1"/>
        <pt x="102" y="0" on="0"/>
        <pt x="80" y="23" on="1"/>
        <pt x="39" y="67" on="0"/>
        <pt x="37" y="164" on="1"/>
        <pt x="37" y="174" on="1"/>
        <pt x="37" y="294" on="0"/>
        <pt x="108" y="358" on="1"/>
        <pt x="166" y="411" on="0"/>
        <pt x="247" y="411" on="1"/>
        <pt x="345" y="411" on="0"/>
        <pt x="466" y="285" on="0"/>
        <pt x="466" y="178" on="1"/>
        <pt x="466" y="130" on="0"/>
        <pt x="445" y="86" on="1"/>
        <pt x="426" y="48" on="0"/>
        <pt x="401" y="31" on="1"/>
        <pt x="580" y="31" on="1"/>
        <pt x="580" y="248" on="1"/>
        <pt x="580" y="329" on="0"/>
        <pt x="607" y="366" on="1"/>
        <pt x="644" y="416" on="0"/>
        <pt x="721" y="416" on="1"/>
        <pt x="795" y="416" on="0"/>
        <pt x="841" y="365" on="1"/>
        <pt x="894" y="411" on="0"/>
        <pt x="992" y="411" on="1"/>
        <pt x="1239" y="411" on="1"/>
      </contour>
      <contour>
        <pt x="870" y="159" on="1"/>
        <pt x="870" y="250" on="0"/>
        <pt x="827" y="311" on="1"/>
        <pt x="800" y="285" on="0"/>
        <pt x="781" y="235" on="1"/>
        <pt x="766" y="194" on="0"/>
        <pt x="762" y="161" on="1"/>
        <pt x="761" y="149" on="0"/>
        <pt x="761" y="136" on="1"/>
        <pt x="761" y="42" on="0"/>
        <pt x="816" y="44" on="1"/>
        <pt x="870" y="46" on="0"/>
      </contour>
      <contour>
        <pt x="209" y="117" on="1"/>
        <pt x="206" y="154" on="0"/>
        <pt x="165" y="204" on="0"/>
        <pt x="139" y="202" on="1"/>
        <pt x="113" y="200" on="0"/>
        <pt x="81" y="144" on="0"/>
        <pt x="84" y="106" on="1"/>
        <pt x="87" y="68" on="0"/>
        <pt x="129" y="19" on="0"/>
        <pt x="155" y="21" on="1"/>
        <pt x="180" y="23" on="0"/>
        <pt x="212" y="79" on="0"/>
      </contour>
    </TTGlyph>
    <TTGlyph name="Eacute" xMin="2" yMin="-502" xMax="472" yMax="243">
      <contour>
        <pt x="408" y="236" on="1"/>
        <pt x="408" y="182" on="1"/>
        <pt x="296" y="182" on="1"/>
        <pt x="296" y="236" on="1"/>
      </contour>
      <contour>
        <pt x="155" y="-457" on="1"/>
        <pt x="180" y="-465" on="0"/>
        <pt x="212" y="-466" on="1"/>
        <pt x="296" y="-467" on="0"/>
        <pt x="409" y="-385" on="0"/>
        <pt x="409" y="-326" on="1"/>
        <pt x="408" y="237" on="1"/>
        <pt x="472" y="243" on="1"/>
        <pt x="472" y="-329" on="1"/>
        <pt x="472" y="-400" on="0"/>
        <pt x="415" y="-453" on="1"/>
        <pt x="341" y="-502" on="0"/>
        <pt x="224" y="-502" on="1"/>
        <pt x="140" y="-502" on="0"/>
        <pt x="81" y="-474" on="1"/>
        <pt x="15" y="-444" on="0"/>
        <pt x="4" y="-387" on="1"/>
        <pt x="2" y="-375" on="0"/>
        <pt x="2" y="-363" on="1"/>
        <pt x="2" y="-317" on="0"/>
        <pt x="39" y="-291" on="1"/>
        <pt x="70" y="-268" on="0"/>
        <pt x="110" y="-268" on="1"/>
        <pt x="229" y="-268" on="1"/>
        <pt x="258" y="-290" on="1"/>
        <pt x="259" y="-296" on="1"/>
        <pt x="269" y="-333" on="0"/>
        <pt x="269" y="-370" on="1"/>
        <pt x="269" y="-406" on="0"/>
        <pt x="217" y="-458" on="0"/>
        <pt x="155" y="-458" on="1"/>
      </contour>
      <contour>
        <pt x="167" y="-307" on="1"/>
        <pt x="159" y="-307" on="1"/>
        <pt x="147" y="-307" on="0"/>
        <pt x="137" y="-308" on="1"/>
        <pt x="121" y="-312" on="0"/>
        <pt x="110" y="-324" on="1"/>
        <pt x="91" y="-343" on="0"/>
        <pt x="91" y="-370" on="1"/>
        <pt x="91" y="-396" on="0"/>
        <pt x="128" y="-433" on="0"/>
        <pt x="155" y="-433" on="1"/>
        <pt x="181" y="-433" on="0"/>
        <pt x="218" y="-396" on="0"/>
        <pt x="218" y="-370" on="1"/>
        <pt x="218" y="-343" on="0"/>
        <pt x="200" y="-324" on="1"/>
        <pt x="185" y="-310" on="0"/>
      </contour>
    </TTGlyph>
    <TTGlyph name="Ecircumflex" xMin="41" yMin="-136" xMax="862" yMax="420">
      <contour>
        <pt x="862" y="269" on="1"/>
        <pt x="862" y="191" on="0"/>
        <pt x="790" y="137" on="1"/>
        <pt x="811" y="126" on="0"/>
        <pt x="830" y="99" on="1"/>
        <pt x="859" y="57" on="0"/>
        <pt x="858" y="4" on="1"/>
        <pt x="857" y="-47" on="0"/>
        <pt x="829" y="-85" on="1"/>
        <pt x="793" y="-132" on="0"/>
        <pt x="728" y="-132" on="1"/>
        <pt x="677" y="-132" on="0"/>
        <pt x="645" y="-100" on="1"/>
        <pt x="608" y="-62" on="0"/>
        <pt x="614" y="4" on="1"/>
        <pt x="639" y="4" on="1"/>
        <pt x="644" y="-46" on="0"/>
        <pt x="713" y="-46" on="1"/>
        <pt x="755" y="-46" on="0"/>
        <pt x="801" y="10" on="0"/>
        <pt x="801" y="50" on="1"/>
        <pt x="801" y="120" on="0"/>
        <pt x="726" y="121" on="1"/>
        <pt x="655" y="122" on="1"/>
        <pt x="655" y="190" on="1"/>
        <pt x="713" y="190" on="1"/>
        <pt x="757" y="190" on="0"/>
        <pt x="782" y="218" on="1"/>
        <pt x="805" y="244" on="0"/>
        <pt x="805" y="282" on="1"/>
        <pt x="805" y="347" on="0"/>
        <pt x="774" y="373" on="1"/>
        <pt x="769" y="369" on="1"/>
        <pt x="772" y="364" on="0"/>
        <pt x="774" y="335" on="1"/>
        <pt x="776" y="312" on="0"/>
        <pt x="740" y="271" on="0"/>
        <pt x="708" y="271" on="1"/>
        <pt x="671" y="271" on="0"/>
        <pt x="648" y="293" on="1"/>
        <pt x="628" y="311" on="0"/>
        <pt x="626" y="335" on="1"/>
        <pt x="623" y="371" on="0"/>
        <pt x="670" y="413" on="0"/>
        <pt x="709" y="413" on="1"/>
        <pt x="767" y="413" on="0"/>
        <pt x="812" y="375" on="1"/>
        <pt x="862" y="334" on="0"/>
      </contour>
      <contour>
        <pt x="592" y="274" on="1"/>
        <pt x="592" y="214" on="0"/>
        <pt x="553" y="172" on="1"/>
        <pt x="520" y="136" on="0"/>
        <pt x="466" y="119" on="1"/>
        <pt x="466" y="118" on="1"/>
        <pt x="517" y="106" on="0"/>
        <pt x="583" y="43" on="0"/>
        <pt x="583" y="-2" on="1"/>
        <pt x="583" y="-52" on="0"/>
        <pt x="552" y="-89" on="1"/>
        <pt x="511" y="-136" on="0"/>
        <pt x="432" y="-136" on="1"/>
        <pt x="385" y="-136" on="0"/>
        <pt x="347" y="-97" on="1"/>
        <pt x="317" y="-66" on="0"/>
        <pt x="309" y="-35" on="1"/>
        <pt x="307" y="-65" on="0"/>
        <pt x="280" y="-95" on="1"/>
        <pt x="248" y="-131" on="0"/>
        <pt x="206" y="-132" on="1"/>
        <pt x="108" y="-135" on="0"/>
        <pt x="69" y="-77" on="1"/>
        <pt x="43" y="-38" on="0"/>
        <pt x="48" y="15" on="1"/>
        <pt x="51" y="50" on="0"/>
        <pt x="114" y="108" on="0"/>
        <pt x="162" y="116" on="1"/>
        <pt x="162" y="118" on="1"/>
        <pt x="41" y="154" on="0"/>
        <pt x="41" y="272" on="1"/>
        <pt x="41" y="330" on="0"/>
        <pt x="118" y="417" on="0"/>
        <pt x="178" y="417" on="1"/>
        <pt x="224" y="417" on="0"/>
        <pt x="283" y="360" on="0"/>
        <pt x="283" y="318" on="1"/>
        <pt x="283" y="269" on="0"/>
        <pt x="251" y="240" on="1"/>
        <pt x="223" y="213" on="0"/>
        <pt x="180" y="213" on="1"/>
        <pt x="124" y="213" on="0"/>
        <pt x="100" y="264" on="1"/>
        <pt x="95" y="263" on="1"/>
        <pt x="101" y="137" on="0"/>
        <pt x="316" y="137" on="1"/>
        <pt x="439" y="137" on="0"/>
        <pt x="492" y="175" on="1"/>
        <pt x="535" y="207" on="0"/>
        <pt x="535" y="271" on="1"/>
        <pt x="535" y="278" on="1"/>
        <pt x="507" y="217" on="0"/>
        <pt x="449" y="217" on="1"/>
        <pt x="407" y="217" on="0"/>
        <pt x="347" y="272" on="0"/>
        <pt x="347" y="322" on="1"/>
        <pt x="347" y="363" on="0"/>
        <pt x="405" y="420" on="0"/>
        <pt x="451" y="420" on="1"/>
        <pt x="511" y="420" on="0"/>
        <pt x="553" y="375" on="1"/>
        <pt x="592" y="332" on="0"/>
      </contour>
      <contour>
        <pt x="745" y="348" on="1"/>
        <pt x="745" y="382" on="0"/>
        <pt x="700" y="382" on="1"/>
        <pt x="654" y="382" on="0"/>
        <pt x="654" y="348" on="1"/>
        <pt x="654" y="315" on="0"/>
        <pt x="700" y="315" on="1"/>
        <pt x="745" y="315" on="0"/>
      </contour>
      <contour>
        <pt x="517" y="319" on="1"/>
        <pt x="517" y="347" on="0"/>
        <pt x="480" y="387" on="0"/>
        <pt x="457" y="387" on="1"/>
        <pt x="435" y="387" on="0"/>
        <pt x="406" y="349" on="0"/>
        <pt x="406" y="322" on="1"/>
        <pt x="406" y="288" on="0"/>
        <pt x="438" y="251" on="0"/>
        <pt x="462" y="251" on="1"/>
        <pt x="485" y="251" on="0"/>
        <pt x="517" y="290" on="0"/>
      </contour>
      <contour>
        <pt x="223" y="318" on="1"/>
        <pt x="223" y="345" on="0"/>
        <pt x="194" y="383" on="0"/>
        <pt x="172" y="383" on="1"/>
        <pt x="149" y="383" on="0"/>
        <pt x="113" y="344" on="0"/>
        <pt x="113" y="316" on="1"/>
        <pt x="113" y="286" on="0"/>
        <pt x="146" y="248" on="0"/>
        <pt x="168" y="248" on="1"/>
        <pt x="223" y="248" on="0"/>
      </contour>
      <contour>
        <pt x="534" y="26" on="1"/>
        <pt x="531" y="60" on="0"/>
        <pt x="471" y="83" on="1"/>
        <pt x="408" y="108" on="0"/>
        <pt x="310" y="109" on="1"/>
        <pt x="110" y="111" on="0"/>
        <pt x="106" y="28" on="1"/>
        <pt x="104" y="-7" on="0"/>
        <pt x="157" y="-51" on="0"/>
        <pt x="209" y="-52" on="1"/>
        <pt x="243" y="-53" on="0"/>
        <pt x="294" y="-11" on="0"/>
        <pt x="299" y="15" on="1"/>
        <pt x="325" y="15" on="1"/>
        <pt x="336" y="-38" on="0"/>
        <pt x="402" y="-51" on="1"/>
        <pt x="422" y="-56" on="0"/>
        <pt x="440" y="-56" on="1"/>
        <pt x="485" y="-56" on="0"/>
        <pt x="538" y="-10" on="0"/>
      </contour>
    </TTGlyph>
    <TTGlyph name="Edieresis" xMin="24" yMin="-387" xMax="522" yMax="399">
      <contour>
        <pt x="461" y="399" on="1"/>
        <pt x="461" y="395" on="1"/>
        <pt x="522" y="398" on="1"/>
        <pt x="522" y="-167" on="1"/>
        <pt x="522" y="-265" on="0"/>
        <pt x="447" y="-330" on="1"/>
        <pt x="364" y="-387" on="0"/>
        <pt x="256" y="-387" on="1"/>
        <pt x="166" y="-387" on="0"/>
        <pt x="98" y="-342" on="1"/>
        <pt x="24" y="-292" on="0"/>
        <pt x="24" y="-214" on="1"/>
        <pt x="24" y="-102" on="0"/>
        <pt x="131" y="-102" on="1"/>
        <pt x="161" y="-102" on="0"/>
        <pt x="183" y="-120" on="1"/>
        <pt x="209" y="-142" on="0"/>
        <pt x="212" y="-180" on="1"/>
        <pt x="215" y="-141" on="0"/>
        <pt x="238" y="-119" on="1"/>
        <pt x="258" y="-100" on="0"/>
        <pt x="285" y="-100" on="1"/>
        <pt x="313" y="-100" on="0"/>
        <pt x="334" y="-116" on="1"/>
        <pt x="362" y="-138" on="0"/>
        <pt x="362" y="-180" on="1"/>
        <pt x="363" y="-232" on="0"/>
        <pt x="362" y="-245" on="1"/>
        <pt x="321" y="-245" on="1"/>
        <pt x="322" y="-181" on="0"/>
        <pt x="321" y="-180" on="1"/>
        <pt x="321" y="-164" on="0"/>
        <pt x="294" y="-140" on="0"/>
        <pt x="277" y="-140" on="1"/>
        <pt x="257" y="-140" on="0"/>
        <pt x="232" y="-172" on="0"/>
        <pt x="232" y="-196" on="1"/>
        <pt x="232" y="-242" on="1"/>
        <pt x="223" y="-243" on="0"/>
        <pt x="192" y="-242" on="1"/>
        <pt x="192" y="-194" on="1"/>
        <pt x="192" y="-176" on="0"/>
        <pt x="166" y="-145" on="0"/>
        <pt x="143" y="-140" on="0"/>
        <pt x="135" y="-140" on="1"/>
        <pt x="78" y="-140" on="0"/>
        <pt x="78" y="-209" on="1"/>
        <pt x="78" y="-235" on="0"/>
        <pt x="89" y="-261" on="1"/>
        <pt x="105" y="-300" on="0"/>
        <pt x="146" y="-324" on="1"/>
        <pt x="190" y="-351" on="0"/>
        <pt x="252" y="-351" on="1"/>
        <pt x="330" y="-351" on="0"/>
        <pt x="461" y="-248" on="0"/>
        <pt x="461" y="-177" on="1"/>
        <pt x="461" y="339" on="1"/>
        <pt x="377" y="339" on="1"/>
        <pt x="374" y="399" on="1"/>
      </contour>
    </TTGlyph>
    <TTGlyph name="Edotaccent" xMin="42" yMin="-473" xMax="762" yMax="421">
      <contour>
        <pt x="762" y="-317" on="1"/>
        <pt x="762" y="-382" on="0"/>
        <pt x="736" y="-416" on="1"/>
        <pt x="693" y="-473" on="0"/>
        <pt x="577" y="-473" on="1"/>
        <pt x="85" y="-473" on="1"/>
        <pt x="85" y="-437" on="1"/>
        <pt x="552" y="-437" on="1"/>
        <pt x="644" y="-437" on="0"/>
        <pt x="671" y="-391" on="1"/>
        <pt x="682" y="-373" on="0"/>
        <pt x="682" y="-323" on="1"/>
        <pt x="682" y="-274" on="0"/>
        <pt x="655" y="-246" on="1"/>
        <pt x="631" y="-222" on="0"/>
        <pt x="599" y="-222" on="1"/>
        <pt x="527" y="-222" on="0"/>
        <pt x="527" y="-283" on="1"/>
        <pt x="527" y="-318" on="1"/>
        <pt x="527" y="-401" on="0"/>
        <pt x="386" y="-401" on="1"/>
        <pt x="258" y="-401" on="0"/>
        <pt x="258" y="-311" on="1"/>
        <pt x="256" y="-234" on="0"/>
        <pt x="258" y="-197" on="1"/>
        <pt x="331" y="-197" on="1"/>
        <pt x="331" y="-196" on="0"/>
        <pt x="330" y="-247" on="1"/>
        <pt x="329" y="-289" on="0"/>
        <pt x="330" y="-311" on="1"/>
        <pt x="331" y="-341" on="0"/>
        <pt x="354" y="-365" on="0"/>
        <pt x="388" y="-366" on="1"/>
        <pt x="414" y="-366" on="0"/>
        <pt x="427" y="-360" on="1"/>
        <pt x="451" y="-349" on="0"/>
        <pt x="451" y="-312" on="1"/>
        <pt x="451" y="-271" on="1"/>
        <pt x="451" y="-224" on="0"/>
        <pt x="506" y="-203" on="1"/>
        <pt x="544" y="-189" on="0"/>
        <pt x="597" y="-189" on="1"/>
        <pt x="666" y="-189" on="0"/>
        <pt x="762" y="-259" on="0"/>
      </contour>
      <contour>
        <pt x="748" y="263" on="1"/>
        <pt x="748" y="189" on="0"/>
        <pt x="654" y="94" on="0"/>
        <pt x="584" y="94" on="1"/>
        <pt x="162" y="94" on="1"/>
        <pt x="93" y="94" on="0"/>
        <pt x="93" y="62" on="1"/>
        <pt x="93" y="45" on="0"/>
        <pt x="103" y="31" on="1"/>
        <pt x="116" y="13" on="0"/>
        <pt x="140" y="27" on="1"/>
        <pt x="730" y="27" on="1"/>
        <pt x="730" y="-23" on="1"/>
        <pt x="435" y="-23" on="1"/>
        <pt x="435" y="-171" on="1"/>
        <pt x="380" y="-171" on="1"/>
        <pt x="380" y="-23" on="1"/>
        <pt x="150" y="-23" on="1"/>
        <pt x="42" y="-23" on="0"/>
        <pt x="42" y="53" on="1"/>
        <pt x="42" y="126" on="0"/>
        <pt x="140" y="126" on="1"/>
        <pt x="518" y="125" on="1"/>
        <pt x="660" y="125" on="0"/>
        <pt x="660" y="257" on="1"/>
        <pt x="660" y="313" on="0"/>
        <pt x="596" y="380" on="0"/>
        <pt x="538" y="380" on="1"/>
        <pt x="502" y="380" on="0"/>
        <pt x="440" y="325" on="0"/>
        <pt x="440" y="296" on="1"/>
        <pt x="440" y="150" on="1"/>
        <pt x="356" y="150" on="1"/>
        <pt x="356" y="295" on="1"/>
        <pt x="356" y="323" on="0"/>
        <pt x="317" y="352" on="1"/>
        <pt x="274" y="382" on="0"/>
        <pt x="223" y="382" on="1"/>
        <pt x="110" y="382" on="0"/>
        <pt x="84" y="293" on="1"/>
        <pt x="89" y="291" on="1"/>
        <pt x="109" y="313" on="0"/>
        <pt x="135" y="326" on="0"/>
        <pt x="163" y="326" on="1"/>
        <pt x="213" y="326" on="0"/>
        <pt x="245" y="300" on="1"/>
        <pt x="274" y="276" on="0"/>
        <pt x="274" y="240" on="1"/>
        <pt x="274" y="198" on="0"/>
        <pt x="211" y="154" on="0"/>
        <pt x="161" y="154" on="1"/>
        <pt x="42" y="154" on="0"/>
        <pt x="42" y="259" on="1"/>
        <pt x="42" y="331" on="0"/>
        <pt x="93" y="374" on="1"/>
        <pt x="149" y="421" on="0"/>
        <pt x="258" y="421" on="1"/>
        <pt x="309" y="421" on="0"/>
        <pt x="401" y="376" on="0"/>
        <pt x="421" y="345" on="1"/>
        <pt x="471" y="421" on="0"/>
        <pt x="554" y="421" on="1"/>
        <pt x="635" y="421" on="0"/>
        <pt x="748" y="335" on="0"/>
      </contour>
      <contour>
        <pt x="204" y="236" on="1"/>
        <pt x="204" y="262" on="0"/>
        <pt x="173" y="294" on="0"/>
        <pt x="148" y="294" on="1"/>
        <pt x="94" y="294" on="0"/>
        <pt x="94" y="242" on="1"/>
        <pt x="94" y="186" on="0"/>
        <pt x="146" y="186" on="1"/>
        <pt x="204" y="186" on="0"/>
      </contour>
    </TTGlyph>
    <TTGlyph name="Egrave" xMin="-33" yMin="40" xMax="621" yMax="547">
      <contour>
        <pt x="621" y="305" on="1"/>
        <pt x="621" y="293" on="1"/>
        <pt x="621" y="177" on="0"/>
        <pt x="546" y="108" on="1"/>
        <pt x="472" y="40" on="0"/>
        <pt x="352" y="40" on="1"/>
        <pt x="223" y="40" on="0"/>
        <pt x="160" y="123" on="1"/>
        <pt x="108" y="192" on="0"/>
        <pt x="108" y="308" on="1"/>
        <pt x="145" y="308" on="1"/>
        <pt x="145" y="219" on="0"/>
        <pt x="183" y="159" on="1"/>
        <pt x="236" y="76" on="0"/>
        <pt x="352" y="76" on="1"/>
        <pt x="439" y="76" on="0"/>
        <pt x="495" y="143" on="1"/>
        <pt x="548" y="207" on="0"/>
        <pt x="545" y="297" on="1"/>
        <pt x="542" y="377" on="0"/>
        <pt x="516" y="431" on="1"/>
        <pt x="477" y="513" on="0"/>
        <pt x="391" y="513" on="1"/>
        <pt x="281" y="513" on="0"/>
        <pt x="267" y="411" on="1"/>
        <pt x="435" y="411" on="1"/>
        <pt x="435" y="301" on="1"/>
        <pt x="435" y="218" on="0"/>
        <pt x="315" y="218" on="1"/>
        <pt x="272" y="218" on="0"/>
        <pt x="249" y="245" on="1"/>
        <pt x="230" y="267" on="0"/>
        <pt x="230" y="299" on="1"/>
        <pt x="230" y="380" on="1"/>
        <pt x="-32" y="380" on="1"/>
        <pt x="-33" y="411" on="1"/>
        <pt x="230" y="411" on="1"/>
        <pt x="252" y="547" on="0"/>
        <pt x="397" y="547" on="1"/>
        <pt x="517" y="547" on="0"/>
        <pt x="576" y="457" on="1"/>
        <pt x="618" y="393" on="0"/>
      </contour>
      <contour>
        <pt x="361" y="292" on="1"/>
        <pt x="361" y="380" on="1"/>
        <pt x="265" y="380" on="1"/>
        <pt x="265" y="299" on="1"/>
        <pt x="265" y="251" on="0"/>
        <pt x="314" y="251" on="1"/>
        <pt x="332" y="251" on="0"/>
        <pt x="361" y="276" on="0"/>
      </contour>
    </TTGlyph>
    <TTGlyph name="Eng" xMin="34" yMin="-431" xMax="845" yMax="412">
      <contour>
        <pt x="845" y="382" on="1"/>
        <pt x="736" y="382" on="1"/>
        <pt x="736" y="170" on="1"/>
        <pt x="736" y="91" on="0"/>
        <pt x="703" y="46" on="1"/>
        <pt x="666" y="-4" on="0"/>
        <pt x="594" y="-4" on="1"/>
        <pt x="418" y="-4" on="0"/>
        <pt x="418" y="172" on="1"/>
        <pt x="418" y="381" on="1"/>
        <pt x="278" y="381" on="1"/>
        <pt x="278" y="127" on="1"/>
        <pt x="276" y="69" on="0"/>
        <pt x="208" y="0" on="0"/>
        <pt x="154" y="0" on="1"/>
        <pt x="133" y="0" on="0"/>
        <pt x="112" y="5" on="1"/>
        <pt x="34" y="24" on="0"/>
        <pt x="34" y="144" on="1"/>
        <pt x="34" y="410" on="1"/>
        <pt x="78" y="410" on="1"/>
        <pt x="78" y="140" on="1"/>
        <pt x="78" y="43" on="0"/>
        <pt x="154" y="47" on="1"/>
        <pt x="221" y="51" on="0"/>
        <pt x="221" y="136" on="1"/>
        <pt x="221" y="412" on="1"/>
        <pt x="845" y="412" on="1"/>
      </contour>
      <contour>
        <pt x="693" y="168" on="1"/>
        <pt x="693" y="381" on="1"/>
        <pt x="521" y="381" on="1"/>
        <pt x="521" y="170" on="1"/>
        <pt x="521" y="104" on="0"/>
        <pt x="559" y="46" on="0"/>
        <pt x="609" y="47" on="1"/>
        <pt x="693" y="48" on="0"/>
      </contour>
      <contour>
        <pt x="665" y="-431" on="1"/>
        <pt x="344" y="-431" on="1"/>
        <pt x="344" y="-407" on="1"/>
        <pt x="377" y="-395" on="0"/>
        <pt x="394" y="-352" on="1"/>
        <pt x="409" y="-315" on="0"/>
        <pt x="409" y="-267" on="1"/>
        <pt x="409" y="-203" on="0"/>
        <pt x="360" y="-161" on="1"/>
        <pt x="320" y="-127" on="0"/>
        <pt x="273" y="-127" on="1"/>
        <pt x="208" y="-127" on="0"/>
        <pt x="118" y="-220" on="0"/>
        <pt x="118" y="-284" on="1"/>
        <pt x="144" y="-235" on="0"/>
        <pt x="198" y="-235" on="1"/>
        <pt x="233" y="-235" on="0"/>
        <pt x="287" y="-281" on="0"/>
        <pt x="294" y="-325" on="1"/>
        <pt x="296" y="-335" on="0"/>
        <pt x="296" y="-343" on="1"/>
        <pt x="296" y="-385" on="0"/>
        <pt x="265" y="-409" on="1"/>
        <pt x="240" y="-429" on="0"/>
        <pt x="204" y="-429" on="1"/>
        <pt x="190" y="-429" on="1"/>
        <pt x="160" y="-426" on="0"/>
        <pt x="134" y="-399" on="1"/>
        <pt x="94" y="-357" on="0"/>
        <pt x="94" y="-279" on="1"/>
        <pt x="94" y="-203" on="0"/>
        <pt x="199" y="-100" on="0"/>
        <pt x="276" y="-100" on="1"/>
        <pt x="357" y="-100" on="0"/>
        <pt x="411" y="-145" on="1"/>
        <pt x="469" y="-194" on="0"/>
        <pt x="469" y="-277" on="1"/>
        <pt x="469" y="-317" on="0"/>
        <pt x="438" y="-393" on="0"/>
        <pt x="419" y="-406" on="1"/>
        <pt x="604" y="-406" on="1"/>
        <pt x="604" y="-103" on="1"/>
        <pt x="665" y="-103" on="1"/>
      </contour>
      <contour>
        <pt x="182" y="-268" on="1"/>
        <pt x="160" y="-268" on="0"/>
        <pt x="135" y="-295" on="0"/>
        <pt x="135" y="-317" on="1"/>
        <pt x="135" y="-335" on="0"/>
        <pt x="143" y="-358" on="1"/>
        <pt x="158" y="-399" on="0"/>
        <pt x="200" y="-402" on="1"/>
        <pt x="238" y="-404" on="0"/>
        <pt x="238" y="-349" on="1"/>
        <pt x="238" y="-319" on="0"/>
        <pt x="224" y="-296" on="1"/>
        <pt x="209" y="-268" on="0"/>
      </contour>
    </TTGlyph>
    <TTGlyph name="Eth" xMin="-525" yMin="-500" xMax="-102" yMax="-206">
      <contour>
        <pt x="-230" y="-442" on="1"/>
        <pt x="-230" y="-346" on="1"/>
        <pt x="-276" y="-345" on="1"/>
        <pt x="-276" y="-415" on="1"/>
        <pt x="-276" y="-454" on="0"/>
        <pt x="-322" y="-499" on="0"/>
        <pt x="-354" y="-499" on="1"/>
        <pt x="-400" y="-499" on="0"/>
        <pt x="-414" y="-459" on="1"/>
        <pt x="-424" y="-499" on="0"/>
        <pt x="-461" y="-499" on="1"/>
        <pt x="-482" y="-499" on="0"/>
        <pt x="-518" y="-451" on="0"/>
        <pt x="-523" y="-413" on="1"/>
        <pt x="-525" y="-402" on="0"/>
        <pt x="-525" y="-392" on="1"/>
        <pt x="-525" y="-320" on="0"/>
        <pt x="-448" y="-320" on="1"/>
        <pt x="-432" y="-320" on="1"/>
        <pt x="-432" y="-206" on="1"/>
        <pt x="-179" y="-206" on="1"/>
        <pt x="-179" y="-231" on="1"/>
        <pt x="-276" y="-231" on="1"/>
        <pt x="-276" y="-320" on="1"/>
        <pt x="-173" y="-320" on="1"/>
        <pt x="-141" y="-320" on="0"/>
        <pt x="-126" y="-332" on="1"/>
        <pt x="-102" y="-351" on="0"/>
        <pt x="-102" y="-406" on="1"/>
        <pt x="-102" y="-500" on="0"/>
        <pt x="-176" y="-500" on="1"/>
        <pt x="-230" y="-500" on="0"/>
      </contour>
      <contour>
        <pt x="-148" y="-390" on="1"/>
        <pt x="-148" y="-362" on="0"/>
        <pt x="-159" y="-344" on="0"/>
        <pt x="-174" y="-345" on="1"/>
        <pt x="-204" y="-346" on="1"/>
        <pt x="-204" y="-436" on="1"/>
        <pt x="-204" y="-473" on="0"/>
        <pt x="-174" y="-472" on="1"/>
        <pt x="-148" y="-471" on="0"/>
        <pt x="-148" y="-432" on="1"/>
      </contour>
      <contour>
        <pt x="-332" y="-231" on="1"/>
        <pt x="-403" y="-231" on="1"/>
        <pt x="-403" y="-320" on="1"/>
        <pt x="-332" y="-320" on="1"/>
      </contour>
      <contour>
        <pt x="-332" y="-345" on="1"/>
        <pt x="-449" y="-345" on="1"/>
        <pt x="-496" y="-345" on="0"/>
        <pt x="-496" y="-392" on="1"/>
        <pt x="-496" y="-465" on="0"/>
        <pt x="-456" y="-465" on="1"/>
        <pt x="-425" y="-465" on="0"/>
        <pt x="-425" y="-429" on="1"/>
        <pt x="-426" y="-395" on="0"/>
        <pt x="-425" y="-390" on="1"/>
        <pt x="-400" y="-390" on="1"/>
        <pt x="-400" y="-429" on="1"/>
        <pt x="-400" y="-462" on="0"/>
        <pt x="-372" y="-462" on="1"/>
        <pt x="-332" y="-462" on="0"/>
        <pt x="-332" y="-415" on="1"/>
      </contour>
    </TTGlyph>
    <TTGlyph name="F" xMin="21" yMin="-3" xMax="443" yMax="423">
      <contour>
        <pt x="443" y="208" on="1"/>
        <pt x="443" y="121" on="0"/>
        <pt x="319" y="-3" on="0"/>
        <pt x="229" y="-3" on="1"/>
        <pt x="142" y="-3" on="0"/>
        <pt x="21" y="113" on="0"/>
        <pt x="21" y="202" on="1"/>
        <pt x="21" y="298" on="0"/>
        <pt x="138" y="423" on="0"/>
        <pt x="224" y="423" on="1"/>
        <pt x="320" y="423" on="0"/>
        <pt x="443" y="298" on="0"/>
      </contour>
      <contour>
        <pt x="365" y="205" on="1"/>
        <pt x="365" y="271" on="0"/>
        <pt x="273" y="366" on="0"/>
        <pt x="208" y="366" on="1"/>
        <pt x="143" y="366" on="0"/>
        <pt x="51" y="275" on="0"/>
        <pt x="51" y="211" on="1"/>
        <pt x="51" y="146" on="0"/>
        <pt x="144" y="49" on="0"/>
        <pt x="209" y="49" on="1"/>
        <pt x="273" y="49" on="0"/>
        <pt x="365" y="142" on="0"/>
      </contour>
    </TTGlyph>
    <TTGlyph name="G" xMin="30" yMin="-1" xMax="945" yMax="411">
      <contour>
        <pt x="343" y="0" on="1"/>
        <pt x="343" y="28" on="1"/>
        <pt x="384" y="43" on="0"/>
        <pt x="405" y="96" on="1"/>
        <pt x="424" y="142" on="0"/>
        <pt x="424" y="202" on="1"/>
        <pt x="424" y="283" on="0"/>
        <pt x="363" y="335" on="1"/>
        <pt x="312" y="378" on="0"/>
        <pt x="254" y="378" on="1"/>
        <pt x="172" y="378" on="0"/>
        <pt x="60" y="261" on="0"/>
        <pt x="60" y="181" on="1"/>
        <pt x="90" y="240" on="0"/>
        <pt x="158" y="240" on="1"/>
        <pt x="205" y="240" on="0"/>
        <pt x="236" y="215" on="1"/>
        <pt x="272" y="186" on="0"/>
        <pt x="277" y="129" on="1"/>
        <pt x="283" y="61" on="0"/>
        <pt x="242" y="27" on="1"/>
        <pt x="207" y="-1" on="0"/>
        <pt x="157" y="-1" on="1"/>
        <pt x="147" y="-1" on="0"/>
        <pt x="136" y="0" on="1"/>
        <pt x="102" y="3" on="0"/>
        <pt x="73" y="38" on="1"/>
        <pt x="30" y="90" on="0"/>
        <pt x="30" y="188" on="1"/>
        <pt x="30" y="282" on="0"/>
        <pt x="161" y="411" on="0"/>
        <pt x="257" y="411" on="1"/>
        <pt x="359" y="411" on="0"/>
        <pt x="426" y="355" on="1"/>
        <pt x="499" y="294" on="0"/>
        <pt x="499" y="190" on="1"/>
        <pt x="499" y="140" on="0"/>
        <pt x="461" y="47" on="0"/>
        <pt x="437" y="31" on="1"/>
        <pt x="616" y="31" on="1"/>
        <pt x="616" y="411" on="1"/>
        <pt x="691" y="411" on="1"/>
        <pt x="691" y="31" on="1"/>
        <pt x="870" y="31" on="1"/>
        <pt x="870" y="411" on="1"/>
        <pt x="945" y="411" on="1"/>
        <pt x="945" y="0" on="1"/>
      </contour>
      <contour>
        <pt x="205" y="116" on="1"/>
        <pt x="205" y="159" on="0"/>
        <pt x="168" y="208" on="0"/>
        <pt x="140" y="205" on="1"/>
        <pt x="80" y="198" on="0"/>
        <pt x="80" y="127" on="1"/>
        <pt x="80" y="107" on="0"/>
        <pt x="86" y="88" on="1"/>
        <pt x="103" y="35" on="0"/>
        <pt x="144" y="33" on="1"/>
        <pt x="173" y="31" on="0"/>
        <pt x="205" y="80" on="0"/>
      </contour>
    </TTGlyph>
    <TTGlyph name="H" xMin="121" yMin="-16" xMax="288" yMax="418">
      <contour>
        <pt x="204" y="418" on="1"/>
        <pt x="240" y="418" on="0"/>
        <pt x="288" y="369" on="0"/>
        <pt x="288" y="334" on="1"/>
        <pt x="288" y="300" on="0"/>
        <pt x="240" y="251" on="0"/>
        <pt x="204" y="251" on="1"/>
        <pt x="170" y="251" on="0"/>
        <pt x="121" y="300" on="0"/>
        <pt x="121" y="334" on="1"/>
        <pt x="121" y="369" on="0"/>
        <pt x="170" y="418" on="0"/>
      </contour>
      <contour>
        <pt x="204" y="396" on="1"/>
        <pt x="179" y="396" on="0"/>
        <pt x="144" y="360" on="0"/>
        <pt x="144" y="335" on="1"/>
        <pt x="144" y="310" on="0"/>
        <pt x="179" y="274" on="0"/>
        <pt x="204" y="274" on="1"/>
        <pt x="230" y="274" on="0"/>
        <pt x="265" y="310" on="0"/>
        <pt x="265" y="335" on="1"/>
        <pt x="265" y="360" on="0"/>
        <pt x="230" y="396" on="0"/>
      </contour>
      <contour>
        <pt x="205" y="150" on="1"/>
        <pt x="240" y="150" on="0"/>
        <pt x="288" y="102" on="0"/>
        <pt x="288" y="67" on="1"/>
        <pt x="288" y="32" on="0"/>
        <pt x="240" y="-16" on="0"/>
        <pt x="205" y="-16" on="1"/>
        <pt x="170" y="-16" on="0"/>
        <pt x="121" y="32" on="0"/>
        <pt x="121" y="67" on="1"/>
        <pt x="121" y="102" on="0"/>
        <pt x="170" y="150" on="0"/>
      </contour>
      <contour>
        <pt x="205" y="127" on="1"/>
        <pt x="180" y="127" on="0"/>
        <pt x="144" y="92" on="0"/>
        <pt x="144" y="67" on="1"/>
        <pt x="144" y="42" on="0"/>
        <pt x="180" y="6" on="0"/>
        <pt x="205" y="6" on="1"/>
        <pt x="230" y="6" on="0"/>
        <pt x="266" y="42" on="0"/>
        <pt x="266" y="67" on="1"/>
        <pt x="266" y="92" on="0"/>
        <pt x="230" y="127" on="0"/>
      </contour>
    </TTGlyph>
    <TTGlyph name="Hcircumflex" xMin="33" yMin="-431" xMax="1158" yMax="412">
      <contour>
        <pt x="1158" y="380" on="1"/>
        <pt x="1045" y="380" on="1"/>
        <pt x="1045" y="0" on="1"/>
        <pt x="970" y="0" on="1"/>
        <pt x="970" y="380" on="1"/>
        <pt x="910" y="380" on="1"/>
        <pt x="848" y="380" on="0"/>
        <pt x="825" y="369" on="1"/>
        <pt x="794" y="354" on="0"/>
        <pt x="782" y="337" on="1"/>
        <pt x="813" y="313" on="0"/>
        <pt x="838" y="267" on="1"/>
        <pt x="869" y="213" on="0"/>
        <pt x="870" y="160" on="1"/>
        <pt x="872" y="92" on="0"/>
        <pt x="845" y="50" on="1"/>
        <pt x="813" y="-2" on="0"/>
        <pt x="744" y="-2" on="1"/>
        <pt x="698" y="-2" on="0"/>
        <pt x="673" y="36" on="1"/>
        <pt x="645" y="77" on="0"/>
        <pt x="649" y="152" on="1"/>
        <pt x="651" y="197" on="0"/>
        <pt x="679" y="254" on="1"/>
        <pt x="704" y="305" on="0"/>
        <pt x="723" y="319" on="1"/>
        <pt x="673" y="377" on="0"/>
        <pt x="597" y="377" on="1"/>
        <pt x="529" y="377" on="0"/>
        <pt x="487" y="340" on="1"/>
        <pt x="519" y="319" on="0"/>
        <pt x="546" y="271" on="1"/>
        <pt x="580" y="212" on="0"/>
        <pt x="580" y="145" on="1"/>
        <pt x="580" y="78" on="0"/>
        <pt x="546" y="38" on="1"/>
        <pt x="513" y="0" on="0"/>
        <pt x="458" y="0" on="1"/>
        <pt x="450" y="0" on="1"/>
        <pt x="403" y="2" on="0"/>
        <pt x="376" y="48" on="1"/>
        <pt x="350" y="90" on="0"/>
        <pt x="352" y="149" on="1"/>
        <pt x="353" y="199" on="0"/>
        <pt x="380" y="255" on="1"/>
        <pt x="403" y="303" on="0"/>
        <pt x="423" y="320" on="1"/>
        <pt x="387" y="352" on="0"/>
        <pt x="354" y="365" on="1"/>
        <pt x="316" y="379" on="0"/>
        <pt x="259" y="378" on="1"/>
        <pt x="196" y="376" on="0"/>
        <pt x="137" y="323" on="1"/>
        <pt x="70" y="264" on="0"/>
        <pt x="66" y="181" on="1"/>
        <pt x="101" y="239" on="0"/>
        <pt x="167" y="239" on="1"/>
        <pt x="212" y="239" on="0"/>
        <pt x="283" y="179" on="0"/>
        <pt x="283" y="129" on="1"/>
        <pt x="283" y="61" on="0"/>
        <pt x="243" y="29" on="1"/>
        <pt x="209" y="1" on="0"/>
        <pt x="159" y="1" on="1"/>
        <pt x="150" y="1" on="0"/>
        <pt x="140" y="2" on="1"/>
        <pt x="95" y="7" on="0"/>
        <pt x="34" y="98" on="0"/>
        <pt x="33" y="168" on="1"/>
        <pt x="33" y="173" on="1"/>
        <pt x="33" y="275" on="0"/>
        <pt x="108" y="345" on="1"/>
        <pt x="178" y="411" on="0"/>
        <pt x="263" y="412" on="1"/>
        <pt x="278" y="412" on="1"/>
        <pt x="335" y="412" on="0"/>
        <pt x="366" y="405" on="1"/>
        <pt x="407" y="395" on="0"/>
        <pt x="463" y="362" on="1"/>
        <pt x="523" y="410" on="0"/>
        <pt x="595" y="412" on="1"/>
        <pt x="605" y="412" on="1"/>
        <pt x="694" y="412" on="0"/>
        <pt x="759" y="359" on="1"/>
        <pt x="799" y="401" on="0"/>
        <pt x="861" y="408" on="1"/>
        <pt x="883" y="411" on="0"/>
        <pt x="911" y="411" on="1"/>
        <pt x="1158" y="411" on="1"/>
      </contour>
      <contour>
        <pt x="795" y="161" on="1"/>
        <pt x="795" y="198" on="0"/>
        <pt x="777" y="239" on="1"/>
        <pt x="762" y="274" on="0"/>
        <pt x="742" y="294" on="1"/>
        <pt x="721" y="276" on="0"/>
        <pt x="701" y="226" on="1"/>
        <pt x="684" y="184" on="0"/>
        <pt x="682" y="161" on="1"/>
        <pt x="681" y="150" on="0"/>
        <pt x="681" y="138" on="1"/>
        <pt x="681" y="43" on="0"/>
        <pt x="737" y="43" on="1"/>
        <pt x="795" y="43" on="0"/>
      </contour>
      <contour>
        <pt x="506" y="149" on="1"/>
        <pt x="507" y="190" on="0"/>
        <pt x="485" y="239" on="1"/>
        <pt x="465" y="284" on="0"/>
        <pt x="445" y="298" on="1"/>
        <pt x="426" y="287" on="0"/>
        <pt x="405" y="240" on="1"/>
        <pt x="382" y="188" on="0"/>
        <pt x="383" y="146" on="1"/>
        <pt x="385" y="46" on="0"/>
        <pt x="442" y="45" on="1"/>
        <pt x="504" y="44" on="0"/>
      </contour>
      <contour>
        <pt x="211" y="116" on="1"/>
        <pt x="211" y="158" on="0"/>
        <pt x="174" y="205" on="0"/>
        <pt x="146" y="205" on="1"/>
        <pt x="114" y="205" on="0"/>
        <pt x="97" y="179" on="1"/>
        <pt x="81" y="157" on="0"/>
        <pt x="81" y="123" on="1"/>
        <pt x="81" y="87" on="0"/>
        <pt x="97" y="63" on="1"/>
        <pt x="116" y="35" on="0"/>
        <pt x="150" y="33" on="1"/>
        <pt x="179" y="31" on="0"/>
        <pt x="211" y="80" on="0"/>
      </contour>
      <contour>
        <pt x="1013" y="-125" on="1"/>
        <pt x="923" y="-125" on="1"/>
        <pt x="923" y="-429" on="1"/>
        <pt x="863" y="-429" on="1"/>
        <pt x="863" y="-125" on="1"/>
        <pt x="815" y="-125" on="1"/>
        <pt x="765" y="-125" on="0"/>
        <pt x="747" y="-134" on="1"/>
        <pt x="722" y="-146" on="0"/>
        <pt x="712" y="-159" on="1"/>
        <pt x="737" y="-179" on="0"/>
        <pt x="757" y="-215" on="1"/>
        <pt x="782" y="-259" on="0"/>
        <pt x="783" y="-301" on="1"/>
        <pt x="784" y="-355" on="0"/>
        <pt x="763" y="-389" on="1"/>
        <pt x="737" y="-431" on="0"/>
        <pt x="682" y="-431" on="1"/>
        <pt x="645" y="-431" on="0"/>
        <pt x="625" y="-400" on="1"/>
        <pt x="603" y="-367" on="0"/>
        <pt x="606" y="-307" on="1"/>
        <pt x="607" y="-271" on="0"/>
        <pt x="630" y="-226" on="1"/>
        <pt x="650" y="-185" on="0"/>
        <pt x="665" y="-174" on="1"/>
        <pt x="625" y="-127" on="0"/>
        <pt x="564" y="-127" on="1"/>
        <pt x="510" y="-127" on="0"/>
        <pt x="476" y="-157" on="1"/>
        <pt x="502" y="-174" on="0"/>
        <pt x="523" y="-212" on="1"/>
        <pt x="551" y="-259" on="0"/>
        <pt x="551" y="-313" on="1"/>
        <pt x="551" y="-367" on="0"/>
        <pt x="523" y="-399" on="1"/>
        <pt x="497" y="-429" on="0"/>
        <pt x="453" y="-429" on="1"/>
        <pt x="447" y="-429" on="1"/>
        <pt x="409" y="-427" on="0"/>
        <pt x="387" y="-391" on="1"/>
        <pt x="367" y="-357" on="0"/>
        <pt x="368" y="-310" on="1"/>
        <pt x="369" y="-270" on="0"/>
        <pt x="391" y="-225" on="1"/>
        <pt x="409" y="-187" on="0"/>
        <pt x="425" y="-173" on="1"/>
        <pt x="396" y="-147" on="0"/>
        <pt x="370" y="-137" on="1"/>
        <pt x="339" y="-126" on="0"/>
        <pt x="294" y="-127" on="1"/>
        <pt x="243" y="-128" on="0"/>
        <pt x="196" y="-171" on="1"/>
        <pt x="143" y="-218" on="0"/>
        <pt x="139" y="-284" on="1"/>
        <pt x="167" y="-238" on="0"/>
        <pt x="220" y="-238" on="1"/>
        <pt x="256" y="-238" on="0"/>
        <pt x="313" y="-286" on="0"/>
        <pt x="313" y="-326" on="1"/>
        <pt x="313" y="-380" on="0"/>
        <pt x="281" y="-406" on="1"/>
        <pt x="254" y="-428" on="0"/>
        <pt x="214" y="-428" on="1"/>
        <pt x="207" y="-428" on="0"/>
        <pt x="199" y="-427" on="1"/>
        <pt x="163" y="-423" on="0"/>
        <pt x="114" y="-351" on="0"/>
        <pt x="113" y="-295" on="1"/>
        <pt x="113" y="-291" on="1"/>
        <pt x="113" y="-209" on="0"/>
        <pt x="173" y="-153" on="1"/>
        <pt x="229" y="-100" on="0"/>
        <pt x="297" y="-99" on="1"/>
        <pt x="309" y="-99" on="1"/>
        <pt x="355" y="-99" on="0"/>
        <pt x="379" y="-105" on="1"/>
        <pt x="412" y="-113" on="0"/>
        <pt x="457" y="-139" on="1"/>
        <pt x="505" y="-101" on="0"/>
        <pt x="563" y="-99" on="1"/>
        <pt x="571" y="-99" on="1"/>
        <pt x="642" y="-99" on="0"/>
        <pt x="694" y="-142" on="1"/>
        <pt x="726" y="-108" on="0"/>
        <pt x="775" y="-103" on="1"/>
        <pt x="793" y="-100" on="0"/>
        <pt x="815" y="-100" on="1"/>
        <pt x="1013" y="-100" on="1"/>
      </contour>
      <contour>
        <pt x="723" y="-300" on="1"/>
        <pt x="723" y="-271" on="0"/>
        <pt x="708" y="-238" on="1"/>
        <pt x="696" y="-210" on="0"/>
        <pt x="680" y="-194" on="1"/>
        <pt x="663" y="-208" on="0"/>
        <pt x="647" y="-248" on="1"/>
        <pt x="634" y="-282" on="0"/>
        <pt x="632" y="-300" on="1"/>
        <pt x="631" y="-309" on="0"/>
        <pt x="631" y="-319" on="1"/>
        <pt x="631" y="-395" on="0"/>
        <pt x="676" y="-395" on="1"/>
        <pt x="723" y="-395" on="0"/>
      </contour>
      <contour>
        <pt x="491" y="-310" on="1"/>
        <pt x="492" y="-277" on="0"/>
        <pt x="475" y="-238" on="1"/>
        <pt x="459" y="-202" on="0"/>
        <pt x="443" y="-191" on="1"/>
        <pt x="427" y="-199" on="0"/>
        <pt x="411" y="-237" on="1"/>
        <pt x="392" y="-279" on="0"/>
        <pt x="393" y="-312" on="1"/>
        <pt x="395" y="-392" on="0"/>
        <pt x="440" y="-393" on="1"/>
        <pt x="490" y="-394" on="0"/>
      </contour>
      <contour>
        <pt x="255" y="-336" on="1"/>
        <pt x="255" y="-303" on="0"/>
        <pt x="226" y="-265" on="0"/>
        <pt x="203" y="-265" on="1"/>
        <pt x="178" y="-265" on="0"/>
        <pt x="164" y="-286" on="1"/>
        <pt x="151" y="-303" on="0"/>
        <pt x="151" y="-331" on="1"/>
        <pt x="151" y="-359" on="0"/>
        <pt x="164" y="-379" on="1"/>
        <pt x="179" y="-401" on="0"/>
        <pt x="207" y="-403" on="1"/>
        <pt x="230" y="-404" on="0"/>
        <pt x="255" y="-365" on="0"/>
      </contour>
    </TTGlyph>
    <TTGlyph name="I" xMin="27" yMin="-11" xMax="998" yMax="411">
      <contour>
        <pt x="990" y="183" on="1"/>
        <pt x="963" y="127" on="0"/>
        <pt x="910" y="127" on="1"/>
        <pt x="889" y="127" on="0"/>
        <pt x="870" y="138" on="1"/>
        <pt x="824" y="164" on="0"/>
        <pt x="824" y="220" on="1"/>
        <pt x="824" y="246" on="0"/>
        <pt x="836" y="268" on="1"/>
        <pt x="860" y="311" on="0"/>
        <pt x="910" y="311" on="1"/>
        <pt x="936" y="311" on="0"/>
        <pt x="960" y="298" on="1"/>
        <pt x="998" y="277" on="0"/>
        <pt x="998" y="223" on="1"/>
        <pt x="998" y="198" on="0"/>
      </contour>
      <contour>
        <pt x="919" y="375" on="1"/>
        <pt x="759" y="375" on="1"/>
        <pt x="760" y="148" on="1"/>
        <pt x="760" y="82" on="0"/>
        <pt x="729" y="41" on="1"/>
        <pt x="690" y="-11" on="0"/>
        <pt x="607" y="-11" on="1"/>
        <pt x="443" y="-11" on="0"/>
        <pt x="443" y="153" on="1"/>
        <pt x="443" y="377" on="1"/>
        <pt x="328" y="377" on="1"/>
        <pt x="328" y="-4" on="1"/>
        <pt x="244" y="-4" on="1"/>
        <pt x="244" y="411" on="1"/>
        <pt x="919" y="411" on="1"/>
      </contour>
      <contour>
        <pt x="193" y="183" on="1"/>
        <pt x="166" y="127" on="0"/>
        <pt x="113" y="127" on="1"/>
        <pt x="92" y="127" on="0"/>
        <pt x="73" y="138" on="1"/>
        <pt x="27" y="164" on="0"/>
        <pt x="27" y="220" on="1"/>
        <pt x="27" y="246" on="0"/>
        <pt x="39" y="268" on="1"/>
        <pt x="63" y="311" on="0"/>
        <pt x="113" y="311" on="1"/>
        <pt x="139" y="311" on="0"/>
        <pt x="163" y="298" on="1"/>
        <pt x="201" y="277" on="0"/>
        <pt x="201" y="223" on="1"/>
        <pt x="201" y="198" on="0"/>
      </contour>
      <contour>
        <pt x="950" y="226" on="1"/>
        <pt x="950" y="246" on="0"/>
        <pt x="920" y="272" on="0"/>
        <pt x="901" y="272" on="1"/>
        <pt x="881" y="272" on="0"/>
        <pt x="855" y="244" on="0"/>
        <pt x="855" y="224" on="1"/>
        <pt x="855" y="204" on="0"/>
        <pt x="882" y="178" on="0"/>
        <pt x="902" y="178" on="1"/>
        <pt x="922" y="178" on="0"/>
        <pt x="950" y="207" on="0"/>
      </contour>
      <contour>
        <pt x="722" y="156" on="1"/>
        <pt x="721" y="376" on="1"/>
        <pt x="694" y="376" on="0"/>
        <pt x="652" y="377" on="1"/>
        <pt x="526" y="377" on="1"/>
        <pt x="526" y="146" on="1"/>
        <pt x="526" y="113" on="0"/>
        <pt x="540" y="88" on="1"/>
        <pt x="565" y="44" on="0"/>
        <pt x="626" y="44" on="1"/>
        <pt x="677" y="44" on="0"/>
        <pt x="702" y="81" on="1"/>
        <pt x="722" y="111" on="0"/>
      </contour>
      <contour>
        <pt x="153" y="226" on="1"/>
        <pt x="153" y="246" on="0"/>
        <pt x="123" y="272" on="0"/>
        <pt x="104" y="272" on="1"/>
        <pt x="84" y="272" on="0"/>
        <pt x="58" y="244" on="0"/>
        <pt x="58" y="224" on="1"/>
        <pt x="58" y="204" on="0"/>
        <pt x="85" y="178" on="0"/>
        <pt x="105" y="178" on="1"/>
        <pt x="125" y="178" on="0"/>
        <pt x="153" y="207" on="0"/>
      </contour>
    </TTGlyph>
    <TTGlyph name="Iacute" xMin="43" yMin="-11" xMax="700" yMax="642">
      <contour>
        <pt x="700" y="-11" on="1"/>
        <pt x="659" y="-11" on="1"/>
        <pt x="659" y="291" on="1"/>
        <pt x="659" y="388" on="0"/>
        <pt x="592" y="465" on="1"/>
        <pt x="513" y="557" on="0"/>
        <pt x="374" y="570" on="1"/>
        <pt x="360" y="571" on="0"/>
        <pt x="347" y="571" on="1"/>
        <pt x="233" y="571" on="0"/>
        <pt x="159" y="489" on="1"/>
        <pt x="90" y="412" on="0"/>
        <pt x="90" y="306" on="1"/>
        <pt x="90" y="268" on="0"/>
        <pt x="100" y="232" on="1"/>
        <pt x="115" y="181" on="0"/>
        <pt x="134" y="150" on="1"/>
        <pt x="151" y="124" on="0"/>
        <pt x="187" y="89" on="1"/>
        <pt x="217" y="60" on="0"/>
        <pt x="270" y="43" on="1"/>
        <pt x="317" y="28" on="0"/>
        <pt x="360" y="28" on="1"/>
        <pt x="373" y="28" on="0"/>
        <pt x="383" y="29" on="1"/>
        <pt x="338" y="60" on="0"/>
        <pt x="321" y="91" on="1"/>
        <pt x="301" y="129" on="0"/>
        <pt x="301" y="166" on="1"/>
        <pt x="302" y="225" on="0"/>
        <pt x="337" y="258" on="1"/>
        <pt x="369" y="289" on="0"/>
        <pt x="417" y="289" on="1"/>
        <pt x="464" y="289" on="0"/>
        <pt x="500" y="258" on="1"/>
        <pt x="539" y="224" on="0"/>
        <pt x="545" y="166" on="1"/>
        <pt x="552" y="93" on="0"/>
        <pt x="447" y="-11" on="0"/>
        <pt x="372" y="-11" on="1"/>
        <pt x="243" y="-11" on="0"/>
        <pt x="155" y="69" on="1"/>
        <pt x="70" y="146" on="0"/>
        <pt x="48" y="270" on="1"/>
        <pt x="43" y="299" on="0"/>
        <pt x="43" y="328" on="1"/>
        <pt x="43" y="456" on="0"/>
        <pt x="221" y="642" on="0"/>
        <pt x="355" y="642" on="1"/>
        <pt x="381" y="642" on="0"/>
        <pt x="407" y="638" on="1"/>
        <pt x="526" y="620" on="0"/>
        <pt x="612" y="530" on="1"/>
        <pt x="700" y="437" on="0"/>
        <pt x="700" y="319" on="1"/>
      </contour>
      <contour>
        <pt x="473" y="115" on="0"/>
        <pt x="473" y="148" on="1"/>
        <pt x="473" y="201" on="0"/>
        <pt x="438" y="224" on="1"/>
        <pt x="423" y="234" on="0"/>
        <pt x="405" y="234" on="1"/>
        <pt x="383" y="234" on="0"/>
        <pt x="346" y="207" on="0"/>
        <pt x="342" y="187" on="1"/>
        <pt x="340" y="175" on="0"/>
        <pt x="340" y="163" on="1"/>
        <pt x="340" y="124" on="0"/>
        <pt x="384" y="58" on="0"/>
        <pt x="420" y="41" on="1"/>
        <pt x="442" y="58" on="0"/>
      </contour>
    </TTGlyph>
    <TTGlyph name="Ibreve" xMin="-708" yMin="-606" xMax="-99" yMax="-211">
      <contour>
        <pt x="-100" y="-339" on="1"/>
        <pt x="-99" y="-369" on="1"/>
        <pt x="-158" y="-368" on="0"/>
        <pt x="-219" y="-369" on="1"/>
        <pt x="-216" y="-374" on="0"/>
        <pt x="-211" y="-385" on="1"/>
        <pt x="-207" y="-399" on="0"/>
        <pt x="-210" y="-426" on="1"/>
        <pt x="-218" y="-497" on="0"/>
        <pt x="-272" y="-547" on="1"/>
        <pt x="-336" y="-606" on="0"/>
        <pt x="-447" y="-606" on="1"/>
        <pt x="-458" y="-606" on="1"/>
        <pt x="-633" y="-602" on="0"/>
        <pt x="-700" y="-435" on="1"/>
        <pt x="-703" y="-428" on="0"/>
        <pt x="-708" y="-413" on="1"/>
        <pt x="-670" y="-403" on="1"/>
        <pt x="-663" y="-424" on="0"/>
        <pt x="-663" y="-425" on="1"/>
        <pt x="-644" y="-477" on="0"/>
        <pt x="-597" y="-519" on="1"/>
        <pt x="-536" y="-573" on="0"/>
        <pt x="-458" y="-573" on="1"/>
        <pt x="-362" y="-573" on="0"/>
        <pt x="-308" y="-530" on="1"/>
        <pt x="-259" y="-490" on="0"/>
        <pt x="-253" y="-423" on="1"/>
        <pt x="-249" y="-381" on="0"/>
        <pt x="-271" y="-371" on="1"/>
        <pt x="-283" y="-367" on="0"/>
        <pt x="-306" y="-367" on="1"/>
        <pt x="-341" y="-367" on="1"/>
        <pt x="-341" y="-401" on="1"/>
        <pt x="-341" y="-456" on="0"/>
        <pt x="-388" y="-482" on="1"/>
        <pt x="-422" y="-500" on="0"/>
        <pt x="-471" y="-500" on="1"/>
        <pt x="-484" y="-500" on="0"/>
        <pt x="-495" y="-499" on="1"/>
        <pt x="-536" y="-493" on="0"/>
        <pt x="-590" y="-438" on="0"/>
        <pt x="-590" y="-400" on="1"/>
        <pt x="-590" y="-372" on="0"/>
        <pt x="-554" y="-339" on="0"/>
        <pt x="-524" y="-339" on="1"/>
        <pt x="-501" y="-339" on="1"/>
        <pt x="-501" y="-211" on="1"/>
        <pt x="-243" y="-211" on="1"/>
        <pt x="-243" y="-241" on="1"/>
        <pt x="-341" y="-241" on="1"/>
        <pt x="-341" y="-339" on="1"/>
      </contour>
      <contour>
        <pt x="-397" y="-339" on="1"/>
        <pt x="-397" y="-241" on="1"/>
        <pt x="-469" y="-241" on="1"/>
        <pt x="-469" y="-339" on="1"/>
      </contour>
      <contour>
        <pt x="-397" y="-396" on="1"/>
        <pt x="-397" y="-365" on="1"/>
        <pt x="-517" y="-365" on="1"/>
        <pt x="-559" y="-365" on="0"/>
        <pt x="-559" y="-399" on="1"/>
        <pt x="-559" y="-434" on="0"/>
        <pt x="-515" y="-472" on="0"/>
        <pt x="-483" y="-472" on="1"/>
        <pt x="-449" y="-472" on="0"/>
        <pt x="-397" y="-431" on="0"/>
      </contour>
    </TTGlyph>
    <TTGlyph name="Icircumflex" xMin="43" yMin="-11" xMax="1137" yMax="642">
      <contour>
        <pt x="1137" y="-11" on="1"/>
        <pt x="1105" y="-11" on="1"/>
        <pt x="1105" y="291" on="1"/>
        <pt x="1105" y="388" on="0"/>
        <pt x="1051" y="465" on="1"/>
        <pt x="988" y="557" on="0"/>
        <pt x="877" y="570" on="1"/>
        <pt x="865" y="571" on="0"/>
        <pt x="855" y="571" on="1"/>
        <pt x="764" y="571" on="0"/>
        <pt x="705" y="489" on="1"/>
        <pt x="649" y="412" on="0"/>
        <pt x="649" y="306" on="1"/>
        <pt x="649" y="268" on="0"/>
        <pt x="657" y="232" on="1"/>
        <pt x="669" y="181" on="0"/>
        <pt x="685" y="150" on="1"/>
        <pt x="698" y="124" on="0"/>
        <pt x="727" y="89" on="1"/>
        <pt x="751" y="60" on="0"/>
        <pt x="793" y="43" on="1"/>
        <pt x="831" y="28" on="0"/>
        <pt x="865" y="28" on="1"/>
        <pt x="876" y="28" on="0"/>
        <pt x="884" y="29" on="1"/>
        <pt x="848" y="60" on="0"/>
        <pt x="834" y="91" on="1"/>
        <pt x="818" y="129" on="0"/>
        <pt x="818" y="166" on="1"/>
        <pt x="819" y="225" on="0"/>
        <pt x="847" y="258" on="1"/>
        <pt x="873" y="289" on="0"/>
        <pt x="911" y="289" on="1"/>
        <pt x="949" y="289" on="0"/>
        <pt x="977" y="258" on="1"/>
        <pt x="1009" y="224" on="0"/>
        <pt x="1013" y="166" on="1"/>
        <pt x="1019" y="93" on="0"/>
        <pt x="935" y="-11" on="0"/>
        <pt x="875" y="-11" on="1"/>
        <pt x="772" y="-11" on="0"/>
        <pt x="701" y="69" on="1"/>
        <pt x="633" y="146" on="0"/>
        <pt x="616" y="270" on="1"/>
        <pt x="612" y="299" on="0"/>
        <pt x="612" y="328" on="1"/>
        <pt x="612" y="456" on="0"/>
        <pt x="754" y="642" on="0"/>
        <pt x="861" y="642" on="1"/>
        <pt x="882" y="642" on="0"/>
        <pt x="903" y="638" on="1"/>
        <pt x="998" y="620" on="0"/>
        <pt x="1067" y="530" on="1"/>
        <pt x="1137" y="437" on="0"/>
        <pt x="1137" y="319" on="1"/>
      </contour>
      <contour>
        <pt x="569" y="-11" on="1"/>
        <pt x="536" y="-11" on="1"/>
        <pt x="536" y="291" on="1"/>
        <pt x="536" y="388" on="0"/>
        <pt x="482" y="465" on="1"/>
        <pt x="419" y="557" on="0"/>
        <pt x="308" y="570" on="1"/>
        <pt x="297" y="571" on="0"/>
        <pt x="286" y="571" on="1"/>
        <pt x="195" y="571" on="0"/>
        <pt x="136" y="489" on="1"/>
        <pt x="81" y="412" on="0"/>
        <pt x="81" y="306" on="1"/>
        <pt x="81" y="268" on="0"/>
        <pt x="89" y="232" on="1"/>
        <pt x="101" y="181" on="0"/>
        <pt x="116" y="150" on="1"/>
        <pt x="129" y="124" on="0"/>
        <pt x="158" y="89" on="1"/>
        <pt x="182" y="60" on="0"/>
        <pt x="225" y="43" on="1"/>
        <pt x="262" y="28" on="0"/>
        <pt x="297" y="28" on="1"/>
        <pt x="307" y="28" on="0"/>
        <pt x="315" y="29" on="1"/>
        <pt x="279" y="60" on="0"/>
        <pt x="265" y="91" on="1"/>
        <pt x="249" y="129" on="0"/>
        <pt x="249" y="166" on="1"/>
        <pt x="250" y="225" on="0"/>
        <pt x="278" y="258" on="1"/>
        <pt x="304" y="289" on="0"/>
        <pt x="342" y="289" on="1"/>
        <pt x="380" y="289" on="0"/>
        <pt x="409" y="258" on="1"/>
        <pt x="440" y="224" on="0"/>
        <pt x="445" y="166" on="1"/>
        <pt x="450" y="93" on="0"/>
        <pt x="366" y="-11" on="0"/>
        <pt x="306" y="-11" on="1"/>
        <pt x="203" y="-11" on="0"/>
        <pt x="133" y="69" on="1"/>
        <pt x="65" y="146" on="0"/>
        <pt x="47" y="270" on="1"/>
        <pt x="43" y="299" on="0"/>
        <pt x="43" y="328" on="1"/>
        <pt x="43" y="456" on="0"/>
        <pt x="185" y="642" on="0"/>
        <pt x="293" y="642" on="1"/>
        <pt x="313" y="642" on="0"/>
        <pt x="334" y="638" on="1"/>
        <pt x="429" y="620" on="0"/>
        <pt x="498" y="530" on="1"/>
        <pt x="569" y="437" on="0"/>
        <pt x="569" y="319" on="1"/>
      </contour>
      <contour>
        <pt x="956" y="115" on="0"/>
        <pt x="956" y="148" on="1"/>
        <pt x="956" y="201" on="0"/>
        <pt x="928" y="224" on="1"/>
        <pt x="916" y="234" on="0"/>
        <pt x="901" y="234" on="1"/>
        <pt x="884" y="234" on="0"/>
        <pt x="854" y="207" on="0"/>
        <pt x="851" y="187" on="1"/>
        <pt x="849" y="175" on="0"/>
        <pt x="849" y="163" on="1"/>
        <pt x="849" y="124" on="0"/>
        <pt x="885" y="58" on="0"/>
        <pt x="913" y="41" on="1"/>
        <pt x="931" y="58" on="0"/>
      </contour>
      <contour>
        <pt x="387" y="115" on="0"/>
        <pt x="387" y="148" on="1"/>
        <pt x="387" y="201" on="0"/>
        <pt x="359" y="224" on="1"/>
        <pt x="347" y="234" on="0"/>
        <pt x="333" y="234" on="1"/>
        <pt x="315" y="234" on="0"/>
        <pt x="285" y="207" on="0"/>
        <pt x="282" y="187" on="1"/>
        <pt x="281" y="175" on="0"/>
        <pt x="281" y="163" on="1"/>
        <pt x="281" y="124" on="0"/>
        <pt x="316" y="58" on="0"/>
        <pt x="345" y="41" on="1"/>
        <pt x="362" y="58" on="0"/>
      </contour>
    </TTGlyph>
    <TTGlyph name="Idieresis" xMin="30" yMin="-1" xMax="778" yMax="419">
      <contour>
        <pt x="778" y="380" on="1"/>
        <pt x="669" y="380" on="1"/>
        <pt x="669" y="0" on="1"/>
        <pt x="595" y="0" on="1"/>
        <pt x="595" y="380" on="1"/>
        <pt x="463" y="380" on="1"/>
        <pt x="463" y="-1" on="1"/>
        <pt x="384" y="-1" on="1"/>
        <pt x="384" y="142" on="1"/>
        <pt x="384" y="250" on="0"/>
        <pt x="301" y="386" on="0"/>
        <pt x="229" y="386" on="1"/>
        <pt x="152" y="386" on="0"/>
        <pt x="108" y="328" on="1"/>
        <pt x="68" y="274" on="0"/>
        <pt x="63" y="181" on="1"/>
        <pt x="98" y="239" on="0"/>
        <pt x="164" y="239" on="1"/>
        <pt x="209" y="239" on="0"/>
        <pt x="280" y="179" on="0"/>
        <pt x="280" y="129" on="1"/>
        <pt x="280" y="61" on="0"/>
        <pt x="240" y="29" on="1"/>
        <pt x="206" y="1" on="0"/>
        <pt x="156" y="1" on="1"/>
        <pt x="147" y="1" on="0"/>
        <pt x="137" y="2" on="1"/>
        <pt x="92" y="7" on="0"/>
        <pt x="31" y="98" on="0"/>
        <pt x="30" y="168" on="1"/>
        <pt x="30" y="176" on="1"/>
        <pt x="30" y="282" on="0"/>
        <pt x="84" y="350" on="1"/>
        <pt x="139" y="419" on="0"/>
        <pt x="234" y="419" on="1"/>
        <pt x="360" y="419" on="0"/>
        <pt x="419" y="313" on="1"/>
        <pt x="420" y="411" on="1"/>
        <pt x="778" y="411" on="1"/>
      </contour>
      <contour>
        <pt x="208" y="116" on="1"/>
        <pt x="208" y="158" on="0"/>
        <pt x="171" y="205" on="0"/>
        <pt x="143" y="205" on="1"/>
        <pt x="111" y="205" on="0"/>
        <pt x="94" y="179" on="1"/>
        <pt x="78" y="157" on="0"/>
        <pt x="78" y="123" on="1"/>
        <pt x="78" y="87" on="0"/>
        <pt x="94" y="63" on="1"/>
        <pt x="113" y="35" on="0"/>
        <pt x="147" y="33" on="1"/>
        <pt x="176" y="31" on="0"/>
        <pt x="208" y="80" on="0"/>
      </contour>
    </TTGlyph>
    <TTGlyph name="Idotaccent" xMin="30" yMin="-562" xMax="534" yMax="414">
      <contour>
        <pt x="534" y="0" on="1"/>
        <pt x="345" y="0" on="1"/>
        <pt x="345" y="-100" on="1"/>
        <pt x="306" y="-100" on="1"/>
        <pt x="306" y="0" on="1"/>
        <pt x="136" y="0" on="1"/>
        <pt x="30" y="0" on="0"/>
        <pt x="30" y="67" on="1"/>
        <pt x="30" y="97" on="0"/>
        <pt x="82" y="131" on="0"/>
        <pt x="121" y="131" on="1"/>
        <pt x="292" y="131" on="1"/>
        <pt x="345" y="131" on="0"/>
        <pt x="405" y="197" on="0"/>
        <pt x="405" y="258" on="1"/>
        <pt x="405" y="320" on="0"/>
        <pt x="361" y="355" on="1"/>
        <pt x="330" y="379" on="0"/>
        <pt x="253" y="387" on="0"/>
        <pt x="208" y="384" on="1"/>
        <pt x="233" y="384" on="0"/>
        <pt x="274" y="325" on="0"/>
        <pt x="274" y="288" on="1"/>
        <pt x="274" y="244" on="0"/>
        <pt x="201" y="191" on="0"/>
        <pt x="151" y="191" on="1"/>
        <pt x="105" y="191" on="0"/>
        <pt x="45" y="243" on="0"/>
        <pt x="45" y="289" on="1"/>
        <pt x="45" y="333" on="0"/>
        <pt x="80" y="366" on="1"/>
        <pt x="112" y="396" on="0"/>
        <pt x="158" y="405" on="1"/>
        <pt x="208" y="414" on="0"/>
        <pt x="258" y="414" on="1"/>
        <pt x="358" y="414" on="0"/>
        <pt x="421" y="379" on="1"/>
        <pt x="494" y="338" on="0"/>
        <pt x="494" y="258" on="1"/>
        <pt x="494" y="98" on="0"/>
        <pt x="301" y="98" on="1"/>
        <pt x="146" y="98" on="1"/>
        <pt x="106" y="98" on="0"/>
        <pt x="106" y="64" on="1"/>
        <pt x="106" y="31" on="0"/>
        <pt x="148" y="31" on="1"/>
        <pt x="534" y="31" on="1"/>
      </contour>
      <contour>
        <pt x="196" y="286" on="1"/>
        <pt x="196" y="315" on="0"/>
        <pt x="184" y="337" on="1"/>
        <pt x="168" y="364" on="0"/>
        <pt x="137" y="364" on="1"/>
        <pt x="112" y="364" on="0"/>
        <pt x="76" y="316" on="0"/>
        <pt x="76" y="287" on="1"/>
        <pt x="76" y="259" on="0"/>
        <pt x="111" y="218" on="0"/>
        <pt x="133" y="218" on="1"/>
        <pt x="162" y="218" on="0"/>
        <pt x="196" y="257" on="0"/>
      </contour>
      <contour>
        <pt x="491" y="-480" on="1"/>
        <pt x="349" y="-480" on="1"/>
        <pt x="349" y="-562" on="1"/>
        <pt x="319" y="-562" on="1"/>
        <pt x="320" y="-480" on="1"/>
        <pt x="192" y="-480" on="1"/>
        <pt x="113" y="-480" on="0"/>
        <pt x="113" y="-430" on="1"/>
        <pt x="113" y="-407" on="0"/>
        <pt x="152" y="-382" on="0"/>
        <pt x="181" y="-382" on="1"/>
        <pt x="309" y="-382" on="1"/>
        <pt x="349" y="-382" on="0"/>
        <pt x="394" y="-332" on="0"/>
        <pt x="394" y="-286" on="1"/>
        <pt x="394" y="-240" on="0"/>
        <pt x="361" y="-214" on="1"/>
        <pt x="338" y="-196" on="0"/>
        <pt x="280" y="-190" on="0"/>
        <pt x="246" y="-192" on="1"/>
        <pt x="265" y="-192" on="0"/>
        <pt x="296" y="-236" on="0"/>
        <pt x="296" y="-264" on="1"/>
        <pt x="296" y="-297" on="0"/>
        <pt x="241" y="-337" on="0"/>
        <pt x="203" y="-337" on="1"/>
        <pt x="169" y="-337" on="0"/>
        <pt x="124" y="-298" on="0"/>
        <pt x="124" y="-263" on="1"/>
        <pt x="124" y="-230" on="0"/>
        <pt x="150" y="-205" on="1"/>
        <pt x="174" y="-183" on="0"/>
        <pt x="209" y="-176" on="1"/>
        <pt x="246" y="-169" on="0"/>
        <pt x="284" y="-169" on="1"/>
        <pt x="359" y="-169" on="0"/>
        <pt x="406" y="-196" on="1"/>
        <pt x="461" y="-226" on="0"/>
        <pt x="461" y="-286" on="1"/>
        <pt x="461" y="-406" on="0"/>
        <pt x="316" y="-406" on="1"/>
        <pt x="200" y="-406" on="1"/>
        <pt x="170" y="-406" on="0"/>
        <pt x="170" y="-432" on="1"/>
        <pt x="170" y="-457" on="0"/>
        <pt x="201" y="-457" on="1"/>
        <pt x="491" y="-457" on="1"/>
      </contour>
      <contour>
        <pt x="237" y="-265" on="1"/>
        <pt x="237" y="-244" on="0"/>
        <pt x="228" y="-227" on="1"/>
        <pt x="216" y="-207" on="0"/>
        <pt x="193" y="-207" on="1"/>
        <pt x="174" y="-207" on="0"/>
        <pt x="147" y="-243" on="0"/>
        <pt x="147" y="-265" on="1"/>
        <pt x="147" y="-286" on="0"/>
        <pt x="173" y="-316" on="0"/>
        <pt x="190" y="-316" on="1"/>
        <pt x="212" y="-316" on="0"/>
        <pt x="237" y="-287" on="0"/>
      </contour>
    </TTGlyph>
    <TTGlyph name="Igrave" xMin="35" yMin="-11" xMax="1105" yMax="419">
      <contour>
        <pt x="1105" y="377" on="1"/>
        <pt x="949" y="377" on="1"/>
        <pt x="949" y="193" on="1"/>
        <pt x="949" y="93" on="0"/>
        <pt x="918" y="45" on="1"/>
        <pt x="882" y="-11" on="0"/>
        <pt x="797" y="-11" on="1"/>
        <pt x="707" y="-11" on="0"/>
        <pt x="667" y="40" on="1"/>
        <pt x="633" y="85" on="0"/>
        <pt x="633" y="177" on="1"/>
        <pt x="633" y="376" on="1"/>
        <pt x="468" y="376" on="1"/>
        <pt x="468" y="181" on="1"/>
        <pt x="469" y="94" on="0"/>
        <pt x="469" y="-4" on="1"/>
        <pt x="389" y="-4" on="1"/>
        <pt x="390" y="172" on="1"/>
        <pt x="391" y="272" on="0"/>
        <pt x="345" y="332" on="1"/>
        <pt x="303" y="386" on="0"/>
        <pt x="242" y="386" on="1"/>
        <pt x="164" y="386" on="0"/>
        <pt x="70" y="273" on="0"/>
        <pt x="65" y="181" on="1"/>
        <pt x="100" y="239" on="0"/>
        <pt x="166" y="239" on="1"/>
        <pt x="211" y="239" on="0"/>
        <pt x="282" y="179" on="0"/>
        <pt x="282" y="129" on="1"/>
        <pt x="282" y="61" on="0"/>
        <pt x="205" y="-4" on="0"/>
        <pt x="142" y="2" on="1"/>
        <pt x="97" y="7" on="0"/>
        <pt x="36" y="98" on="0"/>
        <pt x="35" y="168" on="1"/>
        <pt x="35" y="175" on="1"/>
        <pt x="35" y="281" on="0"/>
        <pt x="92" y="349" on="1"/>
        <pt x="151" y="419" on="0"/>
        <pt x="247" y="419" on="1"/>
        <pt x="372" y="419" on="0"/>
        <pt x="430" y="329" on="1"/>
        <pt x="430" y="410" on="1"/>
        <pt x="885" y="410" on="1"/>
        <pt x="885" y="413" on="1"/>
        <pt x="1105" y="413" on="1"/>
      </contour>
      <contour>
        <pt x="917" y="188" on="1"/>
        <pt x="917" y="376" on="1"/>
        <pt x="716" y="376" on="1"/>
        <pt x="716" y="179" on="1"/>
        <pt x="716" y="43" on="0"/>
        <pt x="816" y="44" on="1"/>
        <pt x="878" y="45" on="0"/>
        <pt x="901" y="92" on="1"/>
        <pt x="917" y="123" on="0"/>
      </contour>
      <contour>
        <pt x="210" y="116" on="1"/>
        <pt x="210" y="158" on="0"/>
        <pt x="173" y="205" on="0"/>
        <pt x="145" y="205" on="1"/>
        <pt x="113" y="205" on="0"/>
        <pt x="96" y="179" on="1"/>
        <pt x="80" y="157" on="0"/>
        <pt x="80" y="123" on="1"/>
        <pt x="80" y="87" on="0"/>
        <pt x="96" y="63" on="1"/>
        <pt x="115" y="35" on="0"/>
        <pt x="149" y="33" on="1"/>
        <pt x="178" y="31" on="0"/>
        <pt x="210" y="80" on="0"/>
      </contour>
    </TTGlyph>
    <TTGlyph name="Imacron" xMin="52" yMin="-553" xMax="787" yMax="411">
      <contour>
        <pt x="787" y="92" on="1"/>
        <pt x="787" y="30" on="0"/>
        <pt x="748" y="-38" on="0"/>
        <pt x="699" y="-64" on="1"/>
        <pt x="632" y="-100" on="0"/>
        <pt x="552" y="-100" on="1"/>
        <pt x="52" y="-100" on="1"/>
        <pt x="52" y="-69" on="1"/>
        <pt x="556" y="-69" on="1"/>
        <pt x="641" y="-69" on="0"/>
        <pt x="684" y="-8" on="1"/>
        <pt x="712" y="32" on="0"/>
        <pt x="712" y="91" on="1"/>
        <pt x="712" y="123" on="0"/>
        <pt x="696" y="152" on="1"/>
        <pt x="675" y="190" on="0"/>
        <pt x="637" y="190" on="1"/>
        <pt x="584" y="190" on="1"/>
        <pt x="584" y="135" on="1"/>
        <pt x="584" y="59" on="0"/>
        <pt x="521" y="24" on="1"/>
        <pt x="474" y="-2" on="0"/>
        <pt x="405" y="-2" on="1"/>
        <pt x="385" y="-2" on="0"/>
        <pt x="369" y="0" on="1"/>
        <pt x="312" y="8" on="0"/>
        <pt x="243" y="83" on="0"/>
        <pt x="243" y="138" on="1"/>
        <pt x="243" y="176" on="0"/>
        <pt x="299" y="221" on="0"/>
        <pt x="341" y="221" on="1"/>
        <pt x="367" y="221" on="1"/>
        <pt x="367" y="411" on="1"/>
        <pt x="724" y="411" on="1"/>
        <pt x="724" y="380" on="1"/>
        <pt x="584" y="380" on="1"/>
        <pt x="584" y="221" on="1"/>
        <pt x="647" y="221" on="1"/>
        <pt x="709" y="221" on="0"/>
        <pt x="787" y="144" on="0"/>
      </contour>
      <contour>
        <pt x="509" y="221" on="1"/>
        <pt x="509" y="380" on="1"/>
        <pt x="402" y="380" on="1"/>
        <pt x="402" y="221" on="1"/>
      </contour>
      <contour>
        <pt x="509" y="142" on="1"/>
        <pt x="509" y="190" on="1"/>
        <pt x="335" y="190" on="1"/>
        <pt x="273" y="190" on="0"/>
        <pt x="273" y="138" on="1"/>
        <pt x="273" y="106" on="0"/>
        <pt x="289" y="79" on="1"/>
        <pt x="311" y="43" on="0"/>
        <pt x="358" y="34" on="1"/>
        <pt x="372" y="31" on="0"/>
        <pt x="386" y="31" on="1"/>
        <pt x="436" y="31" on="0"/>
        <pt x="509" y="92" on="0"/>
      </contour>
      <contour>
        <pt x="595" y="-449" on="1"/>
        <pt x="589" y="-485" on="0"/>
        <pt x="542" y="-517" on="1"/>
        <pt x="487" y="-553" on="0"/>
        <pt x="415" y="-553" on="1"/>
        <pt x="277" y="-553" on="0"/>
        <pt x="277" y="-473" on="1"/>
        <pt x="277" y="-436" on="0"/>
        <pt x="331" y="-389" on="0"/>
        <pt x="403" y="-368" on="1"/>
        <pt x="454" y="-352" on="0"/>
        <pt x="498" y="-315" on="0"/>
        <pt x="497" y="-286" on="1"/>
        <pt x="496" y="-259" on="0"/>
        <pt x="448" y="-223" on="0"/>
        <pt x="408" y="-223" on="1"/>
        <pt x="399" y="-223" on="0"/>
        <pt x="389" y="-224" on="1"/>
        <pt x="363" y="-227" on="0"/>
        <pt x="343" y="-241" on="1"/>
        <pt x="319" y="-257" on="0"/>
        <pt x="319" y="-282" on="1"/>
        <pt x="319" y="-297" on="0"/>
        <pt x="330" y="-308" on="1"/>
        <pt x="341" y="-321" on="0"/>
        <pt x="359" y="-319" on="1"/>
        <pt x="391" y="-316" on="0"/>
        <pt x="390" y="-281" on="1"/>
        <pt x="389" y="-258" on="0"/>
        <pt x="375" y="-242" on="1"/>
        <pt x="388" y="-243" on="0"/>
        <pt x="416" y="-253" on="1"/>
        <pt x="435" y="-265" on="0"/>
        <pt x="435" y="-290" on="1"/>
        <pt x="435" y="-310" on="0"/>
        <pt x="422" y="-321" on="1"/>
        <pt x="390" y="-344" on="0"/>
        <pt x="351" y="-344" on="1"/>
        <pt x="339" y="-344" on="0"/>
        <pt x="330" y="-341" on="1"/>
        <pt x="314" y="-335" on="0"/>
        <pt x="291" y="-301" on="0"/>
        <pt x="290" y="-286" on="1"/>
        <pt x="287" y="-210" on="0"/>
        <pt x="397" y="-199" on="1"/>
        <pt x="409" y="-198" on="0"/>
        <pt x="420" y="-198" on="1"/>
        <pt x="475" y="-198" on="0"/>
        <pt x="547" y="-246" on="0"/>
        <pt x="551" y="-288" on="1"/>
        <pt x="556" y="-333" on="0"/>
        <pt x="518" y="-369" on="1"/>
        <pt x="487" y="-398" on="0"/>
        <pt x="437" y="-413" on="1"/>
        <pt x="328" y="-445" on="0"/>
        <pt x="331" y="-476" on="1"/>
        <pt x="335" y="-523" on="0"/>
        <pt x="422" y="-522" on="1"/>
        <pt x="457" y="-522" on="0"/>
        <pt x="482" y="-508" on="1"/>
        <pt x="516" y="-489" on="0"/>
        <pt x="520" y="-446" on="1"/>
        <pt x="530" y="-409" on="0"/>
        <pt x="561" y="-411" on="1"/>
        <pt x="595" y="-413" on="0"/>
        <pt x="595" y="-448" on="1"/>
      </contour>
    </TTGlyph>
    <TTGlyph name="Iogonek" xMin="-809" yMin="-451" xMax="-84" yMax="-179">
      <contour>
        <pt x="-337" y="-450" on="1"/>
        <pt x="-336" y="-423" on="1"/>
        <pt x="-315" y="-406" on="0"/>
        <pt x="-307" y="-392" on="1"/>
        <pt x="-296" y="-374" on="0"/>
        <pt x="-300" y="-337" on="1"/>
        <pt x="-302" y="-316" on="0"/>
        <pt x="-317" y="-296" on="1"/>
        <pt x="-338" y="-269" on="0"/>
        <pt x="-372" y="-266" on="1"/>
        <pt x="-425" y="-262" on="0"/>
        <pt x="-444" y="-306" on="1"/>
        <pt x="-371" y="-321" on="0"/>
        <pt x="-363" y="-383" on="1"/>
        <pt x="-359" y="-412" on="0"/>
        <pt x="-394" y="-451" on="0"/>
        <pt x="-420" y="-451" on="1"/>
        <pt x="-448" y="-451" on="0"/>
        <pt x="-492" y="-400" on="0"/>
        <pt x="-492" y="-363" on="1"/>
        <pt x="-492" y="-343" on="0"/>
        <pt x="-486" y="-325" on="1"/>
        <pt x="-566" y="-325" on="1"/>
        <pt x="-566" y="-359" on="1"/>
        <pt x="-566" y="-407" on="0"/>
        <pt x="-611" y="-430" on="1"/>
        <pt x="-644" y="-447" on="0"/>
        <pt x="-693" y="-447" on="1"/>
        <pt x="-707" y="-447" on="0"/>
        <pt x="-719" y="-445" on="1"/>
        <pt x="-760" y="-440" on="0"/>
        <pt x="-809" y="-391" on="0"/>
        <pt x="-809" y="-356" on="1"/>
        <pt x="-809" y="-332" on="0"/>
        <pt x="-768" y="-302" on="0"/>
        <pt x="-738" y="-302" on="1"/>
        <pt x="-722" y="-302" on="1"/>
        <pt x="-722" y="-179" on="1"/>
        <pt x="-468" y="-179" on="1"/>
        <pt x="-468" y="-206" on="1"/>
        <pt x="-566" y="-206" on="1"/>
        <pt x="-566" y="-302" on="1"/>
        <pt x="-481" y="-302" on="1"/>
        <pt x="-474" y="-281" on="0"/>
        <pt x="-445" y="-262" on="1"/>
        <pt x="-406" y="-235" on="0"/>
        <pt x="-354" y="-237" on="1"/>
        <pt x="-306" y="-240" on="0"/>
        <pt x="-273" y="-272" on="1"/>
        <pt x="-243" y="-303" on="0"/>
        <pt x="-244" y="-339" on="1"/>
        <pt x="-246" y="-399" on="0"/>
        <pt x="-288" y="-422" on="1"/>
        <pt x="-142" y="-422" on="1"/>
        <pt x="-142" y="-183" on="1"/>
        <pt x="-84" y="-183" on="1"/>
        <pt x="-84" y="-450" on="1"/>
      </contour>
      <contour>
        <pt x="-452" y="-334" on="1"/>
        <pt x="-465" y="-346" on="0"/>
        <pt x="-456" y="-384" on="1"/>
        <pt x="-447" y="-422" on="0"/>
        <pt x="-415" y="-422" on="1"/>
        <pt x="-392" y="-422" on="0"/>
        <pt x="-392" y="-391" on="1"/>
        <pt x="-392" y="-380" on="0"/>
        <pt x="-397" y="-369" on="1"/>
        <pt x="-405" y="-347" on="0"/>
        <pt x="-428" y="-338" on="1"/>
        <pt x="-442" y="-333" on="0"/>
      </contour>
      <contour>
        <pt x="-623" y="-206" on="1"/>
        <pt x="-694" y="-206" on="1"/>
        <pt x="-694" y="-302" on="1"/>
        <pt x="-623" y="-302" on="1"/>
      </contour>
      <contour>
        <pt x="-623" y="-325" on="1"/>
        <pt x="-743" y="-325" on="1"/>
        <pt x="-784" y="-325" on="0"/>
        <pt x="-784" y="-356" on="1"/>
        <pt x="-784" y="-376" on="0"/>
        <pt x="-772" y="-393" on="1"/>
        <pt x="-755" y="-415" on="0"/>
        <pt x="-723" y="-421" on="1"/>
        <pt x="-714" y="-423" on="0"/>
        <pt x="-704" y="-423" on="1"/>
        <pt x="-670" y="-423" on="0"/>
        <pt x="-623" y="-385" on="0"/>
        <pt x="-623" y="-354" on="1"/>
      </contour>
    </TTGlyph>
    <TTGlyph name="K" xMin="37" yMin="-6" xMax="845" yMax="411">
      <contour>
        <pt x="257" y="378" on="1"/>
        <pt x="169" y="378" on="0"/>
        <pt x="72" y="269" on="0"/>
        <pt x="68" y="177" on="1"/>
        <pt x="100" y="233" on="0"/>
        <pt x="170" y="232" on="1"/>
        <pt x="214" y="232" on="0"/>
        <pt x="284" y="161" on="0"/>
        <pt x="284" y="112" on="1"/>
        <pt x="284" y="56" on="0"/>
        <pt x="223" y="-6" on="0"/>
        <pt x="176" y="-6" on="1"/>
        <pt x="156" y="-6" on="0"/>
        <pt x="135" y="0" on="1"/>
        <pt x="106" y="8" on="0"/>
        <pt x="81" y="36" on="1"/>
        <pt x="37" y="83" on="0"/>
        <pt x="37" y="164" on="1"/>
        <pt x="37" y="291" on="0"/>
        <pt x="114" y="358" on="1"/>
        <pt x="174" y="411" on="0"/>
        <pt x="256" y="411" on="1"/>
        <pt x="413" y="411" on="1"/>
        <pt x="658" y="411" on="0"/>
        <pt x="657" y="238" on="1"/>
        <pt x="657" y="179" on="0"/>
        <pt x="621" y="134" on="1"/>
        <pt x="582" y="85" on="0"/>
        <pt x="525" y="85" on="1"/>
        <pt x="425" y="85" on="1"/>
        <pt x="378" y="85" on="0"/>
        <pt x="378" y="59" on="1"/>
        <pt x="378" y="39" on="0"/>
        <pt x="399" y="33" on="1"/>
        <pt x="409" y="31" on="0"/>
        <pt x="444" y="31" on="1"/>
        <pt x="770" y="31" on="1"/>
        <pt x="770" y="411" on="1"/>
        <pt x="845" y="411" on="1"/>
        <pt x="845" y="0" on="1"/>
        <pt x="444" y="0" on="1"/>
        <pt x="395" y="-2" on="0"/>
        <pt x="375" y="5" on="1"/>
        <pt x="336" y="17" on="0"/>
        <pt x="336" y="59" on="1"/>
        <pt x="336" y="117" on="0"/>
        <pt x="404" y="119" on="1"/>
        <pt x="436" y="121" on="0"/>
        <pt x="463" y="121" on="1"/>
        <pt x="473" y="121" on="1"/>
        <pt x="519" y="123" on="0"/>
        <pt x="545" y="156" on="1"/>
        <pt x="568" y="186" on="0"/>
        <pt x="568" y="229" on="1"/>
        <pt x="568" y="308" on="0"/>
        <pt x="516" y="346" on="1"/>
        <pt x="473" y="378" on="0"/>
        <pt x="403" y="378" on="1"/>
      </contour>
      <contour>
        <pt x="138" y="196" on="1"/>
        <pt x="114" y="192" on="0"/>
        <pt x="84" y="149" on="0"/>
        <pt x="84" y="120" on="1"/>
        <pt x="84" y="84" on="0"/>
        <pt x="107" y="56" on="1"/>
        <pt x="132" y="24" on="0"/>
        <pt x="167" y="30" on="1"/>
        <pt x="191" y="34" on="0"/>
        <pt x="221" y="78" on="0"/>
        <pt x="221" y="107" on="1"/>
        <pt x="221" y="143" on="0"/>
        <pt x="173" y="202" on="0"/>
      </contour>
    </TTGlyph>
    <TTGlyph name="Lacute" xMin="52" yMin="-206" xMax="573" yMax="411">
      <contour>
        <pt x="572" y="182" on="1"/>
        <pt x="573" y="169" on="0"/>
        <pt x="573" y="157" on="1"/>
        <pt x="573" y="29" on="0"/>
        <pt x="478" y="3" on="1"/>
        <pt x="397" y="-33" on="0"/>
        <pt x="283" y="-33" on="1"/>
        <pt x="210" y="-33" on="0"/>
        <pt x="157" y="-35" on="1"/>
        <pt x="121" y="-36" on="0"/>
        <pt x="121" y="-64" on="1"/>
        <pt x="121" y="-97" on="0"/>
        <pt x="159" y="-97" on="1"/>
        <pt x="528" y="-97" on="1"/>
        <pt x="528" y="-128" on="1"/>
        <pt x="329" y="-128" on="1"/>
        <pt x="329" y="-206" on="1"/>
        <pt x="286" y="-206" on="1"/>
        <pt x="286" y="-128" on="1"/>
        <pt x="148" y="-128" on="1"/>
        <pt x="52" y="-128" on="0"/>
        <pt x="52" y="-61" on="1"/>
        <pt x="52" y="-31" on="0"/>
        <pt x="77" y="-13" on="1"/>
        <pt x="99" y="2" on="0"/>
        <pt x="135" y="2" on="1"/>
        <pt x="267" y="2" on="1"/>
        <pt x="402" y="2" on="0"/>
        <pt x="451" y="66" on="1"/>
        <pt x="489" y="115" on="0"/>
        <pt x="483" y="175" on="1"/>
        <pt x="477" y="236" on="0"/>
        <pt x="439" y="267" on="1"/>
        <pt x="412" y="289" on="0"/>
        <pt x="375" y="291" on="1"/>
        <pt x="334" y="293" on="0"/>
        <pt x="292" y="260" on="1"/>
        <pt x="291" y="100" on="1"/>
        <pt x="216" y="100" on="1"/>
        <pt x="217" y="380" on="1"/>
        <pt x="102" y="380" on="1"/>
        <pt x="101" y="95" on="1"/>
        <pt x="58" y="95" on="1"/>
        <pt x="59" y="411" on="1"/>
        <pt x="500" y="411" on="1"/>
        <pt x="500" y="380" on="1"/>
        <pt x="292" y="380" on="1"/>
        <pt x="292" y="297" on="1"/>
        <pt x="338" y="331" on="0"/>
        <pt x="408" y="327" on="1"/>
        <pt x="460" y="324" on="0"/>
        <pt x="505" y="292" on="1"/>
        <pt x="565" y="251" on="0"/>
      </contour>
    </TTGlyph>
    <TTGlyph name="Lcaron" xMin="49" yMin="-242" xMax="716" yMax="411">
      <contour>
        <pt x="716" y="120" on="1"/>
        <pt x="716" y="61" on="0"/>
        <pt x="671" y="19" on="1"/>
        <pt x="623" y="-26" on="0"/>
        <pt x="532" y="-40" on="1"/>
        <pt x="473" y="-49" on="0"/>
        <pt x="446" y="-65" on="1"/>
        <pt x="405" y="-89" on="0"/>
        <pt x="409" y="-138" on="1"/>
        <pt x="414" y="-201" on="0"/>
        <pt x="511" y="-200" on="1"/>
        <pt x="597" y="-199" on="0"/>
        <pt x="665" y="-102" on="1"/>
        <pt x="677" y="-102" on="1"/>
        <pt x="677" y="-169" on="1"/>
        <pt x="595" y="-242" on="0"/>
        <pt x="477" y="-242" on="1"/>
        <pt x="418" y="-242" on="0"/>
        <pt x="374" y="-215" on="1"/>
        <pt x="323" y="-184" on="0"/>
        <pt x="326" y="-130" on="1"/>
        <pt x="328" y="-87" on="0"/>
        <pt x="366" y="-56" on="1"/>
        <pt x="410" y="-20" on="0"/>
        <pt x="491" y="-10" on="1"/>
        <pt x="646" y="9" on="0"/>
        <pt x="635" y="138" on="1"/>
        <pt x="631" y="183" on="0"/>
        <pt x="570" y="242" on="0"/>
        <pt x="526" y="242" on="1"/>
        <pt x="514" y="242" on="0"/>
        <pt x="503" y="240" on="1"/>
        <pt x="533" y="207" on="0"/>
        <pt x="533" y="150" on="1"/>
        <pt x="533" y="107" on="0"/>
        <pt x="478" y="49" on="0"/>
        <pt x="435" y="49" on="1"/>
        <pt x="425" y="49" on="0"/>
        <pt x="415" y="51" on="1"/>
        <pt x="350" y="62" on="0"/>
        <pt x="350" y="138" on="1"/>
        <pt x="350" y="153" on="0"/>
        <pt x="354" y="168" on="1"/>
        <pt x="367" y="218" on="0"/>
        <pt x="439" y="249" on="1"/>
        <pt x="418" y="261" on="0"/>
        <pt x="386" y="261" on="1"/>
        <pt x="370" y="261" on="0"/>
        <pt x="355" y="257" on="1"/>
        <pt x="316" y="245" on="0"/>
        <pt x="274" y="181" on="0"/>
        <pt x="274" y="143" on="1"/>
        <pt x="274" y="0" on="1"/>
        <pt x="199" y="0" on="1"/>
        <pt x="202" y="309" on="0"/>
        <pt x="199" y="380" on="1"/>
        <pt x="88" y="380" on="1"/>
        <pt x="88" y="0" on="1"/>
        <pt x="49" y="0" on="1"/>
        <pt x="49" y="411" on="1"/>
        <pt x="464" y="411" on="1"/>
        <pt x="464" y="380" on="1"/>
        <pt x="274" y="380" on="1"/>
        <pt x="274" y="236" on="1"/>
        <pt x="310" y="299" on="0"/>
        <pt x="377" y="304" on="1"/>
        <pt x="442" y="309" on="0"/>
        <pt x="482" y="269" on="1"/>
        <pt x="483" y="268" on="1"/>
        <pt x="520" y="280" on="0"/>
        <pt x="555" y="280" on="1"/>
        <pt x="626" y="280" on="0"/>
        <pt x="716" y="188" on="0"/>
      </contour>
      <contour>
        <pt x="467" y="127" on="1"/>
        <pt x="472" y="143" on="0"/>
        <pt x="470" y="173" on="1"/>
        <pt x="467" y="207" on="0"/>
        <pt x="455" y="225" on="1"/>
        <pt x="435" y="214" on="0"/>
        <pt x="402" y="167" on="0"/>
        <pt x="399" y="147" on="1"/>
        <pt x="397" y="133" on="0"/>
        <pt x="397" y="121" on="1"/>
        <pt x="397" y="85" on="0"/>
        <pt x="419" y="80" on="1"/>
        <pt x="450" y="73" on="0"/>
      </contour>
    </TTGlyph>
    <TTGlyph name="Lslash" xMin="17" yMin="-230" xMax="659" yMax="412">
      <contour>
        <pt x="659" y="239" on="1"/>
        <pt x="659" y="95" on="0"/>
        <pt x="547" y="60" on="1"/>
        <pt x="588" y="-15" on="0"/>
        <pt x="588" y="-77" on="1"/>
        <pt x="588" y="-115" on="0"/>
        <pt x="572" y="-146" on="1"/>
        <pt x="550" y="-190" on="0"/>
        <pt x="504" y="-213" on="1"/>
        <pt x="469" y="-230" on="0"/>
        <pt x="432" y="-230" on="1"/>
        <pt x="351" y="-230" on="0"/>
        <pt x="302" y="-187" on="1"/>
        <pt x="250" y="-142" on="0"/>
        <pt x="250" y="-65" on="1"/>
        <pt x="250" y="9" on="0"/>
        <pt x="307" y="50" on="1"/>
        <pt x="358" y="87" on="0"/>
        <pt x="437" y="87" on="1"/>
        <pt x="482" y="87" on="1"/>
        <pt x="578" y="87" on="0"/>
        <pt x="578" y="237" on="1"/>
        <pt x="578" y="294" on="0"/>
        <pt x="557" y="333" on="1"/>
        <pt x="530" y="380" on="0"/>
        <pt x="478" y="380" on="1"/>
        <pt x="437" y="380" on="0"/>
        <pt x="386" y="313" on="0"/>
        <pt x="386" y="272" on="1"/>
        <pt x="386" y="142" on="1"/>
        <pt x="311" y="142" on="1"/>
        <pt x="311" y="266" on="1"/>
        <pt x="311" y="300" on="0"/>
        <pt x="289" y="331" on="1"/>
        <pt x="255" y="381" on="0"/>
        <pt x="178" y="380" on="1"/>
        <pt x="98" y="379" on="0"/>
        <pt x="62" y="318" on="1"/>
        <pt x="84" y="327" on="0"/>
        <pt x="107" y="327" on="1"/>
        <pt x="151" y="327" on="0"/>
        <pt x="216" y="266" on="0"/>
        <pt x="218" y="223" on="1"/>
        <pt x="220" y="171" on="0"/>
        <pt x="187" y="146" on="1"/>
        <pt x="160" y="125" on="0"/>
        <pt x="119" y="127" on="1"/>
        <pt x="71" y="129" on="0"/>
        <pt x="17" y="201" on="0"/>
        <pt x="17" y="265" on="1"/>
        <pt x="17" y="328" on="0"/>
        <pt x="122" y="412" on="0"/>
        <pt x="197" y="412" on="1"/>
        <pt x="310" y="412" on="0"/>
        <pt x="363" y="327" on="1"/>
        <pt x="377" y="363" on="0"/>
        <pt x="408" y="386" on="1"/>
        <pt x="443" y="412" on="0"/>
        <pt x="486" y="412" on="1"/>
        <pt x="569" y="412" on="0"/>
        <pt x="616" y="363" on="1"/>
        <pt x="659" y="316" on="0"/>
      </contour>
      <contour>
        <pt x="504" y="52" on="1"/>
        <pt x="495" y="51" on="0"/>
        <pt x="481" y="51" on="1"/>
        <pt x="448" y="51" on="1"/>
        <pt x="394" y="51" on="0"/>
        <pt x="334" y="-14" on="0"/>
        <pt x="334" y="-66" on="1"/>
        <pt x="334" y="-121" on="0"/>
        <pt x="391" y="-186" on="0"/>
        <pt x="439" y="-186" on="1"/>
        <pt x="483" y="-186" on="0"/>
        <pt x="545" y="-120" on="0"/>
        <pt x="545" y="-68" on="1"/>
        <pt x="545" y="-10" on="0"/>
      </contour>
      <contour>
        <pt x="85" y="301" on="1"/>
        <pt x="68" y="301" on="0"/>
        <pt x="51" y="291" on="1"/>
        <pt x="48" y="279" on="0"/>
        <pt x="48" y="267" on="1"/>
        <pt x="48" y="223" on="0"/>
        <pt x="65" y="198" on="1"/>
        <pt x="87" y="166" on="0"/>
        <pt x="120" y="167" on="1"/>
        <pt x="157" y="169" on="0"/>
        <pt x="157" y="218" on="1"/>
        <pt x="157" y="250" on="0"/>
        <pt x="117" y="301" on="0"/>
      </contour>
    </TTGlyph>
    <TTGlyph name="M" xMin="40" yMin="68" xMax="285" yMax="325">
      <contour>
        <pt x="161" y="68" on="1"/>
        <pt x="102" y="68" on="0"/>
        <pt x="68" y="114" on="1"/>
        <pt x="40" y="151" on="0"/>
        <pt x="40" y="199" on="1"/>
        <pt x="40" y="251" on="0"/>
        <pt x="104" y="325" on="0"/>
        <pt x="156" y="325" on="1"/>
        <pt x="217" y="325" on="0"/>
        <pt x="285" y="250" on="0"/>
        <pt x="285" y="195" on="1"/>
        <pt x="285" y="145" on="0"/>
        <pt x="251" y="108" on="1"/>
        <pt x="215" y="68" on="0"/>
      </contour>
      <contour>
        <pt x="146" y="282" on="1"/>
        <pt x="115" y="282" on="0"/>
        <pt x="71" y="232" on="0"/>
        <pt x="71" y="199" on="1"/>
        <pt x="71" y="164" on="0"/>
        <pt x="114" y="111" on="0"/>
        <pt x="146" y="111" on="1"/>
        <pt x="180" y="111" on="0"/>
        <pt x="225" y="161" on="0"/>
        <pt x="225" y="195" on="1"/>
        <pt x="225" y="227" on="0"/>
        <pt x="205" y="253" on="1"/>
        <pt x="182" y="282" on="0"/>
      </contour>
    </TTGlyph>
    <TTGlyph name="N" xMin="34" yMin="-2" xMax="1159" yMax="412">
      <contour>
        <pt x="1159" y="380" on="1"/>
        <pt x="1046" y="380" on="1"/>
        <pt x="1046" y="0" on="1"/>
        <pt x="971" y="0" on="1"/>
        <pt x="971" y="380" on="1"/>
        <pt x="911" y="380" on="1"/>
        <pt x="849" y="380" on="0"/>
        <pt x="826" y="369" on="1"/>
        <pt x="795" y="354" on="0"/>
        <pt x="783" y="337" on="1"/>
        <pt x="814" y="313" on="0"/>
        <pt x="839" y="267" on="1"/>
        <pt x="870" y="213" on="0"/>
        <pt x="871" y="160" on="1"/>
        <pt x="873" y="92" on="0"/>
        <pt x="846" y="50" on="1"/>
        <pt x="814" y="-2" on="0"/>
        <pt x="745" y="-2" on="1"/>
        <pt x="699" y="-2" on="0"/>
        <pt x="674" y="36" on="1"/>
        <pt x="646" y="77" on="0"/>
        <pt x="650" y="152" on="1"/>
        <pt x="652" y="197" on="0"/>
        <pt x="680" y="254" on="1"/>
        <pt x="705" y="305" on="0"/>
        <pt x="724" y="319" on="1"/>
        <pt x="674" y="377" on="0"/>
        <pt x="598" y="377" on="1"/>
        <pt x="530" y="377" on="0"/>
        <pt x="488" y="340" on="1"/>
        <pt x="520" y="319" on="0"/>
        <pt x="547" y="271" on="1"/>
        <pt x="581" y="212" on="0"/>
        <pt x="581" y="145" on="1"/>
        <pt x="581" y="78" on="0"/>
        <pt x="547" y="38" on="1"/>
        <pt x="514" y="0" on="0"/>
        <pt x="459" y="0" on="1"/>
        <pt x="451" y="0" on="1"/>
        <pt x="404" y="2" on="0"/>
        <pt x="377" y="48" on="1"/>
        <pt x="351" y="90" on="0"/>
        <pt x="353" y="149" on="1"/>
        <pt x="354" y="199" on="0"/>
        <pt x="381" y="255" on="1"/>
        <pt x="404" y="303" on="0"/>
        <pt x="424" y="320" on="1"/>
        <pt x="388" y="352" on="0"/>
        <pt x="355" y="365" on="1"/>
        <pt x="317" y="379" on="0"/>
        <pt x="260" y="378" on="1"/>
        <pt x="197" y="376" on="0"/>
        <pt x="138" y="323" on="1"/>
        <pt x="71" y="264" on="0"/>
        <pt x="67" y="181" on="1"/>
        <pt x="102" y="239" on="0"/>
        <pt x="168" y="239" on="1"/>
        <pt x="213" y="239" on="0"/>
        <pt x="284" y="179" on="0"/>
        <pt x="284" y="129" on="1"/>
        <pt x="284" y="61" on="0"/>
        <pt x="244" y="29" on="1"/>
        <pt x="210" y="1" on="0"/>
        <pt x="160" y="1" on="1"/>
        <pt x="151" y="1" on="0"/>
        <pt x="141" y="2" on="1"/>
        <pt x="96" y="7" on="0"/>
        <pt x="35" y="98" on="0"/>
        <pt x="34" y="168" on="1"/>
        <pt x="34" y="173" on="1"/>
        <pt x="34" y="275" on="0"/>
        <pt x="109" y="345" on="1"/>
        <pt x="179" y="411" on="0"/>
        <pt x="264" y="412" on="1"/>
        <pt x="279" y="412" on="1"/>
        <pt x="336" y="412" on="0"/>
        <pt x="367" y="405" on="1"/>
        <pt x="408" y="395" on="0"/>
        <pt x="464" y="362" on="1"/>
        <pt x="524" y="410" on="0"/>
        <pt x="596" y="412" on="1"/>
        <pt x="606" y="412" on="1"/>
        <pt x="695" y="412" on="0"/>
        <pt x="760" y="359" on="1"/>
        <pt x="800" y="401" on="0"/>
        <pt x="862" y="408" on="1"/>
        <pt x="884" y="411" on="0"/>
        <pt x="912" y="411" on="1"/>
        <pt x="1159" y="411" on="1"/>
      </contour>
      <contour>
        <pt x="796" y="161" on="1"/>
        <pt x="796" y="198" on="0"/>
        <pt x="778" y="239" on="1"/>
        <pt x="763" y="274" on="0"/>
        <pt x="743" y="294" on="1"/>
        <pt x="722" y="276" on="0"/>
        <pt x="702" y="226" on="1"/>
        <pt x="685" y="184" on="0"/>
        <pt x="683" y="161" on="1"/>
        <pt x="682" y="150" on="0"/>
        <pt x="682" y="138" on="1"/>
        <pt x="682" y="43" on="0"/>
        <pt x="738" y="43" on="1"/>
        <pt x="796" y="43" on="0"/>
      </contour>
      <contour>
        <pt x="507" y="149" on="1"/>
        <pt x="508" y="190" on="0"/>
        <pt x="486" y="239" on="1"/>
        <pt x="466" y="284" on="0"/>
        <pt x="446" y="298" on="1"/>
        <pt x="427" y="287" on="0"/>
        <pt x="406" y="240" on="1"/>
        <pt x="383" y="188" on="0"/>
        <pt x="384" y="146" on="1"/>
        <pt x="386" y="46" on="0"/>
        <pt x="443" y="45" on="1"/>
        <pt x="505" y="44" on="0"/>
      </contour>
      <contour>
        <pt x="212" y="116" on="1"/>
        <pt x="212" y="158" on="0"/>
        <pt x="175" y="205" on="0"/>
        <pt x="147" y="205" on="1"/>
        <pt x="115" y="205" on="0"/>
        <pt x="98" y="179" on="1"/>
        <pt x="82" y="157" on="0"/>
        <pt x="82" y="123" on="1"/>
        <pt x="82" y="87" on="0"/>
        <pt x="98" y="63" on="1"/>
        <pt x="117" y="35" on="0"/>
        <pt x="151" y="33" on="1"/>
        <pt x="180" y="31" on="0"/>
        <pt x="212" y="80" on="0"/>
      </contour>
    </TTGlyph>
    <TTGlyph name="NameMe.0" xMin="256" yMin="0" xMax="1280" yMax="994">
      <contour>
        <pt x="256" y="0" on="1"/>
        <pt x="256" y="994" on="1"/>
        <pt x="1280" y="994" on="1"/>
        <pt x="1280" y="0" on="1"/>
      </contour>
      <contour>
        <pt x="288" y="25" on="1"/>
        <pt x="1248" y="25" on="1"/>
        <pt x="1248" y="969" on="1"/>
        <pt x="288" y="969" on="1"/>
      </contour>
    </TTGlyph>
    <TTGlyph name="NameMe.4" xMin="57" yMin="-13" xMax="123" yMax="401">
      <contour>
        <pt x="96" y="100" on="1"/>
        <pt x="85" y="100" on="1"/>
        <pt x="59" y="337" on="1"/>
        <pt x="57" y="353" on="0"/>
        <pt x="57" y="360" on="1"/>
        <pt x="57" y="379" on="0"/>
        <pt x="77" y="401" on="0"/>
        <pt x="90" y="401" on="1"/>
        <pt x="104" y="401" on="0"/>
        <pt x="123" y="379" on="0"/>
        <pt x="123" y="357" on="1"/>
        <pt x="123" y="350" on="0"/>
        <pt x="122" y="337" on="1"/>
      </contour>
      <contour>
        <pt x="90" y="51" on="1"/>
        <pt x="103" y="51" on="0"/>
        <pt x="122" y="32" on="0"/>
        <pt x="122" y="19" on="1"/>
        <pt x="122" y="5" on="0"/>
        <pt x="103" y="-13" on="0"/>
        <pt x="90" y="-13" on="1"/>
        <pt x="76" y="-13" on="0"/>
        <pt x="57" y="5" on="0"/>
        <pt x="57" y="19" on="1"/>
        <pt x="57" y="32" on="0"/>
        <pt x="76" y="51" on="0"/>
      </contour>
    </TTGlyph>
    <TTGlyph name="NameMe.5" xMin="60" yMin="446" xMax="210" yMax="581">
      <contour>
        <pt x="100" y="446" on="1"/>
        <pt x="60" y="446" on="1"/>
        <pt x="60" y="581" on="1"/>
        <pt x="100" y="581" on="1"/>
      </contour>
      <contour>
        <pt x="210" y="446" on="1"/>
        <pt x="170" y="446" on="1"/>
        <pt x="170" y="581" on="1"/>
        <pt x="210" y="581" on="1"/>
      </contour>
    </TTGlyph>
    <TTGlyph name="O" xMin="31" yMin="-139" xMax="634" yMax="419">
      <contour>
        <pt x="634" y="-1" on="1"/>
        <pt x="523" y="0" on="1"/>
        <pt x="523" y="-139" on="1"/>
        <pt x="477" y="-139" on="1"/>
        <pt x="477" y="0" on="1"/>
        <pt x="413" y="0" on="1"/>
        <pt x="391" y="0" on="0"/>
        <pt x="373" y="12" on="1"/>
        <pt x="348" y="30" on="0"/>
        <pt x="348" y="65" on="1"/>
        <pt x="348" y="132" on="0"/>
        <pt x="424" y="132" on="1"/>
        <pt x="476" y="132" on="1"/>
        <pt x="538" y="132" on="0"/>
        <pt x="539" y="202" on="1"/>
        <pt x="540" y="269" on="0"/>
        <pt x="399" y="374" on="0"/>
        <pt x="309" y="374" on="1"/>
        <pt x="215" y="374" on="0"/>
        <pt x="146" y="324" on="1"/>
        <pt x="71" y="270" on="0"/>
        <pt x="66" y="179" on="1"/>
        <pt x="65" y="164" on="0"/>
        <pt x="69" y="132" on="1"/>
        <pt x="95" y="200" on="0"/>
        <pt x="165" y="200" on="1"/>
        <pt x="212" y="200" on="0"/>
        <pt x="270" y="142" on="0"/>
        <pt x="270" y="94" on="1"/>
        <pt x="270" y="48" on="0"/>
        <pt x="235" y="22" on="1"/>
        <pt x="205" y="-1" on="0"/>
        <pt x="166" y="0" on="1"/>
        <pt x="103" y="1" on="0"/>
        <pt x="31" y="92" on="0"/>
        <pt x="31" y="173" on="1"/>
        <pt x="31" y="286" on="0"/>
        <pt x="122" y="356" on="1"/>
        <pt x="203" y="419" on="0"/>
        <pt x="309" y="419" on="1"/>
        <pt x="455" y="419" on="0"/>
        <pt x="543" y="347" on="1"/>
        <pt x="617" y="285" on="0"/>
        <pt x="617" y="211" on="1"/>
        <pt x="617" y="139" on="0"/>
        <pt x="573" y="114" on="1"/>
        <pt x="544" y="97" on="0"/>
        <pt x="479" y="97" on="1"/>
        <pt x="423" y="97" on="1"/>
        <pt x="381" y="97" on="0"/>
        <pt x="381" y="64" on="1"/>
        <pt x="381" y="35" on="0"/>
        <pt x="421" y="36" on="1"/>
        <pt x="634" y="36" on="1"/>
      </contour>
      <contour>
        <pt x="209" y="101" on="1"/>
        <pt x="209" y="129" on="0"/>
        <pt x="176" y="165" on="0"/>
        <pt x="150" y="165" on="1"/>
        <pt x="124" y="165" on="0"/>
        <pt x="90" y="129" on="0"/>
        <pt x="90" y="101" on="1"/>
        <pt x="90" y="73" on="0"/>
        <pt x="124" y="34" on="0"/>
        <pt x="150" y="34" on="1"/>
        <pt x="176" y="34" on="0"/>
        <pt x="209" y="73" on="0"/>
      </contour>
    </TTGlyph>
    <TTGlyph name="OE" xMin="22" yMin="-428" xMax="952" yMax="429">
      <contour>
        <pt x="952" y="236" on="1"/>
        <pt x="952" y="3" on="0"/>
        <pt x="802" y="-12" on="1"/>
        <pt x="792" y="-12" on="1"/>
        <pt x="752" y="-12" on="0"/>
        <pt x="735" y="24" on="1"/>
        <pt x="720" y="56" on="0"/>
        <pt x="720" y="132" on="1"/>
        <pt x="720" y="149" on="0"/>
        <pt x="722" y="226" on="1"/>
        <pt x="724" y="274" on="0"/>
        <pt x="703" y="309" on="1"/>
        <pt x="680" y="347" on="0"/>
        <pt x="642" y="347" on="1"/>
        <pt x="614" y="347" on="0"/>
        <pt x="596" y="315" on="1"/>
        <pt x="582" y="288" on="0"/>
        <pt x="582" y="257" on="1"/>
        <pt x="583" y="0" on="1"/>
        <pt x="272" y="0" on="1"/>
        <pt x="272" y="35" on="1"/>
        <pt x="337" y="66" on="0"/>
        <pt x="337" y="202" on="1"/>
        <pt x="337" y="283" on="0"/>
        <pt x="288" y="335" on="1"/>
        <pt x="248" y="378" on="0"/>
        <pt x="201" y="378" on="1"/>
        <pt x="136" y="378" on="0"/>
        <pt x="46" y="261" on="0"/>
        <pt x="46" y="181" on="1"/>
        <pt x="72" y="243" on="0"/>
        <pt x="126" y="243" on="1"/>
        <pt x="161" y="243" on="0"/>
        <pt x="215" y="185" on="0"/>
        <pt x="222" y="130" on="1"/>
        <pt x="224" y="118" on="0"/>
        <pt x="224" y="107" on="1"/>
        <pt x="224" y="55" on="0"/>
        <pt x="163" y="-6" on="0"/>
        <pt x="118" y="0" on="1"/>
        <pt x="88" y="4" on="0"/>
        <pt x="62" y="38" on="1"/>
        <pt x="22" y="90" on="0"/>
        <pt x="22" y="188" on="1"/>
        <pt x="22" y="282" on="0"/>
        <pt x="127" y="411" on="0"/>
        <pt x="204" y="411" on="1"/>
        <pt x="284" y="411" on="0"/>
        <pt x="338" y="355" on="1"/>
        <pt x="396" y="294" on="0"/>
        <pt x="397" y="190" on="1"/>
        <pt x="398" y="82" on="0"/>
        <pt x="342" y="35" on="1"/>
        <pt x="526" y="35" on="1"/>
        <pt x="526" y="253" on="1"/>
        <pt x="526" y="402" on="0"/>
        <pt x="633" y="411" on="1"/>
        <pt x="684" y="415" on="0"/>
        <pt x="754" y="322" on="0"/>
        <pt x="756" y="260" on="1"/>
        <pt x="757" y="239" on="0"/>
        <pt x="757" y="217" on="1"/>
        <pt x="757" y="197" on="0"/>
        <pt x="756" y="136" on="0"/>
        <pt x="756" y="125" on="1"/>
        <pt x="756" y="84" on="0"/>
        <pt x="776" y="46" on="0"/>
        <pt x="809" y="39" on="1"/>
        <pt x="815" y="38" on="0"/>
        <pt x="821" y="38" on="1"/>
        <pt x="864" y="38" on="0"/>
        <pt x="892" y="98" on="1"/>
        <pt x="919" y="155" on="0"/>
        <pt x="918" y="229" on="1"/>
        <pt x="917" y="271" on="0"/>
        <pt x="881" y="333" on="0"/>
        <pt x="860" y="339" on="1"/>
        <pt x="823" y="344" on="0"/>
        <pt x="823" y="387" on="1"/>
        <pt x="823" y="428" on="0"/>
        <pt x="860" y="429" on="1"/>
        <pt x="861" y="429" on="1"/>
        <pt x="904" y="429" on="0"/>
        <pt x="929" y="371" on="1"/>
        <pt x="952" y="317" on="0"/>
      </contour>
      <contour>
        <pt x="110" y="201" on="1"/>
        <pt x="88" y="201" on="0"/>
        <pt x="63" y="167" on="0"/>
        <pt x="63" y="140" on="1"/>
        <pt x="63" y="117" on="0"/>
        <pt x="71" y="89" on="1"/>
        <pt x="86" y="37" on="0"/>
        <pt x="128" y="34" on="1"/>
        <pt x="166" y="31" on="0"/>
        <pt x="166" y="100" on="1"/>
        <pt x="166" y="137" on="0"/>
        <pt x="152" y="166" on="1"/>
        <pt x="137" y="201" on="0"/>
      </contour>
      <contour>
        <pt x="791" y="-428" on="1"/>
        <pt x="470" y="-428" on="1"/>
        <pt x="470" y="-404" on="1"/>
        <pt x="503" y="-392" on="0"/>
        <pt x="520" y="-349" on="1"/>
        <pt x="535" y="-312" on="0"/>
        <pt x="535" y="-264" on="1"/>
        <pt x="535" y="-200" on="0"/>
        <pt x="486" y="-158" on="1"/>
        <pt x="446" y="-124" on="0"/>
        <pt x="399" y="-124" on="1"/>
        <pt x="334" y="-124" on="0"/>
        <pt x="244" y="-217" on="0"/>
        <pt x="244" y="-281" on="1"/>
        <pt x="270" y="-232" on="0"/>
        <pt x="324" y="-232" on="1"/>
        <pt x="359" y="-232" on="0"/>
        <pt x="413" y="-278" on="0"/>
        <pt x="420" y="-322" on="1"/>
        <pt x="422" y="-332" on="0"/>
        <pt x="422" y="-340" on="1"/>
        <pt x="422" y="-382" on="0"/>
        <pt x="391" y="-406" on="1"/>
        <pt x="366" y="-426" on="0"/>
        <pt x="330" y="-426" on="1"/>
        <pt x="316" y="-426" on="1"/>
        <pt x="286" y="-423" on="0"/>
        <pt x="260" y="-396" on="1"/>
        <pt x="220" y="-354" on="0"/>
        <pt x="220" y="-276" on="1"/>
        <pt x="220" y="-200" on="0"/>
        <pt x="325" y="-97" on="0"/>
        <pt x="402" y="-97" on="1"/>
        <pt x="483" y="-97" on="0"/>
        <pt x="537" y="-142" on="1"/>
        <pt x="595" y="-191" on="0"/>
        <pt x="595" y="-274" on="1"/>
        <pt x="595" y="-314" on="0"/>
        <pt x="564" y="-390" on="0"/>
        <pt x="545" y="-403" on="1"/>
        <pt x="730" y="-403" on="1"/>
        <pt x="730" y="-100" on="1"/>
        <pt x="791" y="-100" on="1"/>
      </contour>
      <contour>
        <pt x="308" y="-265" on="1"/>
        <pt x="286" y="-265" on="0"/>
        <pt x="261" y="-292" on="0"/>
        <pt x="261" y="-314" on="1"/>
        <pt x="261" y="-332" on="0"/>
        <pt x="269" y="-355" on="1"/>
        <pt x="284" y="-396" on="0"/>
        <pt x="326" y="-399" on="1"/>
        <pt x="364" y="-401" on="0"/>
        <pt x="364" y="-346" on="1"/>
        <pt x="364" y="-316" on="0"/>
        <pt x="350" y="-293" on="1"/>
        <pt x="335" y="-265" on="0"/>
      </contour>
    </TTGlyph>
    <TTGlyph name="Obreve" xMin="22" yMin="-501" xMax="952" yMax="429">
      <contour>
        <pt x="952" y="236" on="1"/>
        <pt x="952" y="3" on="0"/>
        <pt x="802" y="-12" on="1"/>
        <pt x="792" y="-12" on="1"/>
        <pt x="752" y="-12" on="0"/>
        <pt x="735" y="24" on="1"/>
        <pt x="720" y="56" on="0"/>
        <pt x="720" y="132" on="1"/>
        <pt x="720" y="149" on="0"/>
        <pt x="722" y="226" on="1"/>
        <pt x="724" y="274" on="0"/>
        <pt x="703" y="309" on="1"/>
        <pt x="680" y="347" on="0"/>
        <pt x="642" y="347" on="1"/>
        <pt x="614" y="347" on="0"/>
        <pt x="596" y="315" on="1"/>
        <pt x="582" y="288" on="0"/>
        <pt x="582" y="257" on="1"/>
        <pt x="583" y="0" on="1"/>
        <pt x="272" y="0" on="1"/>
        <pt x="272" y="35" on="1"/>
        <pt x="337" y="66" on="0"/>
        <pt x="337" y="202" on="1"/>
        <pt x="337" y="283" on="0"/>
        <pt x="288" y="335" on="1"/>
        <pt x="248" y="378" on="0"/>
        <pt x="201" y="378" on="1"/>
        <pt x="136" y="378" on="0"/>
        <pt x="46" y="261" on="0"/>
        <pt x="46" y="181" on="1"/>
        <pt x="72" y="243" on="0"/>
        <pt x="126" y="243" on="1"/>
        <pt x="161" y="243" on="0"/>
        <pt x="215" y="185" on="0"/>
        <pt x="222" y="130" on="1"/>
        <pt x="224" y="118" on="0"/>
        <pt x="224" y="107" on="1"/>
        <pt x="224" y="55" on="0"/>
        <pt x="163" y="-6" on="0"/>
        <pt x="118" y="0" on="1"/>
        <pt x="88" y="4" on="0"/>
        <pt x="62" y="38" on="1"/>
        <pt x="22" y="90" on="0"/>
        <pt x="22" y="188" on="1"/>
        <pt x="22" y="282" on="0"/>
        <pt x="127" y="411" on="0"/>
        <pt x="204" y="411" on="1"/>
        <pt x="284" y="411" on="0"/>
        <pt x="338" y="355" on="1"/>
        <pt x="396" y="294" on="0"/>
        <pt x="397" y="190" on="1"/>
        <pt x="398" y="82" on="0"/>
        <pt x="342" y="35" on="1"/>
        <pt x="526" y="35" on="1"/>
        <pt x="526" y="253" on="1"/>
        <pt x="526" y="402" on="0"/>
        <pt x="633" y="411" on="1"/>
        <pt x="684" y="415" on="0"/>
        <pt x="754" y="322" on="0"/>
        <pt x="756" y="260" on="1"/>
        <pt x="757" y="239" on="0"/>
        <pt x="757" y="217" on="1"/>
        <pt x="757" y="197" on="0"/>
        <pt x="756" y="136" on="0"/>
        <pt x="756" y="125" on="1"/>
        <pt x="756" y="84" on="0"/>
        <pt x="776" y="46" on="0"/>
        <pt x="809" y="39" on="1"/>
        <pt x="815" y="38" on="0"/>
        <pt x="821" y="38" on="1"/>
        <pt x="864" y="38" on="0"/>
        <pt x="892" y="98" on="1"/>
        <pt x="919" y="155" on="0"/>
        <pt x="918" y="229" on="1"/>
        <pt x="917" y="271" on="0"/>
        <pt x="881" y="333" on="0"/>
        <pt x="860" y="339" on="1"/>
        <pt x="823" y="344" on="0"/>
        <pt x="823" y="387" on="1"/>
        <pt x="823" y="428" on="0"/>
        <pt x="860" y="429" on="1"/>
        <pt x="861" y="429" on="1"/>
        <pt x="904" y="429" on="0"/>
        <pt x="929" y="371" on="1"/>
        <pt x="952" y="317" on="0"/>
      </contour>
      <contour>
        <pt x="110" y="201" on="1"/>
        <pt x="88" y="201" on="0"/>
        <pt x="63" y="167" on="0"/>
        <pt x="63" y="140" on="1"/>
        <pt x="63" y="117" on="0"/>
        <pt x="71" y="89" on="1"/>
        <pt x="86" y="37" on="0"/>
        <pt x="128" y="34" on="1"/>
        <pt x="166" y="31" on="0"/>
        <pt x="166" y="100" on="1"/>
        <pt x="166" y="137" on="0"/>
        <pt x="152" y="166" on="1"/>
        <pt x="137" y="201" on="0"/>
      </contour>
      <contour>
        <pt x="732" y="-347" on="1"/>
        <pt x="732" y="-397" on="0"/>
        <pt x="701" y="-451" on="0"/>
        <pt x="662" y="-472" on="1"/>
        <pt x="608" y="-501" on="0"/>
        <pt x="544" y="-501" on="1"/>
        <pt x="144" y="-501" on="1"/>
        <pt x="144" y="-476" on="1"/>
        <pt x="547" y="-476" on="1"/>
        <pt x="615" y="-476" on="0"/>
        <pt x="650" y="-427" on="1"/>
        <pt x="672" y="-395" on="0"/>
        <pt x="672" y="-348" on="1"/>
        <pt x="672" y="-322" on="0"/>
        <pt x="659" y="-299" on="1"/>
        <pt x="642" y="-269" on="0"/>
        <pt x="612" y="-269" on="1"/>
        <pt x="570" y="-269" on="1"/>
        <pt x="570" y="-313" on="1"/>
        <pt x="570" y="-374" on="0"/>
        <pt x="519" y="-402" on="1"/>
        <pt x="482" y="-422" on="0"/>
        <pt x="426" y="-422" on="1"/>
        <pt x="410" y="-422" on="0"/>
        <pt x="398" y="-421" on="1"/>
        <pt x="352" y="-414" on="0"/>
        <pt x="297" y="-354" on="0"/>
        <pt x="297" y="-310" on="1"/>
        <pt x="297" y="-280" on="0"/>
        <pt x="342" y="-244" on="0"/>
        <pt x="375" y="-244" on="1"/>
        <pt x="396" y="-244" on="1"/>
        <pt x="396" y="-92" on="1"/>
        <pt x="682" y="-92" on="1"/>
        <pt x="682" y="-117" on="1"/>
        <pt x="570" y="-117" on="1"/>
        <pt x="570" y="-244" on="1"/>
        <pt x="620" y="-244" on="1"/>
        <pt x="670" y="-244" on="0"/>
        <pt x="732" y="-306" on="0"/>
      </contour>
      <contour>
        <pt x="510" y="-244" on="1"/>
        <pt x="510" y="-117" on="1"/>
        <pt x="424" y="-117" on="1"/>
        <pt x="424" y="-244" on="1"/>
      </contour>
      <contour>
        <pt x="510" y="-307" on="1"/>
        <pt x="510" y="-269" on="1"/>
        <pt x="370" y="-269" on="1"/>
        <pt x="321" y="-269" on="0"/>
        <pt x="321" y="-310" on="1"/>
        <pt x="321" y="-336" on="0"/>
        <pt x="334" y="-358" on="1"/>
        <pt x="351" y="-386" on="0"/>
        <pt x="389" y="-394" on="1"/>
        <pt x="400" y="-396" on="0"/>
        <pt x="411" y="-396" on="1"/>
        <pt x="451" y="-396" on="0"/>
        <pt x="510" y="-347" on="0"/>
      </contour>
    </TTGlyph>
    <TTGlyph name="Odieresis" xMin="-699" yMin="-477" xMax="-86" yMax="-196">
      <contour>
        <pt x="-89" y="-303" on="1"/>
        <pt x="-86" y="-326" on="0"/>
        <pt x="-86" y="-349" on="1"/>
        <pt x="-86" y="-378" on="0"/>
        <pt x="-91" y="-407" on="1"/>
        <pt x="-96" y="-438" on="0"/>
        <pt x="-140" y="-477" on="0"/>
        <pt x="-167" y="-477" on="1"/>
        <pt x="-699" y="-477" on="1"/>
        <pt x="-699" y="-447" on="1"/>
        <pt x="-492" y="-447" on="1"/>
        <pt x="-455" y="-447" on="0"/>
        <pt x="-404" y="-378" on="0"/>
        <pt x="-408" y="-322" on="1"/>
        <pt x="-411" y="-282" on="0"/>
        <pt x="-454" y="-230" on="0"/>
        <pt x="-490" y="-229" on="1"/>
        <pt x="-558" y="-227" on="0"/>
        <pt x="-573" y="-304" on="1"/>
        <pt x="-570" y="-305" on="1"/>
        <pt x="-551" y="-278" on="0"/>
        <pt x="-523" y="-278" on="1"/>
        <pt x="-495" y="-278" on="0"/>
        <pt x="-461" y="-316" on="0"/>
        <pt x="-461" y="-345" on="1"/>
        <pt x="-461" y="-376" on="0"/>
        <pt x="-499" y="-412" on="0"/>
        <pt x="-526" y="-412" on="1"/>
        <pt x="-557" y="-412" on="0"/>
        <pt x="-595" y="-359" on="0"/>
        <pt x="-596" y="-318" on="1"/>
        <pt x="-597" y="-269" on="0"/>
        <pt x="-563" y="-233" on="1"/>
        <pt x="-528" y="-196" on="0"/>
        <pt x="-477" y="-196" on="1"/>
        <pt x="-472" y="-196" on="0"/>
        <pt x="-467" y="-197" on="1"/>
        <pt x="-421" y="-200" on="0"/>
        <pt x="-391" y="-244" on="1"/>
        <pt x="-366" y="-280" on="0"/>
        <pt x="-363" y="-319" on="1"/>
        <pt x="-359" y="-366" on="0"/>
        <pt x="-379" y="-404" on="1"/>
        <pt x="-396" y="-437" on="0"/>
        <pt x="-422" y="-447" on="1"/>
        <pt x="-269" y="-447" on="1"/>
        <pt x="-269" y="-302" on="1"/>
        <pt x="-269" y="-266" on="0"/>
        <pt x="-225" y="-202" on="0"/>
        <pt x="-191" y="-199" on="1"/>
        <pt x="-187" y="-198" on="0"/>
        <pt x="-185" y="-198" on="1"/>
        <pt x="-152" y="-198" on="0"/>
        <pt x="-123" y="-230" on="1"/>
        <pt x="-95" y="-262" on="0"/>
      </contour>
      <contour>
        <pt x="-121" y="-304" on="1"/>
        <pt x="-139" y="-240" on="0"/>
        <pt x="-185" y="-240" on="1"/>
        <pt x="-205" y="-240" on="0"/>
        <pt x="-229" y="-279" on="0"/>
        <pt x="-229" y="-299" on="1"/>
        <pt x="-229" y="-449" on="1"/>
        <pt x="-168" y="-449" on="1"/>
        <pt x="-136" y="-449" on="0"/>
        <pt x="-123" y="-406" on="1"/>
        <pt x="-116" y="-385" on="0"/>
        <pt x="-116" y="-347" on="1"/>
        <pt x="-116" y="-321" on="0"/>
      </contour>
      <contour>
        <pt x="-494" y="-347" on="1"/>
        <pt x="-494" y="-302" on="0"/>
        <pt x="-528" y="-302" on="1"/>
        <pt x="-564" y="-302" on="0"/>
        <pt x="-564" y="-343" on="1"/>
        <pt x="-564" y="-387" on="0"/>
        <pt x="-530" y="-387" on="1"/>
        <pt x="-494" y="-387" on="0"/>
      </contour>
    </TTGlyph>
    <TTGlyph name="Ograve" xMin="-636" yMin="-492" xMax="-98" yMax="-192">
      <contour>
        <pt x="-256" y="-492" on="1"/>
        <pt x="-636" y="-492" on="1"/>
        <pt x="-636" y="-458" on="1"/>
        <pt x="-276" y="-458" on="1"/>
        <pt x="-155" y="-458" on="0"/>
        <pt x="-155" y="-329" on="1"/>
        <pt x="-155" y="-274" on="0"/>
        <pt x="-180" y="-245" on="1"/>
        <pt x="-201" y="-221" on="0"/>
        <pt x="-230" y="-221" on="1"/>
        <pt x="-288" y="-221" on="0"/>
        <pt x="-288" y="-285" on="1"/>
        <pt x="-288" y="-324" on="1"/>
        <pt x="-288" y="-420" on="0"/>
        <pt x="-396" y="-423" on="1"/>
        <pt x="-449" y="-425" on="0"/>
        <pt x="-475" y="-389" on="1"/>
        <pt x="-496" y="-360" on="0"/>
        <pt x="-495" y="-316" on="1"/>
        <pt x="-495" y="-239" on="1"/>
        <pt x="-496" y="-228" on="1"/>
        <pt x="-496" y="-216" on="0"/>
        <pt x="-495" y="-212" on="1"/>
        <pt x="-446" y="-212" on="1"/>
        <pt x="-447" y="-255" on="1"/>
        <pt x="-447" y="-316" on="1"/>
        <pt x="-447" y="-348" on="0"/>
        <pt x="-438" y="-362" on="1"/>
        <pt x="-427" y="-380" on="0"/>
        <pt x="-396" y="-381" on="1"/>
        <pt x="-375" y="-381" on="0"/>
        <pt x="-362" y="-373" on="1"/>
        <pt x="-341" y="-359" on="0"/>
        <pt x="-341" y="-317" on="1"/>
        <pt x="-341" y="-273" on="1"/>
        <pt x="-341" y="-192" on="0"/>
        <pt x="-230" y="-192" on="1"/>
        <pt x="-175" y="-192" on="0"/>
        <pt x="-98" y="-265" on="0"/>
        <pt x="-98" y="-322" on="1"/>
        <pt x="-98" y="-489" on="0"/>
      </contour>
    </TTGlyph>
    <TTGlyph name="Ohungarumlaut" xMin="38" yMin="-510" xMax="968" yMax="429">
      <contour>
        <pt x="968" y="236" on="1"/>
        <pt x="968" y="3" on="0"/>
        <pt x="818" y="-12" on="1"/>
        <pt x="808" y="-12" on="1"/>
        <pt x="768" y="-12" on="0"/>
        <pt x="751" y="24" on="1"/>
        <pt x="736" y="56" on="0"/>
        <pt x="736" y="132" on="1"/>
        <pt x="736" y="149" on="0"/>
        <pt x="738" y="226" on="1"/>
        <pt x="740" y="274" on="0"/>
        <pt x="719" y="309" on="1"/>
        <pt x="696" y="347" on="0"/>
        <pt x="658" y="347" on="1"/>
        <pt x="630" y="347" on="0"/>
        <pt x="612" y="315" on="1"/>
        <pt x="598" y="288" on="0"/>
        <pt x="598" y="257" on="1"/>
        <pt x="599" y="0" on="1"/>
        <pt x="288" y="0" on="1"/>
        <pt x="288" y="35" on="1"/>
        <pt x="353" y="66" on="0"/>
        <pt x="353" y="202" on="1"/>
        <pt x="353" y="283" on="0"/>
        <pt x="304" y="335" on="1"/>
        <pt x="264" y="378" on="0"/>
        <pt x="217" y="378" on="1"/>
        <pt x="152" y="378" on="0"/>
        <pt x="62" y="261" on="0"/>
        <pt x="62" y="181" on="1"/>
        <pt x="88" y="243" on="0"/>
        <pt x="142" y="243" on="1"/>
        <pt x="177" y="243" on="0"/>
        <pt x="231" y="185" on="0"/>
        <pt x="238" y="130" on="1"/>
        <pt x="240" y="118" on="0"/>
        <pt x="240" y="107" on="1"/>
        <pt x="240" y="55" on="0"/>
        <pt x="179" y="-6" on="0"/>
        <pt x="134" y="0" on="1"/>
        <pt x="104" y="4" on="0"/>
        <pt x="78" y="38" on="1"/>
        <pt x="38" y="90" on="0"/>
        <pt x="38" y="188" on="1"/>
        <pt x="38" y="282" on="0"/>
        <pt x="143" y="411" on="0"/>
        <pt x="220" y="411" on="1"/>
        <pt x="300" y="411" on="0"/>
        <pt x="354" y="355" on="1"/>
        <pt x="412" y="294" on="0"/>
        <pt x="413" y="190" on="1"/>
        <pt x="414" y="82" on="0"/>
        <pt x="358" y="35" on="1"/>
        <pt x="542" y="35" on="1"/>
        <pt x="542" y="253" on="1"/>
        <pt x="542" y="402" on="0"/>
        <pt x="649" y="411" on="1"/>
        <pt x="700" y="415" on="0"/>
        <pt x="770" y="322" on="0"/>
        <pt x="772" y="260" on="1"/>
        <pt x="773" y="239" on="0"/>
        <pt x="773" y="217" on="1"/>
        <pt x="773" y="197" on="0"/>
        <pt x="772" y="136" on="0"/>
        <pt x="772" y="125" on="1"/>
        <pt x="772" y="84" on="0"/>
        <pt x="792" y="46" on="0"/>
        <pt x="825" y="39" on="1"/>
        <pt x="831" y="38" on="0"/>
        <pt x="837" y="38" on="1"/>
        <pt x="880" y="38" on="0"/>
        <pt x="908" y="98" on="1"/>
        <pt x="935" y="155" on="0"/>
        <pt x="934" y="229" on="1"/>
        <pt x="933" y="271" on="0"/>
        <pt x="897" y="333" on="0"/>
        <pt x="876" y="339" on="1"/>
        <pt x="839" y="344" on="0"/>
        <pt x="839" y="387" on="1"/>
        <pt x="839" y="428" on="0"/>
        <pt x="876" y="429" on="1"/>
        <pt x="877" y="429" on="1"/>
        <pt x="920" y="429" on="0"/>
        <pt x="945" y="371" on="1"/>
        <pt x="968" y="317" on="0"/>
      </contour>
      <contour>
        <pt x="126" y="201" on="1"/>
        <pt x="104" y="201" on="0"/>
        <pt x="79" y="167" on="0"/>
        <pt x="79" y="140" on="1"/>
        <pt x="79" y="117" on="0"/>
        <pt x="87" y="89" on="1"/>
        <pt x="102" y="37" on="0"/>
        <pt x="144" y="34" on="1"/>
        <pt x="182" y="31" on="0"/>
        <pt x="182" y="100" on="1"/>
        <pt x="182" y="137" on="0"/>
        <pt x="168" y="166" on="1"/>
        <pt x="153" y="201" on="0"/>
      </contour>
      <contour>
        <pt x="806" y="-356" on="1"/>
        <pt x="806" y="-510" on="0"/>
        <pt x="612" y="-510" on="1"/>
        <pt x="223" y="-510" on="1"/>
        <pt x="223" y="-481" on="1"/>
        <pt x="596" y="-481" on="1"/>
        <pt x="686" y="-481" on="0"/>
        <pt x="715" y="-440" on="1"/>
        <pt x="734" y="-414" on="0"/>
        <pt x="734" y="-347" on="1"/>
        <pt x="734" y="-305" on="0"/>
        <pt x="713" y="-276" on="1"/>
        <pt x="690" y="-243" on="0"/>
        <pt x="650" y="-243" on="1"/>
        <pt x="608" y="-243" on="0"/>
        <pt x="592" y="-265" on="1"/>
        <pt x="592" y="-424" on="1"/>
        <pt x="532" y="-424" on="1"/>
        <pt x="532" y="-120" on="1"/>
        <pt x="440" y="-120" on="1"/>
        <pt x="440" y="-424" on="1"/>
        <pt x="406" y="-424" on="1"/>
        <pt x="406" y="-96" on="1"/>
        <pt x="795" y="-96" on="1"/>
        <pt x="795" y="-120" on="1"/>
        <pt x="592" y="-120" on="1"/>
        <pt x="592" y="-236" on="1"/>
        <pt x="621" y="-216" on="0"/>
        <pt x="670" y="-216" on="1"/>
        <pt x="686" y="-216" on="0"/>
        <pt x="700" y="-220" on="1"/>
        <pt x="740" y="-228" on="0"/>
        <pt x="767" y="-256" on="1"/>
        <pt x="806" y="-294" on="0"/>
      </contour>
    </TTGlyph>
    <TTGlyph name="Omacron" xMin="46" yMin="-261" xMax="1108" yMax="414">
      <contour>
        <pt x="1105" y="-135" on="1"/>
        <pt x="1108" y="-135" on="1"/>
        <pt x="945" y="-134" on="1"/>
        <pt x="945" y="-261" on="1"/>
        <pt x="895" y="-261" on="1"/>
        <pt x="895" y="-134" on="1"/>
        <pt x="850" y="-133" on="0"/>
        <pt x="785" y="-135" on="1"/>
        <pt x="713" y="-137" on="0"/>
        <pt x="699" y="-137" on="1"/>
        <pt x="750" y="-3" on="1"/>
        <pt x="359" y="0" on="1"/>
        <pt x="359" y="33" on="1"/>
        <pt x="440" y="64" on="0"/>
        <pt x="440" y="201" on="1"/>
        <pt x="440" y="282" on="0"/>
        <pt x="379" y="334" on="1"/>
        <pt x="328" y="377" on="0"/>
        <pt x="270" y="377" on="1"/>
        <pt x="188" y="377" on="0"/>
        <pt x="76" y="260" on="0"/>
        <pt x="76" y="180" on="1"/>
        <pt x="108" y="242" on="0"/>
        <pt x="176" y="242" on="1"/>
        <pt x="220" y="242" on="0"/>
        <pt x="287" y="184" on="0"/>
        <pt x="296" y="129" on="1"/>
        <pt x="298" y="117" on="0"/>
        <pt x="298" y="106" on="1"/>
        <pt x="298" y="54" on="0"/>
        <pt x="222" y="-7" on="0"/>
        <pt x="166" y="-1" on="1"/>
        <pt x="129" y="3" on="0"/>
        <pt x="96" y="37" on="1"/>
        <pt x="46" y="89" on="0"/>
        <pt x="46" y="187" on="1"/>
        <pt x="46" y="281" on="0"/>
        <pt x="177" y="410" on="0"/>
        <pt x="273" y="410" on="1"/>
        <pt x="375" y="410" on="0"/>
        <pt x="442" y="354" on="1"/>
        <pt x="515" y="293" on="0"/>
        <pt x="515" y="189" on="1"/>
        <pt x="515" y="140" on="0"/>
        <pt x="476" y="53" on="0"/>
        <pt x="452" y="37" on="1"/>
        <pt x="714" y="37" on="1"/>
        <pt x="687" y="64" on="0"/>
        <pt x="666" y="116" on="1"/>
        <pt x="642" y="175" on="0"/>
        <pt x="642" y="234" on="1"/>
        <pt x="642" y="308" on="0"/>
        <pt x="685" y="362" on="1"/>
        <pt x="726" y="414" on="0"/>
        <pt x="787" y="414" on="1"/>
        <pt x="789" y="414" on="1"/>
        <pt x="830" y="413" on="0"/>
        <pt x="861" y="384" on="1"/>
        <pt x="898" y="350" on="0"/>
        <pt x="898" y="296" on="1"/>
        <pt x="898" y="271" on="0"/>
        <pt x="890" y="244" on="1"/>
        <pt x="830" y="35" on="1"/>
        <pt x="1006" y="35" on="1"/>
        <pt x="1006" y="-1" on="1"/>
        <pt x="818" y="-1" on="1"/>
        <pt x="780" y="-94" on="1"/>
        <pt x="1105" y="-94" on="1"/>
      </contour>
      <contour>
        <pt x="817" y="244" on="1"/>
        <pt x="822" y="263" on="0"/>
        <pt x="822" y="283" on="1"/>
        <pt x="822" y="355" on="0"/>
        <pt x="775" y="359" on="1"/>
        <pt x="729" y="363" on="0"/>
        <pt x="705" y="323" on="1"/>
        <pt x="685" y="288" on="0"/>
        <pt x="685" y="231" on="1"/>
        <pt x="685" y="185" on="0"/>
        <pt x="713" y="118" on="1"/>
        <pt x="733" y="70" on="0"/>
        <pt x="754" y="38" on="1"/>
        <pt x="755" y="37" on="0"/>
        <pt x="762" y="39" on="1"/>
      </contour>
      <contour>
        <pt x="156" y="200" on="1"/>
        <pt x="129" y="200" on="0"/>
        <pt x="97" y="166" on="0"/>
        <pt x="97" y="139" on="1"/>
        <pt x="97" y="116" on="0"/>
        <pt x="107" y="88" on="1"/>
        <pt x="126" y="36" on="0"/>
        <pt x="179" y="33" on="1"/>
        <pt x="226" y="30" on="0"/>
        <pt x="226" y="99" on="1"/>
        <pt x="226" y="136" on="0"/>
        <pt x="209" y="165" on="1"/>
        <pt x="190" y="200" on="0"/>
      </contour>
    </TTGlyph>
    <TTGlyph name="Oslash" xMin="-538" yMin="-515" xMax="-107" yMax="-186">
      <contour>
        <pt x="-244" y="-371" on="1"/>
        <pt x="-414" y="-371" on="1"/>
        <pt x="-484" y="-371" on="0"/>
        <pt x="-484" y="-428" on="1"/>
        <pt x="-484" y="-455" on="0"/>
        <pt x="-449" y="-488" on="0"/>
        <pt x="-420" y="-488" on="1"/>
        <pt x="-382" y="-488" on="0"/>
        <pt x="-340" y="-453" on="1"/>
        <pt x="-293" y="-414" on="0"/>
        <pt x="-275" y="-405" on="1"/>
        <pt x="-244" y="-390" on="0"/>
        <pt x="-190" y="-390" on="1"/>
        <pt x="-150" y="-390" on="0"/>
        <pt x="-108" y="-427" on="0"/>
        <pt x="-108" y="-454" on="1"/>
        <pt x="-108" y="-480" on="0"/>
        <pt x="-166" y="-515" on="0"/>
        <pt x="-204" y="-515" on="1"/>
        <pt x="-247" y="-515" on="0"/>
        <pt x="-285" y="-490" on="1"/>
        <pt x="-268" y="-476" on="1"/>
        <pt x="-241" y="-495" on="0"/>
        <pt x="-205" y="-495" on="1"/>
        <pt x="-186" y="-495" on="0"/>
        <pt x="-159" y="-468" on="0"/>
        <pt x="-159" y="-451" on="1"/>
        <pt x="-159" y="-409" on="0"/>
        <pt x="-209" y="-409" on="1"/>
        <pt x="-243" y="-409" on="0"/>
        <pt x="-270" y="-424" on="1"/>
        <pt x="-278" y="-429" on="0"/>
        <pt x="-316" y="-459" on="1"/>
        <pt x="-350" y="-487" on="0"/>
        <pt x="-363" y="-494" on="1"/>
        <pt x="-388" y="-507" on="0"/>
        <pt x="-423" y="-508" on="1"/>
        <pt x="-467" y="-510" on="0"/>
        <pt x="-501" y="-489" on="1"/>
        <pt x="-538" y="-466" on="0"/>
        <pt x="-538" y="-427" on="1"/>
        <pt x="-538" y="-389" on="0"/>
        <pt x="-503" y="-368" on="1"/>
        <pt x="-471" y="-349" on="0"/>
        <pt x="-421" y="-349" on="1"/>
        <pt x="-244" y="-349" on="1"/>
        <pt x="-211" y="-349" on="0"/>
        <pt x="-162" y="-304" on="0"/>
        <pt x="-162" y="-275" on="1"/>
        <pt x="-162" y="-247" on="0"/>
        <pt x="-175" y="-228" on="1"/>
        <pt x="-191" y="-205" on="0"/>
        <pt x="-223" y="-205" on="1"/>
        <pt x="-248" y="-205" on="0"/>
        <pt x="-279" y="-235" on="0"/>
        <pt x="-279" y="-255" on="1"/>
        <pt x="-279" y="-325" on="1"/>
        <pt x="-330" y="-325" on="1"/>
        <pt x="-330" y="-261" on="1"/>
        <pt x="-330" y="-244" on="0"/>
        <pt x="-346" y="-230" on="1"/>
        <pt x="-372" y="-205" on="0"/>
        <pt x="-432" y="-205" on="1"/>
        <pt x="-467" y="-205" on="0"/>
        <pt x="-510" y="-239" on="0"/>
        <pt x="-510" y="-260" on="1"/>
        <pt x="-510" y="-295" on="0"/>
        <pt x="-480" y="-309" on="1"/>
        <pt x="-492" y="-297" on="0"/>
        <pt x="-492" y="-276" on="1"/>
        <pt x="-492" y="-254" on="0"/>
        <pt x="-455" y="-227" on="0"/>
        <pt x="-431" y="-227" on="1"/>
        <pt x="-405" y="-227" on="0"/>
        <pt x="-369" y="-255" on="0"/>
        <pt x="-369" y="-279" on="1"/>
        <pt x="-369" y="-334" on="0"/>
        <pt x="-454" y="-331" on="1"/>
        <pt x="-486" y="-329" on="0"/>
        <pt x="-533" y="-293" on="0"/>
        <pt x="-533" y="-261" on="1"/>
        <pt x="-533" y="-228" on="0"/>
        <pt x="-465" y="-186" on="0"/>
        <pt x="-418" y="-186" on="1"/>
        <pt x="-330" y="-186" on="0"/>
        <pt x="-296" y="-227" on="1"/>
        <pt x="-273" y="-186" on="0"/>
        <pt x="-218" y="-186" on="1"/>
        <pt x="-164" y="-186" on="0"/>
        <pt x="-107" y="-235" on="0"/>
        <pt x="-107" y="-275" on="1"/>
        <pt x="-107" y="-321" on="0"/>
        <pt x="-151" y="-347" on="1"/>
        <pt x="-189" y="-371" on="0"/>
      </contour>
      <contour>
        <pt x="-441" y="-245" on="1"/>
        <pt x="-469" y="-245" on="0"/>
        <pt x="-469" y="-277" on="1"/>
        <pt x="-469" y="-289" on="0"/>
        <pt x="-455" y="-312" on="0"/>
        <pt x="-444" y="-312" on="1"/>
        <pt x="-416" y="-312" on="0"/>
        <pt x="-415" y="-279" on="1"/>
        <pt x="-414" y="-245" on="0"/>
      </contour>
    </TTGlyph>
    <TTGlyph name="Otilde" xMin="-637" yMin="-472" xMax="-115" yMax="-189">
      <contour>
        <pt x="-115" y="-472" on="1"/>
        <pt x="-637" y="-472" on="1"/>
        <pt x="-637" y="-441" on="1"/>
        <pt x="-443" y="-441" on="1"/>
        <pt x="-405" y="-441" on="0"/>
        <pt x="-377" y="-408" on="1"/>
        <pt x="-346" y="-371" on="0"/>
        <pt x="-351" y="-316" on="1"/>
        <pt x="-359" y="-226" on="0"/>
        <pt x="-437" y="-223" on="1"/>
        <pt x="-471" y="-222" on="0"/>
        <pt x="-497" y="-240" on="1"/>
        <pt x="-526" y="-261" on="0"/>
        <pt x="-534" y="-298" on="1"/>
        <pt x="-531" y="-299" on="1"/>
        <pt x="-514" y="-273" on="0"/>
        <pt x="-473" y="-273" on="1"/>
        <pt x="-445" y="-273" on="0"/>
        <pt x="-426" y="-299" on="1"/>
        <pt x="-412" y="-319" on="0"/>
        <pt x="-412" y="-338" on="1"/>
        <pt x="-412" y="-366" on="0"/>
        <pt x="-453" y="-406" on="0"/>
        <pt x="-482" y="-406" on="1"/>
        <pt x="-559" y="-406" on="0"/>
        <pt x="-559" y="-327" on="1"/>
        <pt x="-559" y="-266" on="0"/>
        <pt x="-522" y="-228" on="1"/>
        <pt x="-486" y="-189" on="0"/>
        <pt x="-427" y="-189" on="1"/>
        <pt x="-421" y="-189" on="0"/>
        <pt x="-416" y="-190" on="1"/>
        <pt x="-365" y="-193" on="0"/>
        <pt x="-331" y="-238" on="1"/>
        <pt x="-303" y="-275" on="0"/>
        <pt x="-301" y="-314" on="1"/>
        <pt x="-299" y="-356" on="0"/>
        <pt x="-336" y="-432" on="0"/>
        <pt x="-364" y="-441" on="1"/>
        <pt x="-165" y="-441" on="1"/>
        <pt x="-165" y="-189" on="1"/>
        <pt x="-115" y="-189" on="1"/>
      </contour>
      <contour>
        <pt x="-448" y="-338" on="1"/>
        <pt x="-448" y="-299" on="0"/>
        <pt x="-483" y="-299" on="1"/>
        <pt x="-524" y="-299" on="0"/>
        <pt x="-524" y="-338" on="1"/>
        <pt x="-524" y="-378" on="0"/>
        <pt x="-482" y="-378" on="1"/>
        <pt x="-448" y="-378" on="0"/>
      </contour>
    </TTGlyph>
    <TTGlyph name="P" xMin="30" yMin="-3" xMax="1094" yMax="411">
      <contour>
        <pt x="1094" y="-3" on="1"/>
        <pt x="343" y="-3" on="1"/>
        <pt x="343" y="28" on="1"/>
        <pt x="421" y="87" on="0"/>
        <pt x="421" y="202" on="1"/>
        <pt x="421" y="283" on="0"/>
        <pt x="362" y="335" on="1"/>
        <pt x="311" y="378" on="0"/>
        <pt x="254" y="378" on="1"/>
        <pt x="172" y="378" on="0"/>
        <pt x="60" y="261" on="0"/>
        <pt x="60" y="181" on="1"/>
        <pt x="92" y="243" on="0"/>
        <pt x="160" y="243" on="1"/>
        <pt x="207" y="243" on="0"/>
        <pt x="239" y="216" on="1"/>
        <pt x="277" y="186" on="0"/>
        <pt x="280" y="130" on="1"/>
        <pt x="284" y="62" on="0"/>
        <pt x="244" y="28" on="1"/>
        <pt x="210" y="0" on="0"/>
        <pt x="159" y="0" on="1"/>
        <pt x="141" y="0" on="1"/>
        <pt x="106" y="4" on="0"/>
        <pt x="75" y="38" on="1"/>
        <pt x="30" y="90" on="0"/>
        <pt x="30" y="188" on="1"/>
        <pt x="30" y="282" on="0"/>
        <pt x="161" y="411" on="0"/>
        <pt x="257" y="411" on="1"/>
        <pt x="359" y="411" on="0"/>
        <pt x="428" y="355" on="1"/>
        <pt x="504" y="294" on="0"/>
        <pt x="505" y="190" on="1"/>
        <pt x="506" y="141" on="0"/>
        <pt x="463" y="54" on="0"/>
        <pt x="434" y="34" on="1"/>
        <pt x="799" y="34" on="1"/>
        <pt x="799" y="242" on="1"/>
        <pt x="799" y="309" on="0"/>
        <pt x="880" y="406" on="0"/>
        <pt x="940" y="410" on="1"/>
        <pt x="951" y="410" on="1"/>
        <pt x="1008" y="410" on="0"/>
        <pt x="1049" y="370" on="1"/>
        <pt x="1094" y="326" on="0"/>
        <pt x="1094" y="260" on="1"/>
      </contour>
      <contour>
        <pt x="1051" y="32" on="1"/>
        <pt x="1052" y="119" on="0"/>
        <pt x="1051" y="246" on="1"/>
        <pt x="1050" y="348" on="0"/>
        <pt x="957" y="348" on="1"/>
        <pt x="919" y="348" on="0"/>
        <pt x="876" y="288" on="0"/>
        <pt x="876" y="245" on="1"/>
        <pt x="876" y="32" on="1"/>
      </contour>
      <contour>
        <pt x="210" y="116" on="1"/>
        <pt x="210" y="154" on="0"/>
        <pt x="170" y="206" on="0"/>
        <pt x="145" y="206" on="1"/>
        <pt x="116" y="206" on="0"/>
        <pt x="83" y="161" on="0"/>
        <pt x="83" y="132" on="1"/>
        <pt x="83" y="105" on="0"/>
        <pt x="95" y="79" on="1"/>
        <pt x="114" y="35" on="0"/>
        <pt x="154" y="33" on="1"/>
        <pt x="210" y="30" on="0"/>
      </contour>
    </TTGlyph>
    <TTGlyph name="Q" xMin="32" yMin="164" xMax="468" yMax="417">
      <contour>
        <pt x="468" y="377" on="1"/>
        <pt x="129" y="377" on="1"/>
        <pt x="77" y="381" on="0"/>
        <pt x="80" y="339" on="1"/>
        <pt x="82" y="310" on="0"/>
        <pt x="124" y="310" on="1"/>
        <pt x="271" y="310" on="1"/>
        <pt x="271" y="270" on="1"/>
        <pt x="117" y="270" on="1"/>
        <pt x="76" y="269" on="0"/>
        <pt x="76" y="240" on="1"/>
        <pt x="76" y="205" on="0"/>
        <pt x="116" y="205" on="1"/>
        <pt x="269" y="205" on="1"/>
        <pt x="269" y="164" on="1"/>
        <pt x="112" y="164" on="1"/>
        <pt x="32" y="164" on="0"/>
        <pt x="32" y="228" on="1"/>
        <pt x="32" y="283" on="0"/>
        <pt x="90" y="292" on="1"/>
        <pt x="74" y="296" on="0"/>
        <pt x="63" y="302" on="1"/>
        <pt x="35" y="316" on="0"/>
        <pt x="33" y="337" on="1"/>
        <pt x="32" y="343" on="0"/>
        <pt x="32" y="349" on="1"/>
        <pt x="32" y="396" on="0"/>
        <pt x="76" y="411" on="1"/>
        <pt x="92" y="417" on="0"/>
        <pt x="114" y="417" on="1"/>
        <pt x="468" y="417" on="1"/>
      </contour>
    </TTGlyph>
    <TTGlyph name="S" xMin="36" yMin="-125" xMax="938" yMax="415">
      <contour>
        <pt x="938" y="0" on="1"/>
        <pt x="808" y="0" on="1"/>
        <pt x="776" y="-125" on="1"/>
        <pt x="709" y="-107" on="1"/>
        <pt x="740" y="0" on="1"/>
        <pt x="349" y="1" on="1"/>
        <pt x="349" y="32" on="1"/>
        <pt x="390" y="47" on="0"/>
        <pt x="411" y="98" on="1"/>
        <pt x="430" y="143" on="0"/>
        <pt x="430" y="202" on="1"/>
        <pt x="430" y="283" on="0"/>
        <pt x="369" y="335" on="1"/>
        <pt x="318" y="378" on="0"/>
        <pt x="260" y="378" on="1"/>
        <pt x="178" y="378" on="0"/>
        <pt x="66" y="261" on="0"/>
        <pt x="66" y="181" on="1"/>
        <pt x="98" y="243" on="0"/>
        <pt x="166" y="243" on="1"/>
        <pt x="210" y="243" on="0"/>
        <pt x="277" y="185" on="0"/>
        <pt x="286" y="130" on="1"/>
        <pt x="288" y="118" on="0"/>
        <pt x="288" y="107" on="1"/>
        <pt x="288" y="55" on="0"/>
        <pt x="212" y="-6" on="0"/>
        <pt x="156" y="0" on="1"/>
        <pt x="119" y="4" on="0"/>
        <pt x="86" y="38" on="1"/>
        <pt x="36" y="90" on="0"/>
        <pt x="36" y="188" on="1"/>
        <pt x="36" y="282" on="0"/>
        <pt x="167" y="411" on="0"/>
        <pt x="263" y="411" on="1"/>
        <pt x="365" y="411" on="0"/>
        <pt x="432" y="355" on="1"/>
        <pt x="505" y="294" on="0"/>
        <pt x="505" y="190" on="1"/>
        <pt x="505" y="141" on="0"/>
        <pt x="466" y="52" on="0"/>
        <pt x="442" y="36" on="1"/>
        <pt x="704" y="36" on="1"/>
        <pt x="677" y="62" on="0"/>
        <pt x="656" y="116" on="1"/>
        <pt x="632" y="176" on="0"/>
        <pt x="632" y="235" on="1"/>
        <pt x="632" y="309" on="0"/>
        <pt x="675" y="363" on="1"/>
        <pt x="716" y="415" on="0"/>
        <pt x="777" y="415" on="1"/>
        <pt x="779" y="415" on="1"/>
        <pt x="820" y="414" on="0"/>
        <pt x="851" y="385" on="1"/>
        <pt x="888" y="351" on="0"/>
        <pt x="888" y="296" on="1"/>
        <pt x="888" y="272" on="0"/>
        <pt x="880" y="245" on="1"/>
        <pt x="820" y="32" on="1"/>
        <pt x="938" y="32" on="1"/>
      </contour>
      <contour>
        <pt x="807" y="245" on="1"/>
        <pt x="812" y="264" on="0"/>
        <pt x="812" y="284" on="1"/>
        <pt x="812" y="356" on="0"/>
        <pt x="765" y="360" on="1"/>
        <pt x="719" y="364" on="0"/>
        <pt x="695" y="324" on="1"/>
        <pt x="675" y="289" on="0"/>
        <pt x="675" y="232" on="1"/>
        <pt x="675" y="186" on="0"/>
        <pt x="703" y="118" on="1"/>
        <pt x="723" y="68" on="0"/>
        <pt x="744" y="37" on="1"/>
        <pt x="745" y="36" on="0"/>
        <pt x="752" y="38" on="1"/>
      </contour>
      <contour>
        <pt x="146" y="201" on="1"/>
        <pt x="119" y="201" on="0"/>
        <pt x="87" y="167" on="0"/>
        <pt x="87" y="140" on="1"/>
        <pt x="87" y="117" on="0"/>
        <pt x="97" y="89" on="1"/>
        <pt x="116" y="37" on="0"/>
        <pt x="169" y="34" on="1"/>
        <pt x="216" y="31" on="0"/>
        <pt x="216" y="100" on="1"/>
        <pt x="216" y="137" on="0"/>
        <pt x="199" y="166" on="1"/>
        <pt x="180" y="201" on="0"/>
      </contour>
    </TTGlyph>
    <TTGlyph name="T" xMin="60" yMin="-155" xMax="778" yMax="411">
      <contour>
        <pt x="778" y="0" on="1"/>
        <pt x="401" y="0" on="1"/>
        <pt x="401" y="-155" on="1"/>
        <pt x="355" y="-155" on="1"/>
        <pt x="355" y="0" on="1"/>
        <pt x="60" y="0" on="1"/>
        <pt x="60" y="411" on="1"/>
        <pt x="135" y="411" on="1"/>
        <pt x="135" y="39" on="1"/>
        <pt x="778" y="39" on="1"/>
      </contour>
    </TTGlyph>
    <TTGlyph name="Thorn" xMin="-631" yMin="-514" xMax="-104" yMax="-186">
      <contour>
        <pt x="-104" y="-354" on="1"/>
        <pt x="-104" y="-429" on="0"/>
        <pt x="-157" y="-475" on="1"/>
        <pt x="-200" y="-513" on="0"/>
        <pt x="-250" y="-514" on="1"/>
        <pt x="-260" y="-514" on="1"/>
        <pt x="-359" y="-514" on="0"/>
        <pt x="-381" y="-444" on="1"/>
        <pt x="-403" y="-513" on="0"/>
        <pt x="-496" y="-513" on="1"/>
        <pt x="-548" y="-513" on="0"/>
        <pt x="-618" y="-462" on="0"/>
        <pt x="-615" y="-426" on="1"/>
        <pt x="-612" y="-396" on="0"/>
        <pt x="-575" y="-375" on="1"/>
        <pt x="-560" y="-366" on="0"/>
        <pt x="-517" y="-351" on="1"/>
        <pt x="-429" y="-318" on="0"/>
        <pt x="-426" y="-278" on="1"/>
        <pt x="-425" y="-257" on="0"/>
        <pt x="-462" y="-222" on="0"/>
        <pt x="-515" y="-209" on="0"/>
        <pt x="-544" y="-213" on="1"/>
        <pt x="-603" y="-222" on="0"/>
        <pt x="-603" y="-264" on="1"/>
        <pt x="-603" y="-274" on="0"/>
        <pt x="-597" y="-284" on="1"/>
        <pt x="-586" y="-303" on="0"/>
        <pt x="-562" y="-303" on="1"/>
        <pt x="-545" y="-303" on="0"/>
        <pt x="-520" y="-285" on="0"/>
        <pt x="-520" y="-272" on="1"/>
        <pt x="-520" y="-267" on="0"/>
        <pt x="-522" y="-263" on="1"/>
        <pt x="-535" y="-240" on="0"/>
        <pt x="-566" y="-233" on="1"/>
        <pt x="-563" y="-228" on="1"/>
        <pt x="-547" y="-222" on="0"/>
        <pt x="-531" y="-222" on="1"/>
        <pt x="-487" y="-222" on="0"/>
        <pt x="-477" y="-251" on="1"/>
        <pt x="-472" y="-264" on="0"/>
        <pt x="-472" y="-273" on="1"/>
        <pt x="-472" y="-292" on="0"/>
        <pt x="-493" y="-309" on="1"/>
        <pt x="-519" y="-329" on="0"/>
        <pt x="-556" y="-329" on="1"/>
        <pt x="-582" y="-329" on="0"/>
        <pt x="-604" y="-315" on="1"/>
        <pt x="-631" y="-298" on="0"/>
        <pt x="-631" y="-271" on="1"/>
        <pt x="-631" y="-234" on="0"/>
        <pt x="-595" y="-211" on="1"/>
        <pt x="-564" y="-192" on="0"/>
        <pt x="-525" y="-192" on="1"/>
        <pt x="-475" y="-191" on="0"/>
        <pt x="-436" y="-213" on="1"/>
        <pt x="-394" y="-238" on="0"/>
        <pt x="-395" y="-275" on="1"/>
        <pt x="-396" y="-321" on="0"/>
        <pt x="-434" y="-347" on="1"/>
        <pt x="-473" y="-369" on="0"/>
        <pt x="-511" y="-392" on="1"/>
        <pt x="-528" y="-405" on="0"/>
        <pt x="-528" y="-420" on="1"/>
        <pt x="-528" y="-435" on="0"/>
        <pt x="-498" y="-455" on="0"/>
        <pt x="-475" y="-455" on="1"/>
        <pt x="-394" y="-455" on="0"/>
        <pt x="-394" y="-389" on="1"/>
        <pt x="-394" y="-382" on="0"/>
        <pt x="-395" y="-375" on="1"/>
        <pt x="-366" y="-375" on="1"/>
        <pt x="-359" y="-452" on="0"/>
        <pt x="-261" y="-452" on="1"/>
        <pt x="-212" y="-452" on="0"/>
        <pt x="-176" y="-424" on="1"/>
        <pt x="-136" y="-393" on="0"/>
        <pt x="-136" y="-340" on="1"/>
        <pt x="-136" y="-308" on="0"/>
        <pt x="-153" y="-277" on="1"/>
        <pt x="-176" y="-240" on="0"/>
        <pt x="-217" y="-227" on="1"/>
        <pt x="-228" y="-224" on="0"/>
        <pt x="-241" y="-224" on="1"/>
        <pt x="-275" y="-224" on="0"/>
        <pt x="-285" y="-241" on="1"/>
        <pt x="-296" y="-259" on="0"/>
        <pt x="-267" y="-286" on="0"/>
        <pt x="-244" y="-286" on="1"/>
        <pt x="-198" y="-286" on="0"/>
        <pt x="-203" y="-243" on="1"/>
        <pt x="-203" y="-237" on="0"/>
        <pt x="-184" y="-270" on="0"/>
        <pt x="-184" y="-283" on="1"/>
        <pt x="-184" y="-296" on="0"/>
        <pt x="-193" y="-303" on="1"/>
        <pt x="-210" y="-318" on="0"/>
        <pt x="-234" y="-318" on="1"/>
        <pt x="-274" y="-318" on="0"/>
        <pt x="-303" y="-292" on="1"/>
        <pt x="-329" y="-268" on="0"/>
        <pt x="-326" y="-240" on="1"/>
        <pt x="-319" y="-186" on="0"/>
        <pt x="-242" y="-186" on="1"/>
        <pt x="-227" y="-186" on="0"/>
        <pt x="-217" y="-189" on="1"/>
        <pt x="-104" y="-216" on="0"/>
      </contour>
    </TTGlyph>
    <TTGlyph name="U" xMin="11" yMin="0" xMax="939" yMax="424">
      <contour>
        <pt x="905" y="389" on="1"/>
        <pt x="863" y="389" on="1"/>
        <pt x="863" y="101" on="1"/>
        <pt x="803" y="101" on="1"/>
        <pt x="803" y="389" on="1"/>
        <pt x="705" y="389" on="1"/>
        <pt x="705" y="101" on="1"/>
        <pt x="645" y="101" on="1"/>
        <pt x="645" y="211" on="1"/>
        <pt x="645" y="296" on="0"/>
        <pt x="570" y="394" on="0"/>
        <pt x="516" y="391" on="1"/>
        <pt x="469" y="388" on="0"/>
        <pt x="413" y="304" on="0"/>
        <pt x="411" y="245" on="1"/>
        <pt x="410" y="231" on="0"/>
        <pt x="411" y="225" on="1"/>
        <pt x="409" y="246" on="0"/>
        <pt x="425" y="274" on="1"/>
        <pt x="444" y="307" on="0"/>
        <pt x="472" y="313" on="1"/>
        <pt x="483" y="315" on="0"/>
        <pt x="493" y="315" on="1"/>
        <pt x="530" y="315" on="0"/>
        <pt x="573" y="255" on="0"/>
        <pt x="573" y="201" on="1"/>
        <pt x="573" y="143" on="0"/>
        <pt x="540" y="114" on="1"/>
        <pt x="516" y="94" on="0"/>
        <pt x="485" y="94" on="1"/>
        <pt x="436" y="94" on="0"/>
        <pt x="386" y="176" on="0"/>
        <pt x="387" y="243" on="1"/>
        <pt x="388" y="318" on="0"/>
        <pt x="464" y="416" on="0"/>
        <pt x="524" y="420" on="1"/>
        <pt x="532" y="421" on="0"/>
        <pt x="539" y="421" on="1"/>
        <pt x="620" y="421" on="0"/>
        <pt x="668" y="351" on="1"/>
        <pt x="668" y="420" on="1"/>
        <pt x="905" y="420" on="1"/>
      </contour>
      <contour>
        <pt x="939" y="0" on="1"/>
        <pt x="88" y="0" on="1"/>
        <pt x="11" y="0" on="0"/>
        <pt x="11" y="67" on="1"/>
        <pt x="11" y="98" on="0"/>
        <pt x="50" y="140" on="0"/>
        <pt x="77" y="140" on="1"/>
        <pt x="200" y="140" on="1"/>
        <pt x="239" y="140" on="0"/>
        <pt x="284" y="206" on="0"/>
        <pt x="284" y="267" on="1"/>
        <pt x="284" y="329" on="0"/>
        <pt x="252" y="364" on="1"/>
        <pt x="229" y="388" on="0"/>
        <pt x="173" y="396" on="0"/>
        <pt x="141" y="393" on="1"/>
        <pt x="159" y="393" on="0"/>
        <pt x="189" y="334" on="0"/>
        <pt x="189" y="297" on="1"/>
        <pt x="189" y="253" on="0"/>
        <pt x="135" y="200" on="0"/>
        <pt x="99" y="200" on="1"/>
        <pt x="65" y="200" on="0"/>
        <pt x="22" y="254" on="0"/>
        <pt x="22" y="298" on="1"/>
        <pt x="22" y="342" on="0"/>
        <pt x="47" y="375" on="1"/>
        <pt x="70" y="405" on="0"/>
        <pt x="104" y="414" on="1"/>
        <pt x="141" y="424" on="0"/>
        <pt x="178" y="424" on="1"/>
        <pt x="251" y="424" on="0"/>
        <pt x="296" y="388" on="1"/>
        <pt x="349" y="347" on="0"/>
        <pt x="349" y="267" on="1"/>
        <pt x="349" y="107" on="0"/>
        <pt x="208" y="107" on="1"/>
        <pt x="95" y="107" on="1"/>
        <pt x="83" y="107" on="0"/>
        <pt x="66" y="80" on="0"/>
        <pt x="66" y="64" on="1"/>
        <pt x="66" y="31" on="0"/>
        <pt x="97" y="31" on="1"/>
        <pt x="939" y="31" on="1"/>
      </contour>
      <contour>
        <pt x="519" y="206" on="1"/>
        <pt x="519" y="282" on="0"/>
        <pt x="477" y="282" on="1"/>
        <pt x="454" y="282" on="0"/>
        <pt x="430" y="232" on="0"/>
        <pt x="431" y="200" on="1"/>
        <pt x="432" y="171" on="0"/>
        <pt x="458" y="127" on="0"/>
        <pt x="478" y="127" on="1"/>
        <pt x="498" y="127" on="0"/>
        <pt x="509" y="153" on="1"/>
        <pt x="519" y="175" on="0"/>
      </contour>
      <contour>
        <pt x="132" y="295" on="1"/>
        <pt x="132" y="324" on="0"/>
        <pt x="123" y="346" on="1"/>
        <pt x="111" y="373" on="0"/>
        <pt x="89" y="373" on="1"/>
        <pt x="70" y="373" on="0"/>
        <pt x="45" y="325" on="0"/>
        <pt x="45" y="296" on="1"/>
        <pt x="45" y="268" on="0"/>
        <pt x="69" y="227" on="0"/>
        <pt x="86" y="227" on="1"/>
        <pt x="107" y="227" on="0"/>
        <pt x="132" y="266" on="0"/>
      </contour>
    </TTGlyph>
    <TTGlyph name="Udieresis" xMin="-640" yMin="-480" xMax="-350" yMax="-233">
      <contour>
        <pt x="-505" y="-234" on="1"/>
        <pt x="-504" y="-235" on="1"/>
        <pt x="-496" y="-233" on="0"/>
        <pt x="-493" y="-233" on="1"/>
        <pt x="-457" y="-233" on="0"/>
        <pt x="-404" y="-254" on="0"/>
        <pt x="-368" y="-289" on="0"/>
        <pt x="-350" y="-333" on="0"/>
        <pt x="-350" y="-357" on="1"/>
        <pt x="-350" y="-380" on="0"/>
        <pt x="-368" y="-425" on="0"/>
        <pt x="-406" y="-459" on="0"/>
        <pt x="-462" y="-480" on="0"/>
        <pt x="-499" y="-480" on="1"/>
        <pt x="-499" y="-479" on="1"/>
        <pt x="-500" y="-479" on="1"/>
        <pt x="-534" y="-479" on="0"/>
        <pt x="-586" y="-459" on="0"/>
        <pt x="-622" y="-425" on="0"/>
        <pt x="-640" y="-382" on="0"/>
        <pt x="-640" y="-359" on="1"/>
        <pt x="-640" y="-336" on="0"/>
        <pt x="-623" y="-293" on="0"/>
        <pt x="-589" y="-258" on="0"/>
        <pt x="-539" y="-236" on="0"/>
      </contour>
      <contour>
        <pt x="-496" y="-272" on="1"/>
        <pt x="-547" y="-278" on="0"/>
        <pt x="-598" y="-330" on="0"/>
        <pt x="-598" y="-360" on="1"/>
        <pt x="-598" y="-390" on="0"/>
        <pt x="-550" y="-437" on="0"/>
        <pt x="-500" y="-437" on="1"/>
        <pt x="-498" y="-437" on="1"/>
        <pt x="-498" y="-436" on="1"/>
        <pt x="-466" y="-436" on="0"/>
        <pt x="-422" y="-413" on="0"/>
        <pt x="-400" y="-378" on="0"/>
        <pt x="-400" y="-357" on="1"/>
        <pt x="-400" y="-337" on="0"/>
        <pt x="-421" y="-300" on="0"/>
        <pt x="-464" y="-274" on="0"/>
      </contour>
    </TTGlyph>
    <TTGlyph name="V" xMin="64" yMin="-14" xMax="863" yMax="423">
      <contour>
        <pt x="832" y="133" on="1"/>
        <pt x="800" y="65" on="0"/>
        <pt x="686" y="-5" on="0"/>
        <pt x="589" y="-12" on="1"/>
        <pt x="569" y="-14" on="0"/>
        <pt x="550" y="-14" on="1"/>
        <pt x="477" y="-14" on="0"/>
        <pt x="369" y="26" on="0"/>
        <pt x="351" y="59" on="1"/>
        <pt x="307" y="-12" on="0"/>
        <pt x="220" y="-12" on="1"/>
        <pt x="160" y="-12" on="0"/>
        <pt x="116" y="27" on="1"/>
        <pt x="64" y="74" on="0"/>
        <pt x="64" y="159" on="1"/>
        <pt x="64" y="411" on="1"/>
        <pt x="131" y="411" on="1"/>
        <pt x="131" y="167" on="1"/>
        <pt x="131" y="33" on="0"/>
        <pt x="240" y="33" on="1"/>
        <pt x="274" y="33" on="0"/>
        <pt x="327" y="75" on="0"/>
        <pt x="327" y="109" on="1"/>
        <pt x="327" y="407" on="1"/>
        <pt x="404" y="407" on="1"/>
        <pt x="404" y="147" on="1"/>
        <pt x="404" y="96" on="0"/>
        <pt x="456" y="60" on="1"/>
        <pt x="505" y="27" on="0"/>
        <pt x="565" y="26" on="1"/>
        <pt x="742" y="24" on="0"/>
        <pt x="768" y="162" on="1"/>
        <pt x="765" y="165" on="0"/>
        <pt x="764" y="163" on="1"/>
        <pt x="763" y="160" on="0"/>
        <pt x="761" y="162" on="1"/>
        <pt x="743" y="150" on="0"/>
        <pt x="719" y="150" on="1"/>
        <pt x="672" y="150" on="0"/>
        <pt x="635" y="182" on="1"/>
        <pt x="589" y="221" on="0"/>
        <pt x="589" y="290" on="1"/>
        <pt x="589" y="354" on="0"/>
        <pt x="635" y="393" on="1"/>
        <pt x="670" y="423" on="0"/>
        <pt x="718" y="423" on="1"/>
        <pt x="775" y="423" on="0"/>
        <pt x="813" y="389" on="1"/>
        <pt x="863" y="345" on="0"/>
        <pt x="863" y="261" on="1"/>
        <pt x="863" y="197" on="0"/>
      </contour>
      <contour>
        <pt x="783" y="284" on="1"/>
        <pt x="781" y="328" on="0"/>
        <pt x="736" y="381" on="0"/>
        <pt x="698" y="379" on="1"/>
        <pt x="635" y="375" on="0"/>
        <pt x="633" y="292" on="1"/>
        <pt x="632" y="243" on="0"/>
        <pt x="689" y="179" on="0"/>
        <pt x="723" y="182" on="1"/>
        <pt x="757" y="185" on="0"/>
        <pt x="773" y="219" on="1"/>
        <pt x="785" y="246" on="0"/>
      </contour>
    </TTGlyph>
    <TTGlyph name="W" xMin="31" yMin="-141" xMax="1464" yMax="419">
      <contour>
        <pt x="1464" y="380" on="1"/>
        <pt x="1345" y="380" on="1"/>
        <pt x="1345" y="0" on="1"/>
        <pt x="1270" y="0" on="1"/>
        <pt x="1270" y="380" on="1"/>
        <pt x="1118" y="380" on="1"/>
        <pt x="1118" y="-1" on="1"/>
        <pt x="1039" y="-1" on="1"/>
        <pt x="1039" y="142" on="1"/>
        <pt x="1039" y="250" on="0"/>
        <pt x="956" y="386" on="0"/>
        <pt x="884" y="386" on="1"/>
        <pt x="807" y="386" on="0"/>
        <pt x="763" y="328" on="1"/>
        <pt x="723" y="274" on="0"/>
        <pt x="718" y="181" on="1"/>
        <pt x="753" y="239" on="0"/>
        <pt x="819" y="239" on="1"/>
        <pt x="864" y="239" on="0"/>
        <pt x="935" y="179" on="0"/>
        <pt x="935" y="129" on="1"/>
        <pt x="935" y="61" on="0"/>
        <pt x="855" y="-4" on="0"/>
        <pt x="792" y="2" on="1"/>
        <pt x="747" y="7" on="0"/>
        <pt x="686" y="98" on="0"/>
        <pt x="685" y="168" on="1"/>
        <pt x="683" y="280" on="0"/>
        <pt x="794" y="419" on="0"/>
        <pt x="889" y="419" on="1"/>
        <pt x="1015" y="419" on="0"/>
        <pt x="1074" y="313" on="1"/>
        <pt x="1074" y="411" on="1"/>
        <pt x="1464" y="411" on="1"/>
      </contour>
      <contour>
        <pt x="634" y="0" on="1"/>
        <pt x="518" y="1" on="1"/>
        <pt x="518" y="-141" on="1"/>
        <pt x="471" y="-141" on="1"/>
        <pt x="471" y="1" on="1"/>
        <pt x="413" y="1" on="1"/>
        <pt x="348" y="1" on="0"/>
        <pt x="348" y="63" on="1"/>
        <pt x="348" y="130" on="0"/>
        <pt x="424" y="130" on="1"/>
        <pt x="476" y="130" on="1"/>
        <pt x="538" y="130" on="0"/>
        <pt x="539" y="202" on="1"/>
        <pt x="540" y="269" on="0"/>
        <pt x="399" y="374" on="0"/>
        <pt x="309" y="374" on="1"/>
        <pt x="215" y="374" on="0"/>
        <pt x="146" y="324" on="1"/>
        <pt x="71" y="270" on="0"/>
        <pt x="66" y="179" on="1"/>
        <pt x="65" y="164" on="0"/>
        <pt x="69" y="132" on="1"/>
        <pt x="95" y="200" on="0"/>
        <pt x="165" y="200" on="1"/>
        <pt x="212" y="200" on="0"/>
        <pt x="270" y="142" on="0"/>
        <pt x="270" y="94" on="1"/>
        <pt x="270" y="48" on="0"/>
        <pt x="235" y="22" on="1"/>
        <pt x="205" y="-1" on="0"/>
        <pt x="166" y="0" on="1"/>
        <pt x="103" y="1" on="0"/>
        <pt x="31" y="92" on="0"/>
        <pt x="31" y="173" on="1"/>
        <pt x="31" y="286" on="0"/>
        <pt x="122" y="356" on="1"/>
        <pt x="203" y="419" on="0"/>
        <pt x="309" y="419" on="1"/>
        <pt x="455" y="419" on="0"/>
        <pt x="543" y="347" on="1"/>
        <pt x="617" y="285" on="0"/>
        <pt x="617" y="211" on="1"/>
        <pt x="617" y="139" on="0"/>
        <pt x="573" y="113" on="1"/>
        <pt x="543" y="95" on="0"/>
        <pt x="479" y="95" on="1"/>
        <pt x="423" y="95" on="1"/>
        <pt x="381" y="95" on="0"/>
        <pt x="381" y="62" on="1"/>
        <pt x="381" y="33" on="0"/>
        <pt x="421" y="34" on="1"/>
        <pt x="634" y="34" on="1"/>
      </contour>
      <contour>
        <pt x="863" y="116" on="1"/>
        <pt x="863" y="158" on="0"/>
        <pt x="826" y="205" on="0"/>
        <pt x="798" y="205" on="1"/>
        <pt x="766" y="205" on="0"/>
        <pt x="749" y="179" on="1"/>
        <pt x="733" y="157" on="0"/>
        <pt x="733" y="123" on="1"/>
        <pt x="733" y="87" on="0"/>
        <pt x="749" y="63" on="1"/>
        <pt x="768" y="35" on="0"/>
        <pt x="802" y="33" on="1"/>
        <pt x="831" y="31" on="0"/>
        <pt x="863" y="80" on="0"/>
      </contour>
      <contour>
        <pt x="209" y="101" on="1"/>
        <pt x="209" y="129" on="0"/>
        <pt x="176" y="165" on="0"/>
        <pt x="150" y="165" on="1"/>
        <pt x="124" y="165" on="0"/>
        <pt x="90" y="129" on="0"/>
        <pt x="90" y="101" on="1"/>
        <pt x="90" y="73" on="0"/>
        <pt x="124" y="34" on="0"/>
        <pt x="150" y="34" on="1"/>
        <pt x="176" y="34" on="0"/>
        <pt x="209" y="73" on="0"/>
      </contour>
    </TTGlyph>
    <TTGlyph name="X" xMin="40" yMin="-4" xMax="851" yMax="412">
      <contour>
        <pt x="851" y="382" on="1"/>
        <pt x="742" y="382" on="1"/>
        <pt x="742" y="170" on="1"/>
        <pt x="742" y="91" on="0"/>
        <pt x="709" y="46" on="1"/>
        <pt x="672" y="-4" on="0"/>
        <pt x="600" y="-4" on="1"/>
        <pt x="424" y="-4" on="0"/>
        <pt x="424" y="172" on="1"/>
        <pt x="424" y="381" on="1"/>
        <pt x="284" y="381" on="1"/>
        <pt x="284" y="127" on="1"/>
        <pt x="282" y="69" on="0"/>
        <pt x="214" y="0" on="0"/>
        <pt x="160" y="0" on="1"/>
        <pt x="139" y="0" on="0"/>
        <pt x="118" y="5" on="1"/>
        <pt x="40" y="24" on="0"/>
        <pt x="40" y="144" on="1"/>
        <pt x="40" y="410" on="1"/>
        <pt x="84" y="410" on="1"/>
        <pt x="84" y="140" on="1"/>
        <pt x="84" y="43" on="0"/>
        <pt x="160" y="47" on="1"/>
        <pt x="227" y="51" on="0"/>
        <pt x="227" y="136" on="1"/>
        <pt x="227" y="412" on="1"/>
        <pt x="851" y="412" on="1"/>
      </contour>
      <contour>
        <pt x="699" y="168" on="1"/>
        <pt x="699" y="381" on="1"/>
        <pt x="527" y="381" on="1"/>
        <pt x="527" y="170" on="1"/>
        <pt x="527" y="104" on="0"/>
        <pt x="565" y="46" on="0"/>
        <pt x="615" y="47" on="1"/>
        <pt x="699" y="48" on="0"/>
      </contour>
    </TTGlyph>
</ttFont>
